<svg id="グループ_3157" data-name="グループ 3157" xmlns="http://www.w3.org/2000/svg" xmlns:xlink="http://www.w3.org/1999/xlink" width="27.789" height="25.076" viewBox="0 0 27.789 25.076">
  <defs>
    <clipPath id="clip-path">
      <rect id="長方形_2218" data-name="長方形 2218" width="27.789" height="25.076" fill="#024287"/>
    </clipPath>
  </defs>
  <path id="パス_3313" data-name="パス 3313" d="M1053.38,874.91l.034.058.1-.058Z" transform="translate(-1038.664 -862.687)" fill="#024287"/>
  <rect id="長方形_2216" data-name="長方形 2216" width="15.588" height="0.559" transform="translate(4.712 22.007)" fill="#024287"/>
  <path id="パス_3314" data-name="パス 3314" d="M490.49,1242.57v.952h.385v-.567h.217v1.807h-.21v.385h1.031v-.385h-.208v-1.807h.217v.567h.386v-.952Z" transform="translate(-483.638 -1225.211)" fill="#024287"/>
  <path id="パス_3315" data-name="パス 3315" d="M632.393,1244.763h.265v.385H631.53v-.385h.249v-1.807h-.249v-.385h1.128v.385h-.265Z" transform="translate(-622.707 -1225.211)" fill="#024287"/>
  <g id="グループ_3158" data-name="グループ 3158">
    <g id="グループ_3157-2" data-name="グループ 3157" clip-path="url(#clip-path)">
      <path id="パス_3316" data-name="パス 3316" d="M729.364,1241.587a1.329,1.329,0,0,1-.065.3.845.845,0,0,1-.176.3.643.643,0,0,1-.49.214.7.7,0,0,1-.184-.024.741.741,0,0,1-.427-.333,1.836,1.836,0,0,1-.234-1.01q0-.109.007-.21h0a1.655,1.655,0,0,1,.2-.738l.02-.033a.574.574,0,0,1,.487-.312l.047,0h0a.471.471,0,0,1,.32.214h.007v-.177h.411v.871h-.411a.867.867,0,0,0-.1-.4.159.159,0,0,0-.136-.082q-.133,0-.158.192c0,.019,0,.04-.007.064q-.018.2-.018.6a4.585,4.585,0,0,0,.038.758q.039.179.173.179a.165.165,0,0,0,.155-.127,1.393,1.393,0,0,0,.065-.393Z" transform="translate(-717.622 -1222.42)" fill="#024287"/>
      <path id="パス_3317" data-name="パス 3317" d="M916.045,1244.763v.385h-.891v-.385h.127l-.3-.769-.076-.2.437-.841h-.161v-.385h.753v.385h-.154l-.346.659.038.1.308.79.1.262Z" transform="translate(-902.128 -1225.211)" fill="#024287"/>
      <path id="パス_3318" data-name="パス 3318" d="M853.982,1242.956v1.807h.124v.385h-.925v-.385h.188v-1.807h-.188v-.385h.959v.385Z" transform="translate(-841.261 -1225.211)" fill="#024287"/>
      <path id="パス_3319" data-name="パス 3319" d="M1141.2,1242.57v.952h-.386v-.567h-.217v1.807h.208v.385h-1.031v-.385h.21v-1.807h-.217v.567h-.385v-.952Z" transform="translate(-1123.462 -1225.211)" fill="#024287"/>
      <path id="パス_3320" data-name="パス 3320" d="M1314.733,1248.033l.275.845h.889l-.719.522.275.845-.719-.522-.719.522.275-.845-.719-.522h.889Z" transform="translate(-1295.219 -1230.597)" fill="#024287"/>
      <path id="パス_3321" data-name="パス 3321" d="M282.227,1248.875l-.23.167h0l-.489.355.115.353.16.492-.358-.26-.361-.262-.719.522.2-.614.075-.231-.719-.522h.889l.275-.845.187.575h0l.088.27Z" transform="translate(-275.99 -1230.595)" fill="#024287"/>
      <path id="パス_3322" data-name="パス 3322" d="M1002.442,1243.389v-.434H1002v.683h.343v.385H1002v.739h.445v-.455h.459v.841h-1.741v-.385h.224v-1.807h-.224v-.385h1.741v.819Z" transform="translate(-987.173 -1225.211)" fill="#024287"/>
      <rect id="長方形_2217" data-name="長方形 2217" width="15.588" height="0.559" transform="translate(4.712 14.733)" fill="#024287"/>
      <path id="パス_3323" data-name="パス 3323" d="M24.169,879.68h.419v-4.77H14.85l-.1.058-.034-.058H0v4.77H.419a1.656,1.656,0,1,1,0,3.312H0v4.77H24.588v-4.77h-.419a1.656,1.656,0,1,1,0-3.312M23.75,883.8v3.129H.838V883.8a2.495,2.495,0,0,0,0-4.918v-3.129H23.75v3.129a2.495,2.495,0,0,0,0,4.918" transform="translate(0 -862.687)" fill="#024287"/>
      <path id="パス_3324" data-name="パス 3324" d="M27.789,11.131,25.387,7l-.365.21A1.676,1.676,0,0,1,22.744,6.6a1.652,1.652,0,0,1,.61-2.262l.365-.21L21.318,0,0,12.223H1.688L21.009,1.145l1.575,2.71a2.487,2.487,0,0,0-.572,3.167,2.524,2.524,0,0,0,3.048,1.092l1.575,2.71-2.44,1.4h.37v.756Z" fill="#024287"/>
      <path id="パス_3325" data-name="パス 3325" d="M1417.451,760.444l-1.943,1.122h-1.118l2.781-1.606Z" transform="translate(-1394.63 -749.343)" fill="#024287"/>
      <path id="パス_3326" data-name="パス 3326" d="M749.82,842.27l-.79.456h.771l.212-.122Z" transform="translate(-738.565 -830.503)" fill="#024287"/>
      <path id="パス_3327" data-name="パス 3327" d="M843.562,780.92l-.356.205.089.154-.006,0a.452.452,0,0,0-.427,0,.591.591,0,0,0-.267.552,1.334,1.334,0,0,0,.063.4h.712a4.362,4.362,0,0,1-.208-.407q-.074-.179.041-.245.172-.1.44.3l.356-.205Z" transform="translate(-830.823 -770.01)" fill="#024287"/>
      <path id="パス_3328" data-name="パス 3328" d="M930.436,705.956l-.137.079-.962-.771-.03-.743.134-.077-.193-.334-.652.377.193.334.14-.081.042.947.8.651-.11.064.055.094h.553l.357-.206Zm-.928.536-.007,0h.009Zm-1.011-1.5.137-.079-.193-.334-.831.48.193.334.163-.094.693,1.2h.708Z" transform="translate(-914.651 -694.273)" fill="#024287"/>
      <path id="パス_3329" data-name="パス 3329" d="M1058.146,637.015l-.4.229.228.394-.385.222-.369-.64.3-.171-.193-.334-.3.171-.341-.592.385-.222.217.376.4-.229-.41-.71-1.508.871.193.334.194-.112.9,1.565-.194.112.193.334,1.508-.87Z" transform="translate(-1041.02 -626.632)" fill="#024287"/>
      <path id="パス_3330" data-name="パス 3330" d="M1177.8,565.736l-.18.1-.9-1.565.188-.109.283.491.334-.193-.476-.825-1.574.909.476.825.333-.193-.283-.491.188-.109.9,1.565-.182.1.193.334.893-.515Z" transform="translate(-1159.048 -555.766)" fill="#024287"/>
      <path id="パス_3331" data-name="パス 3331" d="M1359.889,504.716l.661.595.769-.444-.361.812.66.595-.884-.093-.362.812-.185-.869-.884-.093.77-.444Z" transform="translate(-1340.314 -497.665)" fill="#024287"/>
      <path id="パス_3332" data-name="パス 3332" d="M386.973,309.524l-12.855,7.422H373l1.368-.789.1-.06,12.222-7.056Z" transform="translate(-367.789 -304.723)" fill="#024287"/>
    </g>
  </g>
</svg>
