<svg id="グループ_3055" data-name="グループ 3055" xmlns="http://www.w3.org/2000/svg" xmlns:xlink="http://www.w3.org/1999/xlink" width="37.908" height="108.961" viewBox="0 0 37.908 108.961">
  <defs>
    <clipPath id="clip-path">
      <rect id="長方形_2081" data-name="長方形 2081" width="37.908" height="108.961" fill="none"/>
    </clipPath>
  </defs>
  <g id="グループ_3054" data-name="グループ 3054" clip-path="url(#clip-path)">
    <path id="パス_3055" data-name="パス 3055" d="M37.236,179.808c0-.289.054-4.606.143-4.915.2-.684,1.794-.2,3.355-.251,1.832-.063,2.859-.341,2.906.987.036,1.014.005,1.652.036,2.009.036.413,1.148.072,2.045.395a1.875,1.875,0,0,1,1.328,1.148c.4,1.289-.233,2.314-2.135,3.3-1.152.6-3.534,1.953-4,2.171a3.36,3.36,0,0,1-3.964-.915c-.684-1.089.287-2.637.287-3.929" transform="translate(-29.982 -75.971)" fill="#0054a7"/>
    <path id="パス_3056" data-name="パス 3056" d="M17.856,179.6c0-.289.054-4.606.143-4.915.2-.684,1.794-.2,3.355-.251,1.832-.063,2.859-.34,2.906.987.036,1.014.005,1.652.036,2.009.036.413,1.148.072,2.045.395a1.875,1.875,0,0,1,1.328,1.148c.4,1.289-.233,2.314-2.135,3.3-1.151.6-3.534,1.952-4,2.171a3.359,3.359,0,0,1-3.964-.915c-.685-1.089.287-2.637.287-3.929" transform="translate(0.341 -75.881)" fill="#0054a7"/>
    <path id="パス_3057" data-name="パス 3057" d="M51.977,49.139c-1.306,3.517-1.116,5-.684,6.85.754,3.242,3.534,3.613,5.2,2.571s.354-7.754-.556-9.421-3.185-2.09-3.961,0" transform="translate(-48.168 -20.776)" fill="#ffdbb0"/>
    <path id="パス_3058" data-name="パス 3058" d="M6.415,23.935c.571,1.11-.189,4.342.181,4.957a36.1,36.1,0,0,1,2.43,5.532c1.146,3.544.7,7.951-.365,8.548-2.919,1.633-6.046.156-8.472-1.62-.935-.684,1.854-5.313,2.635-5,.268.107,1.683,1.247,2.345.73.465-.363.161-1.526-.132-3.345a33.991,33.991,0,0,0-.884-3.327,1.62,1.62,0,0,0-.4-.968,8.58,8.58,0,0,1-1-3.471c-.021-.437-.956-3.035-1.211-3.955-.14-.505.372-.8,1.106-.6.259.069.377-.674.935-.278a7.766,7.766,0,0,1,2.828,2.8" transform="translate(28.207 -9.15)" fill="#ffdbb0"/>
    <path id="パス_3059" data-name="パス 3059" d="M33.772,89.975c-1.621,0-9.463-1.166-11.454-1.467-2.314-.351-2.91,5.058-2.91,9.294,0,9.36,1.159,9.495.933,17.07-.455,15.22-.444,25.612-.584,27.2s7.419.76,7.419-1.811c0-.374.974-18.468,1.057-19.945.1-1.739-.161-10.516.845-10.442,1.083.08.76,2.476.725,6.639-.031,3.571.757,25.134,1.054,26.026.468,1.4,6.949-.976,7.477-2.045.706-1.429,1.156-17.369,1.16-24.338,0-2.791.586-7.84.019-21.571-.252-6.1-.845-4.611-5.741-4.611" transform="translate(-12.812 -38.521)" fill="#51a7dd"/>
    <path id="パス_3060" data-name="パス 3060" d="M38.831,37.663c-1.451-.987-2.7-3.038-5.916-5.614-2.456-1.969-4.073-2.657-5.493-2.475-1.052.135-.787.709-3.3.337-1.3-.192-1.587-1.11-2.936-.782-1.162.235-6.245,4.643-7.644,6.512-6.28,8.386-1.313,8.539-.912,10.569.286,1.447,2.233,8.61,2.028,11.211s-3.921,7.068-1.909,9.511c2.5,3.041,23.522,1.845,23.561,1.162.263-4.626-1.343-11.619-2-15.454-.634-3.677-1.468-6.557-.05-7.543.726-.5,2.631,2.965,4.393-1.4,1.639-4.056,1.691-5.011.181-6.037" transform="translate(-7.88 -12.649)" fill="#fedc5e"/>
    <path id="パス_3061" data-name="パス 3061" d="M18.07,58.391c.6-2.3.584-3.563,2.162-3.856,2.124-.393,4.567,2.12,5.841,3.271a21.254,21.254,0,0,0,6.659,4.381c1.885.668,2.454,1.051,2.8,2.862.2,1.016-.584,2.454-1.869,4.09A6.648,6.648,0,0,1,27.884,72a13.634,13.634,0,0,1-8.47-3.855c-3.233-3.488-1.8-7.982-1.343-9.756" transform="translate(-7.461 -23.721)" fill="#62c0b4"/>
    <path id="パス_3062" data-name="パス 3062" d="M39.716,47.377c.454-1.452-.772-7.88-.954-11.021-.169-2.923-.526-3.174,0-3.681a4.5,4.5,0,0,1,1.363-.8c.278-.019.245.328.261.6a44.209,44.209,0,0,0,1.5,6.682c.853,2.988,1.868,5.864,2.467,6.272,1.46.993.195,1.411-1.538,2.3-2.512,1.285-3.55,1.1-3.1-.351" transform="translate(-28.814 -13.876)" fill="#62c0b4"/>
    <path id="パス_3063" data-name="パス 3063" d="M25.867,64.773c-1.323-1.078-1.3-2.2-1.274-3.934.006-.306.011-.636.01-.993a.253.253,0,0,1,.506,0c0,.36-.005.693-.01,1-.033,1.954-.046,2.843,1.608,3.9C28.4,65.834,34.015,69.4,35.2,69.882a.25.25,0,0,1,.139.33.253.253,0,0,1-.33.139c-1.191-.483-6.394-3.778-8.575-5.172a6.157,6.157,0,0,1-.567-.406" transform="translate(-11.333 -25.941)" fill="#fff"/>
    <path id="パス_3064" data-name="パス 3064" d="M58.2,9.29a16.328,16.328,0,0,0-1.911-2.332,4.015,4.015,0,0,0-2.181-1,3.368,3.368,0,0,0-2.6.645,4.9,4.9,0,0,0-.934,3.455,2.755,2.755,0,0,1-1.542,2.628c-.923.608-2.7.6-2.386,1.3.931,2.05,2.173,2.189,3.4,1.787,3.96-1.3,1.123-4.688,3.523-5.6s2.656-.6,4.628-.88" transform="translate(-46.606 -2.589)" fill="#f78a1c"/>
    <path id="パス_3065" data-name="パス 3065" d="M26.805,2.57a5.506,5.506,0,0,1,7.215,2.215c.653,1.272-.1,2.96,1.317,3.975.165.118.086.361.094.456.185,2.236-.052,2.774-.275,3.363a6.336,6.336,0,0,1-2.692,3.043,5.268,5.268,0,0,1-3.748-.274c-.946-.4-4.114-3.806-4.509-5.1-.6-1.977-1.4-5.877,2.6-7.679" transform="translate(-10.978 -0.868)" fill="#ffdbb0"/>
    <path id="パス_3066" data-name="パス 3066" d="M34.165.006c-.95.041-3.112.273-4.228,1.4C27.8,3.577,27.87,7.4,28.3,9.316a8.583,8.583,0,0,0,3.043,4.889c.977.794,2.765.933,3.977.975,1.887.064,3.847-.56,4.443-3.037.522-2.172-1.018-2.061-.8-3.1.174-.84.409-.763.856-.524s.329-1.509.391-2.46c.078-1.21.914-2.913.447-4.023S36.268-.086,34.165.006" transform="translate(-18.729 0)" fill="#f78a1c"/>
    <path id="パス_3067" data-name="パス 3067" d="M36.194,27.989c.876.175,1.881,1.608,2.279,1.051.584-.818-1.544-2.652-2.979-3.622-2.162-1.46-5.3-1.075-7.185-1.285-2.1-.233-2.666,1.124-3.622,2.045-1.075,1.036-.374,3.161,1.11,2.337,1.051-.584,2.009-.01,5.082.234,2.237.177,3.9-1.043,5.316-.76" transform="translate(-14.311 -10.494)" fill="#51a7dd"/>
  </g>
</svg>
