<svg id="グループ_3057" data-name="グループ 3057" xmlns="http://www.w3.org/2000/svg" xmlns:xlink="http://www.w3.org/1999/xlink" width="41.872" height="104.162" viewBox="0 0 41.872 104.162">
  <defs>
    <clipPath id="clip-path">
      <rect id="長方形_2082" data-name="長方形 2082" width="41.872" height="104.162" fill="none"/>
    </clipPath>
  </defs>
  <g id="グループ_3056" data-name="グループ 3056" clip-path="url(#clip-path)">
    <path id="パス_3068" data-name="パス 3068" d="M58.379,136.889c-.16-1.539-.373-8.116-.507-11.881-.083-2.3.768-6.668,2.517-6.9,2.79-.363,4.031,3.049,4.159,6.458.093,2.452-.322,19.983-.388,21.9-.084,2.454-.373,4.945-2.319,4.992-2.067.051-2.266-1.908-2.454-3.949-.3-3.294-.84-9.008-1.008-10.622" transform="translate(-27.252 -55.612)" fill="#ffdbb0"/>
    <path id="パス_3069" data-name="パス 3069" d="M62.66,182.162c0-.27-.05-4.315-.134-4.6-.186-.641-1.681-.185-3.144-.235-1.716-.059-2.679-.319-2.723.924-.033.95,0,1.547-.033,1.882-.034.387-1.076.067-1.916.37a1.757,1.757,0,0,0-1.243,1.076c-.376,1.207.218,2.168,2,3.092,1.079.56,3.312,1.829,3.748,2.034a3.148,3.148,0,0,0,3.715-.857c.641-1.02-.269-2.471-.269-3.681" transform="translate(-25.129 -83.456)" fill="#f78a1c"/>
    <path id="パス_3070" data-name="パス 3070" d="M69.028,57.856a18.49,18.49,0,0,1,.635,7.034c-.177,1.317-.545,5.719-.936,7.148-.23.838,1.837,2.5,2.067,1.879,1.1-2.97,1.2-2.711,3.2-8.787,1.117-3.454-1.914-15.47-4.044-14.262-1.352.766-1.4,5.2-.918,6.988" transform="translate(-32.358 -23.916)" fill="#ffdbb0"/>
    <path id="パス_3071" data-name="パス 3071" d="M39.243,138c-.16-1.538-.889-9.537-1.024-13.3-.083-2.3,1.534-5.355,3.284-5.583,2.79-.362,4.14.75,4.269,4.159.093,2.453-.682,22.39-.748,24.3-.084,2.454-.373,4.945-2.319,4.992-2.067.05-2.266-1.908-2.454-3.95-.3-3.294-.84-9.008-1.008-10.622" transform="translate(-17.998 -56.064)" fill="#ffdbb0"/>
    <path id="パス_3072" data-name="パス 3072" d="M33.9,102.436c-.15-2.254.267-6.563.353-9.025.124-3.535.977-7.311,3.445-7.311,3.294,0,7.012-.429,13.1.47,1.084.08.824,1.5,2.111,4.694,2.472,6.13.59,10.566.859,12.583.234,1.752,1.024,4.133-.2,4.37a37.481,37.481,0,0,1-6.656.336c-1.425-.054-.857-1.836-1.462-1.882-.656-.05-.868.556-.807,1.715.051.958-4.79.4-7.764.3-2.173-.074-2.6-.587-2.975-6.252" transform="translate(-15.95 -40.5)" fill="#51a7dd"/>
    <path id="パス_3073" data-name="パス 3073" d="M43.98,183.4c0-.27-.05-4.315-.134-4.6-.186-.641-1.681-.185-3.143-.235-1.716-.059-2.679-.319-2.723.924-.034.95,0,1.548-.034,1.882-.033.387-1.076.067-1.916.37a1.756,1.756,0,0,0-1.244,1.076c-.376,1.207.219,2.168,2,3.092,1.079.56,3.311,1.829,3.748,2.034a3.148,3.148,0,0,0,3.714-.857c.641-1.02-.269-2.471-.269-3.681" transform="translate(-16.332 -84.04)" fill="#f78a1c"/>
    <path id="パス_3074" data-name="パス 3074" d="M47.447,36.106c.157,0,2.21.147,2.406.129a14.383,14.383,0,0,0,.528,1.946c.2.4,1.613,2.718,1.809,2.92-2.269,1.946-5.437,1.689-6.962-.074a9.025,9.025,0,0,0,1.838-3.186c.129-.586.381-1.515.381-1.735" transform="translate(-21.299 -17.004)" fill="#ffdbb0"/>
    <path id="パス_3075" data-name="パス 3075" d="M6.108,33.938c-.168-.872-1.25-4.33-2.346-5.416a8.028,8.028,0,0,1-1.884-2.575c-.837-1.836-1.509-1.123-1.2.072.515,1.969.724,2.357.449,3.122C.97,29.584.283,30.147.1,31.047c-.515,1.608,1,3.3,2.239,4.032,1.2.712,1.371,1.469,2.408,3.247.767,1.314,3.046,5.382,4.633,6.149,1.455.7,4.817.218,7.991-.877a21.269,21.269,0,0,0,4.707-2.572c.293-.274-1.971-6.676-4.378-4.816-1.171.905-5.98,3.85-7.225,2.682a37.092,37.092,0,0,1-4.371-4.954" transform="translate(0 -11.692)" fill="#ffdbb0"/>
    <path id="パス_3076" data-name="パス 3076" d="M28.247,39.89a43.035,43.035,0,0,0,5.254-3.5c1.6-1.2,2.925-2.716,4.817-3.612a7.6,7.6,0,0,1,6.349.219,21.21,21.21,0,0,1,7.224,7.4c3.394,6.388,2.08,7.264-.766,9.781-1.172,1.037,3.944,14.7.864,17.383C49.7,69.553,32.05,69.2,30.327,65.832c-.42-.823,1.341-8.638,1.831-12.009.349-2.4.687-7.038-1.94-5.943-1.17.488-1.532-.547-2.627-3.721-.98-2.842-.6-3.552.657-4.269" transform="translate(-12.733 -15.153)" fill="#ed7980"/>
    <path id="パス_3077" data-name="パス 3077" d="M49.728,7.25a5.282,5.282,0,0,0-6.69,2.824c-.634,1.3.4,2.676-.956,3.854-.093.081-.08.3-.081.4-.018,2.2.283,2.665.544,3.21a6.1,6.1,0,0,0,2.832,2.7,5.068,5.068,0,0,0,3.571-.572,31.9,31.9,0,0,0,2.99-1.878c.212-.163,1.769-9.132-2.21-10.53" transform="translate(-19.779 -3.245)" fill="#ffdbb0"/>
    <path id="パス_3078" data-name="パス 3078" d="M50.686,4.433a8.808,8.808,0,0,1,3.84.8A7.5,7.5,0,0,1,56.962,8.2a10.026,10.026,0,0,1,.116,4.676c-.268,1.988-1.992,4.229-2.024,5.562-.029,1.212,1.756,2.035,1.65,2.615-.092.5-1.7.828-2.855.968-1.8.216-9.152-1.526-10.194-2.478-.665-.607,1.632-1.458,1.669-2.8.06-2.149,1.905-2.336,1.767-3.347-.108-.791-.713-.6-1.122-.337s-.44-1.419-.578-2.327c-.175-1.153-1.116-2.718-.76-3.821s4.029-2.4,6.053-2.48" transform="translate(-20.503 -2.086)" fill="#0054a7"/>
    <path id="パス_3079" data-name="パス 3079" d="M42.34,3.118c.548,4.652,4.889,8.3,7.808,10.417,3.1,2.248,5.364,2.663,6.9,2.08,1.268-.483,1.77-2.317,1.35-3.576-.249-.745-.985-1.459-.11-2.627S58.6,7.3,57.592,5.544A12.221,12.221,0,0,0,52.227.619c-1.222-.564-2.128-1.1-3.539.11-.511.438-1.071,0-2.3-.511-1.7-.712-4.344.4-4.049,2.9" transform="translate(-19.929 0)" fill="#f78a1c"/>
    <path id="パス_3080" data-name="パス 3080" d="M64.289,8.575a.131.131,0,0,1-.059-.014c-1.521-.762-5.6-5.181-6.251-6.222A.132.132,0,1,1,58.2,2.2c.728,1.159,4.731,5.418,6.145,6.125a.133.133,0,0,1,.059.178.132.132,0,0,1-.119.073" transform="translate(-27.295 -1.007)" fill="#fff"/>
    <path id="パス_3081" data-name="パス 3081" d="M60.558,12.85a.127.127,0,0,1-.046-.008c-3.3-1.222-7.913-5.714-8.663-8.432a.132.132,0,1,1,.255-.07c.718,2.6,5.325,7.078,8.5,8.255a.132.132,0,0,1-.046.256" transform="translate(-24.416 -1.998)" fill="#fff"/>
  </g>
</svg>
