<svg id="グループ_3208" data-name="グループ 3208" xmlns="http://www.w3.org/2000/svg" xmlns:xlink="http://www.w3.org/1999/xlink" width="95.455" height="120" viewBox="0 0 95.455 120">
  <defs>
    <clipPath id="clip-path">
      <rect id="長方形_2078" data-name="長方形 2078" width="95.455" height="120" fill="none"/>
    </clipPath>
  </defs>
  <g id="グループ_3049" data-name="グループ 3049" clip-path="url(#clip-path)">
    <path id="パス_2995" data-name="パス 2995" d="M18.307,9.545c1.019,2.3,2.327,11.386,3.21,13.724,1.668,4.416,3.189,8.686,4.633,8.23.924-.292,4.9,1.173,2.152-7.216-1.68-5.121-7.5-17.038-7.4-17.7a11.5,11.5,0,0,0,.256-3.215A4.6,4.6,0,0,0,19.428.383c-.707-.636-2.51-.347-3-.083-1.051.563-1.672,1.475-1.456,2.158.366,1.156-.6.5-.586,1.7.019,1.374,1.39,1.834,1.988,2.528a9.387,9.387,0,0,1,1.936,2.859" transform="translate(58.89 0)" fill="#ffdbb0"/>
    <path id="パス_2996" data-name="パス 2996" d="M57.682,54.732c.451.95,1.439,2.941,2.256,4.749.643,1.424,2.864.087,6.143-1.422,1.679-.773,4.063,5.421,2.569,5.9-.957.3-8.11,2.582-9.649,2.023-2.935-1.067-3.415-4.791-4.414-7.682-.445-1.285-.769-3.983-1.054-4.273A11.907,11.907,0,0,1,51.4,51.457a4.765,4.765,0,0,1-.315-3.561c.218-.96,1.918-1.792,2.492-1.863,1.226-.151,2.3.25,2.521.956.381,1.2.808.064,1.511,1.089.8,1.174-.081,2.382-.173,3.326a5.462,5.462,0,0,0,.25,3.328" transform="translate(0.483 -22.629)" fill="#ffdbb0"/>
    <path id="パス_2997" data-name="パス 2997" d="M8.348,209.29c-.022-.724-3.2.381-4.448.626-.813.16-1.018.5-.728,2.335s.831,3.113-.4,4.471-3.19,2.739-2.691,4.319c.319,1.011,1.214,1.536,3.416.932a16.114,16.114,0,0,0,4.4-1.9c.972-.6,2.149-1.779,1.757-3.146A19.546,19.546,0,0,1,8.78,213.9c-.2-1.326-.42-4.212-.432-4.608" transform="translate(85.726 -102.833)" fill="#f78a1c"/>
    <path id="パス_2998" data-name="パス 2998" d="M56.94,212.618c.094-.718-3.217-.135-4.49-.092-.828.027-1.084.328-1.092,2.188s.323,3.207-1.111,4.35S46.66,221.258,46.9,222.9c.153,1.049.953,1.711,3.223,1.466a16.106,16.106,0,0,0,4.646-1.172c1.055-.436,2.405-1.412,2.237-2.824a19.552,19.552,0,0,1-.376-3.13c.011-1.341.259-4.225.31-4.618" transform="translate(14.615 -104.414)" fill="#f78a1c"/>
    <path id="パス_2999" data-name="パス 2999" d="M1.061,136.38c.232-1.61,1.458-16.362,3.917-25.15.9-3.142,4.729-4.963,12.932-5.207,7.955-.237,8.6-1.58,10.14,2.938,2.043,5.976-.806,11.49-.579,15.448.336,5.875.547,17.247,1.079,20.455.619,3.733,3.661,18.169,2.712,18.648-1.392.7-6.661,1.7-7.17.441-.231-.572-5.179-18.127-6.13-22.148-1.07-4.529.4-14.964-2.266-14.588-1.392.2-6.351,7.563-6.679,12.716-.158,2.474-.646,16.925-.566,20.964.067,3.336-.336,3.764-4.308,3.839-4.574.085-4.162-.757-4.072-4.569.165-7.045.74-22.058.99-23.786" transform="translate(64.001 -51.972)" fill="#0054a7"/>
    <path id="パス_3000" data-name="パス 3000" d="M5.411,58.184c2.543-1.649,4.025-2.259,6.417-4.766s3.42-3.939,4.8-3.733c1.024.152,2.382.048,4.308.157,1.494.084,1.257-2.516,2.611-2.576,4.35-.193,6.368-.641,6.272,1.809a61.315,61.315,0,0,0,.539,9.789,190.253,190.253,0,0,0,3.931,18.9c1.849,5.645-7.487,6.263-12.315,5.85-3.831-.327-10.55,1.007-12.093.072-1.973-1.2.146-7.925.866-11.653.69-3.575,1.324-6.129-.04-7.118-.7-.507-3.655,3.081-4.452,1.076-1.578-3.967-3.564-6.043-.844-7.807" transform="translate(58.861 -23.171)" fill="#f78a1c"/>
    <path id="パス_3001" data-name="パス 3001" d="M32.815,32.6c1.069-3.363,1-7.733-3.137-8.776s-5.928,1.97-6.589,2.961.15,2.327-.138,3.456c-.1.4-.365.676-.4,1.06a5.728,5.728,0,0,0,.834,3.538,5.785,5.785,0,0,0,3.078,2.2,5.027,5.027,0,0,0,3.565-.646,7.349,7.349,0,0,0,1.862-1.731,5.582,5.582,0,0,0,.922-2.06" transform="translate(50.611 -11.613)" fill="#ffdbb0"/>
    <path id="パス_3002" data-name="パス 3002" d="M23.111,19.8c.872.115,1.735-.687,3.317-.472a3.2,3.2,0,0,1,2.348,1.318,4.081,4.081,0,0,1,.725,2.74,4.153,4.153,0,0,0,.075,2.753,4.868,4.868,0,0,1,.326,3.7,5.285,5.285,0,0,1-1.844,2.4c-.816.649-2.393,1.092-2.876,2.024-.5.959-2.742,1.382-3.3.873-1.088-.989-2.534-.037-3.236-1.2-1-1.651.317-4.2.044-5.118-.238-.8-1.031-.345-1.438-.623-.523-.358.235-2-.3-1.9a1.806,1.806,0,0,1-1.845-1.18,2.437,2.437,0,0,1,.355-2.664c.618-.817,1.673-.537,1.931-1.68a2.941,2.941,0,0,1,3.221-2.028c1.515.258,1.655.939,2.5,1.051" transform="translate(57.78 -9.203)" fill="#0054a7"/>
    <path id="パス_3003" data-name="パス 3003" d="M19.857,49.8c-.59.546-1.119,1.35-.834-.367.319-1.921,2.5-2.089,3.343-2.421a16.4,16.4,0,0,1,5.6-1.464c1.753-.035,4.288-.3,4.205.891-.074,1.06-.257,2.325-1.626,2.438-1.018.084-3.821.887-5.639.675-2-.234-4.052-.678-5.052.248" transform="translate(53.653 -22.382)" fill="#62c0b4"/>
    <path id="パス_3004" data-name="パス 3004" d="M109.456,187.063c-.337-4.494-.324-16.193-.613-21.542-.148-2.734.071-3.986-.132-8.051-.135-2.722-2.927-2.782-4.262-2.544-1.294.23-4.338.933-3.9,4.857.046.413,1.275,8.3,1.666,10.666.869,5.266,2.744,15.56,2.156,19.741-.412,2.931,5.34.261,5.086-3.127" transform="translate(-65.075 -76.166)" fill="#ffdbb0"/>
    <path id="パス_3005" data-name="パス 3005" d="M146.734,78.85a6.268,6.268,0,0,0-2.42.748c-.814.528-4.692,3.091-5.277,3.326s-1.208.246-1.4-.185.046-.979-.224-1.35-1.073-.609-1.2-.958-.645-.541-.055-1.031,2.616-2.215,2.916-2.5-.5-.773-.276-1.249,4.356.569,5.075.477c2.121-.269,12.274-5.811,14.179-6.976,2.732-1.673,3.426.767,4.186,2.461.665,1.481-4.63,3.4-9.212,5.2a37.953,37.953,0,0,1-6.3,2.037" transform="translate(-135.886 -33.743)" fill="#ffdbb0"/>
    <path id="パス_3006" data-name="パス 3006" d="M80.346,30.37c.28-.51,3.528-8.4,4.245-9.051s4.178-3.756,4.555-4.263.544-1.107.174-1.4-.959-.2-1.25-.559-.318-1.191-.623-1.4-.36-.761-.984-.315-2.805,1.971-3.153,2.19-.622-.678-1.139-.584-.43,4.422-.824,5.031c-1,1.55-2.233,3.716-3.518,5.948-2.286,3.972-2.948,4.708-3.617,5.87-1.206,2.1.08,3.034,1.782,3.774,2.411,1.048,3.028-2.839,4.351-5.241" transform="translate(-31.538 -6.5)" fill="#ffdbb0"/>
    <path id="パス_3007" data-name="パス 3007" d="M133.431,221.21c-.85-1.191-2.707-5.454-1.2-6.831,3.91-3.568,5.863,3.411,6.443,4.868a1.8,1.8,0,0,1,.312,1.518c-.267,1.105-1.053,1.438-2.435,1.714a3.268,3.268,0,0,1-3.122-1.269" transform="translate(-110.485 -104.962)" fill="#0054a7"/>
    <path id="パス_3008" data-name="パス 3008" d="M122.6,189.366c1.845-.692,1.309-3.119,1.4-4.865.209-4.053.07-10.762.209-15.724.077-2.737.078-5.63.7-7.338.559-1.537,2.788-2.125,4.123-1.887,1.295.231,3.627,2.057,3.564,3.564a85.955,85.955,0,0,1-1.258,9.784c-.871,5.266-2.057,11.8-2.725,15.865-.481,2.92-.133,4.543-1.394,6.153-.614.783-2.9.816-4.339-.748-1.462-1.588-.737-4.044-.669-4.365a.706.706,0,0,1,.39-.437" transform="translate(-99.106 -78.46)" fill="#ffdbb0"/>
    <path id="パス_3009" data-name="パス 3009" d="M131.606,220.931c-.6-1.593-1.637-3.179,0-4.711.355-.333,1.45.715,1.038,1.388-.26.425,1.114,2.725,1.834,3.341a3.847,3.847,0,0,0,3.557.155c.17-.075.438-.181.53,1.229a3.431,3.431,0,0,1-.763,2.364c-.73.7-2.113.766-3.621.295-1.221-.382-2.054-2.689-2.572-4.061" transform="translate(-109.533 -106.33)" fill="#0054a7"/>
    <path id="パス_3010" data-name="パス 3010" d="M110.767,109.475c-5.187,1.052-11.388-.809-13.294-.732-1.931.079-3.5.862-4.033,5.712-.449,4.072.914,7.494-1.213,15.257-1.148,4.191-3.438,8-.065,8.688a39.8,39.8,0,0,0,10.619.673c5.421,0,4.875-1.144,9.448-.542,1.279.168,8.489-1.3,6.826-5.039a133.726,133.726,0,0,1-4.514-16.854c-1-6.069-.991-7.689-3.773-7.163" transform="translate(-69.775 -53.491)" fill="#62c0b4"/>
    <path id="パス_3011" data-name="パス 3011" d="M94.521,61.084c-.642-2.529-2.214-3.659.14-5.032,2.155-1.257,5.379-3.146,8.107-4.612,1.206-.648,5.4-.653,7.687-1.817a23.086,23.086,0,0,0,5.032-4.193c.651-.668,2.094,1.123,3.075,1.957,1.51,1.283,3.988,3.434,2.935,4.892-1.817,2.516-4,5.139-4.752,6.569-1.438,2.739-.452,8.12-.1,10.21.3,1.81,3.839,10.433,3.792,12.219-.078,2.942-2.77,2.9-5.786,2.975-2.113.054-8.171,1.381-11.112,1.467-3.625.106-7.024.315-7.338-2.411-.215-1.868,1.437-8.666,1.782-11.322.476-3.662.26-6.6-1.126-6.139-.946.317-1.921-3.137-2.334-4.763" transform="translate(-73.756 -22.275)" fill="#ed7980"/>
    <path id="パス_3012" data-name="パス 3012" d="M109.43,32.881c-.567-1.4.283-3.937,1.465-5.148s1.727-2.475,4.142-2.334c1.791-.612,2.852.639,3.687,1.2a5.682,5.682,0,0,1,1.9,3.737c.146,1.535.56,3.658,1.727,4.117s2.312.432,3,2.1c.734,1.765-.957,4.369-2.76,4.228-2.691-.21-2.782,2.364-4.927,2.865-2.415.564-3.372-.625-4.612-1.013-1.118-.35-2.131.454-3.32-.524-1.8-1.48-.946-3.394.06-4.939s.2-2.886-.37-4.282m9.31-.18h.137c-.046-.023-.092-.044-.137-.068Z" transform="translate(-85.306 -12.414)" fill="#0054a7"/>
    <path id="パス_3013" data-name="パス 3013" d="M103.614,223.337c1.495-2.429,2.744-5.995,1.079-7.356a3.056,3.056,0,0,0-4.128.108c-1.221,1.2-2.283,4.4-2.882,5.34-.375.589-1.307,1.222-.8,2.375a3.277,3.277,0,0,0,3.174,2.068c1.436-.006,2.786-1.287,3.554-2.535" transform="translate(-59.181 -105.872)" fill="#0054a7"/>
    <path id="パス_3014" data-name="パス 3014" d="M113.84,27.64a6.029,6.029,0,0,1,.865-1.52,5.5,5.5,0,0,0,.9-.968,7.456,7.456,0,0,1,11.867-.971,3.038,3.038,0,0,0,.734.787,6.325,6.325,0,0,1,2.488,4.8,7.408,7.408,0,0,1-2.022,5.556,9.914,9.914,0,0,1-6.781,2.148c-4.1-.2-6.134-1.335-7.155-3.2s-1.6-4.822-.891-6.631" transform="translate(-92.944 -10.663)" fill="#f78a1c"/>
    <path id="パス_3015" data-name="パス 3015" d="M124.039,39.544a8.324,8.324,0,0,0,4.133-.954c2.161-1.286,2.59-3.452,2.731-5.6a.194.194,0,0,0-.181-.207.2.2,0,0,0-.207.181c-.135,2.044-.536,4.1-2.541,5.293a9.072,9.072,0,0,1-7.458.208,5.661,5.661,0,0,1-2.843-3.759.192.192,0,0,0-.238-.138.194.194,0,0,0-.138.238,6.021,6.021,0,0,0,3.027,4,8.252,8.252,0,0,0,3.715.742" transform="translate(-95.042 -16.125)" fill="#fff"/>
  </g>
</svg>
