<svg xmlns="http://www.w3.org/2000/svg" xmlns:xlink="http://www.w3.org/1999/xlink" width="179.452" height="118.036" viewBox="0 0 179.452 118.036">
  <defs>
    <clipPath id="clip-path">
      <rect id="長方形_2079" data-name="長方形 2079" width="75.919" height="118.035" fill="none"/>
    </clipPath>
    <clipPath id="clip-path-2">
      <rect id="長方形_2083" data-name="長方形 2083" width="103.533" height="118.035" fill="none"/>
    </clipPath>
  </defs>
  <g id="グループ_3159" data-name="グループ 3159" transform="translate(-58.048 -6698.71)">
    <g id="グループ_3051" data-name="グループ 3051" transform="translate(161.581 6698.709)">
      <g id="グループ_3051-2" data-name="グループ 3051" transform="translate(0)" clip-path="url(#clip-path)">
        <path id="パス_3016" data-name="パス 3016" d="M148.7,12.121a9.423,9.423,0,0,1,.7-4.027c.5-.852,2.313-4.405,2.529-5.012s.2-1.241-.246-1.414-1,.087-1.385-.173S149.636.428,149.276.313,148.7-.321,148.222.3s-2.149,2.757-2.423,3.075-.808-.476-1.284-.23.775,4.827.847,5.562c.03.3-.432,9.331-.649,12-.2,2.5-.952,5.431,1.3,5.268,2.425-.175,2.693-1.706,2.905-3.908.18-1.87-.233-8.587-.218-9.948" transform="translate(-76.149 0)" fill="#ffdbb0"/>
        <path id="パス_3017" data-name="パス 3017" d="M93.717,20.5c-.22-1.269-.242-2.974-.846-3.653s-3.521-3.9-3.823-4.413-.4-1.083-.026-1.317.912-.1,1.218-.4.412-1.078.717-1.245.409-.673.947-.2,2.418,2.108,2.721,2.346.645-.57,1.117-.432.211,4.087.275,4.763c.026.278,3.032,8.688,3.635,10.8.63,2.211,1.746,4.218,1.972,5.018.4,1.407-3.718,2.717-4.564,1.3-.743-1.242-1.1-3.216-1.689-5.244-.452-1.553-1.36-5.643-1.654-7.337" transform="translate(-46.816 -4.789)" fill="#ffdbb0"/>
        <path id="パス_3018" data-name="パス 3018" d="M144.043,222.929c-.012-.706-3.123.328-4.346.551-.8.145-1,.471-.742,2.267s.769,3.048-.451,4.355-3.148,2.629-2.683,4.177c.3.99,1.164,1.514,3.319.955a15.72,15.72,0,0,0,4.316-1.793c.956-.571,2.119-1.706,1.756-3.045a19.031,19.031,0,0,1-.809-2.967c-.181-1.3-.353-4.113-.36-4.5" transform="translate(-71.584 -117.427)" fill="#0054a7"/>
        <path id="パス_3019" data-name="パス 3019" d="M106.234,224.678c.1-.7-3.135-.174-4.378-.15-.808.016-1.062.306-1.094,2.119s.272,3.132-1.141,4.227-3.528,2.092-3.315,3.694c.136,1.025.907,1.681,3.124,1.473a15.705,15.705,0,0,0,4.547-1.081c1.035-.411,2.365-1.345,2.219-2.725a19.077,19.077,0,0,1-.325-3.058c.028-1.308.309-4.117.364-4.5" transform="translate(-50.776 -118.286)" fill="#0054a7"/>
        <path id="パス_3020" data-name="パス 3020" d="M100.951,133.386c.253-9.429,1.086-19.217,3.468-27.759.871-3.054,10.421-1.617,17.869-.458,1.326.1.537,1.713,1.881,6.141,2.438,8.034-1.3,15.16-1.15,19.023.224,5.733,1.189,15.036,1.631,18.171.514,3.648,2.915,16.206,2.038,16.662-1.287.669-6.849,1.417-7.3.178-.2-.56-3.6-16.013-4.409-19.946-.917-4.429-.593-13.629-2.124-13.519-1.143.082-3.094,13.44-3.1,15.677-.009,2.418-.458,10.65-.212,14.688.2,3.247-.64,3.972-4.285,3.961-5.722-.018-4.4-1.751-4.5-7.175-.145-7.382.079-21.262.2-25.642" transform="translate(-53.097 -54.735)" fill="#62c0b4"/>
        <path id="パス_3021" data-name="パス 3021" d="M119.547,54.3c.181,0,4.252.068,4.479.048a18.006,18.006,0,0,1-.372,2.765c-.069.521,1,2.008,1.232,2.246-.405.641-5.1.591-6-.037.475-.234.779-1.937.913-2.623a10.8,10.8,0,0,0-.248-2.4" transform="translate(-62.689 -28.634)" fill="#ffdbb0"/>
        <path id="パス_3022" data-name="パス 3022" d="M125.511,47.56c-3.781-1.123-4.867-.813-5.3.973-.758,3.135-3.234,4.655-6.565,5.087a4.751,4.751,0,0,1-4.135-2.093c-1.285-2.313-1.728-4.726-2.869-4.433-2.569.659-6.168,1.442-5.038,4.187,1.2,2.922,2.777,6.317,2.975,7.508.614,3.7.413,8.949-2.193,15.676-1.31,3.381-1.358,7.319.636,7.888,3.424.977,13.021,4.22,16.578,4.876,4.581.845,7.868.04,7.272-3.672-.658-4.092-3.844-13.179-3.43-16.739a87.535,87.535,0,0,1,3.666-16.754c.386-1.118.7-1.822-1.6-2.5" transform="translate(-53.466 -24.733)" fill="#fedc5e"/>
        <path id="パス_3023" data-name="パス 3023" d="M124.47,43.992a4.76,4.76,0,0,1-4.511,1.083,6.555,6.555,0,0,1-3.025-2.325,6.3,6.3,0,0,1-.769-2.867,3.982,3.982,0,0,1,.428-1.472c.554-1.1-.246-1.365,1.409-3.382.5-.612,3.2-3.28,6.567-2.258,2.959.9,3.114,8.574-.1,11.222" transform="translate(-61.254 -17.158)" fill="#ffdbb0"/>
        <path id="パス_3024" data-name="パス 3024" d="M120.5,32.844c-1.01-.016-1.116.811-1.267.073-.357-1.744,2.838-3.953,3.789-3.777.843.156,2.043-1.681,5.422.319a5.387,5.387,0,0,1,2.79,2.929c.83,2.766,1.42,4.584-.475,7.383a6.82,6.82,0,0,1-5.047,2.716c-1.654.226-1.63,1.012-2.474.741-.216-.069-.495-.587-.538-1.128-.049-.618.4-1.825.78-1.928,1.117-.039,1.519-.967,1.387-1.359-.15-.446-.908-.417-1.38-.21-2.351,1.029-.29-3.04-1.341-3.634-2.206-1.247-1.078-2.2-1.646-2.124" transform="translate(-62.858 -15.038)" fill="#0054a7"/>
        <path id="パス_3025" data-name="パス 3025" d="M120.251,29.042c-1.78-1.579-1.563-3.945-.129-4.373,2.127-.635,3.586.229,4.8.766.469.207,2.784.1,4.537.868,1.806.787,3.32,2.778,3.452,5.96.122,2.95-1.459,6.017-3.244,6.744s-3.521-1.074-5.4-3.261c-1.765-2.057-2.367-5.239-4.02-6.7" transform="translate(-62.741 -12.891)" fill="#51a7dd"/>
        <path id="パス_3026" data-name="パス 3026" d="M124.639,29.993a.183.183,0,0,0,.116-.066,3.655,3.655,0,0,1,1.756-.965.187.187,0,0,0-.057-.369,4,4,0,0,0-1.987,1.1.187.187,0,0,0,.027.263.185.185,0,0,0,.146.04" transform="translate(-65.612 -15.076)" fill="#0054a7"/>
        <path id="パス_3027" data-name="パス 3027" d="M39.872,196.807c1.1.025,1.5-.735,1.723-2.922.087-.864,1.148-17.836,1.134-18.65-.035-2.105,1.365-12.095-3.213-12.091-3.993,0-3.247,6.7-3.263,11.9-.008,2.623.715,17.825.857,18.833.271,1.918.519,2.882,2.761,2.933" transform="translate(-19.093 -86.029)" fill="#ffdbb0"/>
        <path id="パス_3028" data-name="パス 3028" d="M38.021,227.418c-.009-.685-.664-1.24-2.8-1.265-1.345-.016-2.6.266-2.6,1.065,0,.468.066,3.964.066,4.23,0,.566-1.615.187-2.331.333-1.632.333-2.656,2.258-.631,3.524a16.243,16.243,0,0,0,5,1.864c1.25.132,2.026.329,2.915-.475.977-.884.278-2.959.311-3.881.025-.689.1-2.964.067-5.395" transform="translate(-15.085 -119.255)" fill="#0054a7"/>
        <path id="パス_3029" data-name="パス 3029" d="M57.315,36.479a4.62,4.62,0,0,1,1.567-1.911c.778-.541,4.521-3.1,4.949-3.541s.668-1,.347-1.329-.9-.319-1.138-.7-.155-1.193-.423-1.436-.251-.781-.911-.43-2.965,1.548-3.329,1.715-.515-.735-1.027-.71-1.21,4.091-1.439,4.76c-.094.276-4.957,8.948-5.664,10.523-.981,2.186-4.939,6.654-5.563,8.3-1.033,2.73,1.972,3.19,3.08,3.4,2.286.432,3.713-4.681,5.459-9.053.4-1.005,3.989-9.313,4.091-9.589" transform="translate(-23.451 -14.246)" fill="#ffdbb0"/>
        <path id="パス_3030" data-name="パス 3030" d="M5.426,31.318a4.619,4.619,0,0,0-1.1-2.212C3.687,28.4.608,25.077.288,24.55s-.428-1.125-.042-1.372.95-.111,1.265-.429.416-1.128.733-1.306.419-.706.985-.216,2.545,2.17,2.863,2.414.666-.6,1.159-.463.268,4.258.341,4.961c.031.29,2.99,8.608,3.644,10.807a13.214,13.214,0,0,0,3.513,5.87,1.971,1.971,0,0,1,.294,2.881c-1.265,1.92-3.022,4.709-3.92,3.246-.789-1.286-3.507-7.189-3.848-9.364-.167-1.07-1.812-9.969-1.85-10.26" transform="translate(0 -11.086)" fill="#ffdbb0"/>
        <path id="パス_3031" data-name="パス 3031" d="M6.589,129.954a143.858,143.858,0,0,1,2.465-14.52c.6-3.146,16.135.864,16.717,1.932,1.2,2.2,2.431,4.881,2.065,10.257A35.618,35.618,0,0,0,29.3,140.944c.891,2.971-1.209,3.683-6.727,3.33-2.982-.19-11.456,4-16.784,3.863-1.9-.048.244-12.355.8-18.183" transform="translate(-2.647 -60.247)" fill="#51a7dd"/>
        <path id="パス_3032" data-name="パス 3032" d="M19.638,69.452c.525-.629,1.938,1.132,2.853,1.8.891.655,3.29.213,4.211-.12,1.143-.413,1.384-2.035,2.484-2.008A14.507,14.507,0,0,1,33.82,70.8c1.4.743.461,1.819.137,2.751-.99,2.85-2,4.9-1.9,6.532.156,2.7-3.554,5.525-3.292,10.36a8.449,8.449,0,0,0,1.4,4.2c1.134,2-1.665,4.129-4.6,2.731-4.686-2.236-7.517.253-13.654-1.931-3.93-1.4,1.159-9.174,2.091-12.085.114-.358,1.425-4.433,1.794-5.649.3-.992,2.613-6.781,3.84-8.25" transform="translate(-5.507 -36.452)" fill="#62c0b4"/>
        <path id="パス_3033" data-name="パス 3033" d="M17.832,173.406c-.854.16-4.55,1.081-5.333,1.306-2.024.581-9.879.795-8.685,5.214,1.041,3.855,6.942,2.725,7.626,2.477,2.466-.895,5.584-4.033,6.522-4.433a23.512,23.512,0,0,1,4.107-1.434c1.836-.276-2.29-3.495-4.238-3.13" transform="translate(-1.947 -91.425)" fill="#ffdbb0"/>
        <path id="パス_3034" data-name="パス 3034" d="M42.966,55.314c1.505-3.4,1.627-4.342-1.1-6.419a4.4,4.4,0,0,0-5.927.341c-.848.812-.22,2.23-1.548,2.831-.267.113-.242.359-.283.477a4.231,4.231,0,0,0-.368,2.5,4.955,4.955,0,0,0,1.515,2.793,5.585,5.585,0,0,0,3.382.621c.792-.139,3.43-1.116,4.329-3.147" transform="translate(-17.761 -25.254)" fill="#ffdbb0"/>
        <path id="パス_3035" data-name="パス 3035" d="M33.411,163.166a5.782,5.782,0,0,1-1.227-.17.241.241,0,1,1,.1-.471c.956.212,1.6.256,2.091-.149a.242.242,0,0,1,.31.371,1.919,1.919,0,0,1-1.279.42" transform="translate(-16.872 -85.594)" fill="#0054a7"/>
        <path id="パス_3036" data-name="パス 3036" d="M34.772,168.5a.242.242,0,0,1-.242-.242v-1.9a.242.242,0,0,1,.484,0v1.9a.242.242,0,0,1-.242.242" transform="translate(-18.208 -87.601)" fill="#0054a7"/>
        <path id="パス_3037" data-name="パス 3037" d="M34.031,71.5c-.332-.56-1.942-.946-2.2-1.8-.3-1,1.41-.142,2.8-.55,1.972-.579,5.061.8,6.645,1.994,1.411,1.062,1.447,3.7.347,4.1-1.171.426-2.159.2-4.146-.749a8.5,8.5,0,0,1-3.447-3" transform="translate(-16.768 -36.393)" fill="#fedc5e"/>
        <path id="パス_3038" data-name="パス 3038" d="M42.034,54.039c-.641.485-2.092,3.2-.974,4.775,1.779,2.5,3.48,2.73,3.409,4.756-.129,3.676,2.044,5.405,3.625,5.138,3.486-.587,2.643-2.231,5.585-2.79,3.428-.651,5-3.684,3.625-6.127-1.834-3.264-4.455.415-6.858-3.9-1.287-2.313.318-3.419-.02-5.854A4.461,4.461,0,0,0,47.839,46.5c-2.015-1.01-5.84-1.193-6.923.423-1.111,1.658,1,2.838.914,4.282-.046.722.867.589,1.117.975.338.521.06,1.121-.913,1.857" transform="translate(-21.406 -24.113)" fill="#f78a1c"/>
        <path id="パス_3039" data-name="パス 3039" d="M34.969,42.174c.241,4.269,3.994,7.834,6.535,9.923,2.7,2.221,4.739,2.725,6.167,2.277A2.715,2.715,0,0,0,49.1,51.192c-.185-.693-.817-1.384.046-2.4s.407-1.906-.417-3.562a11.148,11.148,0,0,0-4.613-4.785c-1.081-.581-1.878-1.12-3.23-.1-.49.371-.976-.055-2.066-.592a2.646,2.646,0,0,0-3.85,2.418" transform="translate(-18.437 -20.828)" fill="#62c0b4"/>
        <path id="パス_3040" data-name="パス 3040" d="M56.522,48.524a.121.121,0,0,1-.061-.016c-1.343-.779-4.812-5.031-5.349-6.015a.121.121,0,0,1,.212-.116c.6,1.1,4.009,5.2,5.258,5.922a.12.12,0,0,1,.043.165.119.119,0,0,1-.1.06" transform="translate(-26.945 -22.313)" fill="#fff"/>
        <path id="パス_3041" data-name="パス 3041" d="M52.208,52.4a.117.117,0,0,1-.049-.01c-2.937-1.3-6.892-5.645-7.424-8.163a.121.121,0,0,1,.093-.143.119.119,0,0,1,.143.093c.51,2.413,4.459,6.745,7.286,7.992a.121.121,0,0,1-.049.231" transform="translate(-23.588 -23.244)" fill="#fff"/>
        <path id="パス_3042" data-name="パス 3042" d="M31.342,169.761c-.659.187-1.026.962-.5,3.03.333,1.3.931,2.439,1.7,2.232.452-.121,3.811-1.091,4.067-1.16.547-.147.6,1.512.926,2.165.744,1.489,2.87,1.98,3.567-.3a16.258,16.258,0,0,0,.5-5.31c-.2-1.241-.207-2.042-1.214-2.693-1.107-.715-2.93.5-3.829.705-.673.155-2.889.672-5.228,1.334" transform="translate(-16.132 -88.326)" fill="#0054a7"/>
      </g>
    </g>
    <g id="グループ_3059" data-name="グループ 3059" transform="translate(58.049 6698.709)">
      <g id="グループ_3058" data-name="グループ 3058" transform="translate(0)" clip-path="url(#clip-path-2)">
        <path id="パス_3082" data-name="パス 3082" d="M52.827,192.928c1.835-1.207,2.41-3.437,2.986-5.61.228-.858.5-1.948,2.91-.533a1.975,1.975,0,0,1,.831,2.947,7.774,7.774,0,0,0-1.193,4.469c.094,1.9,2.493.967,2.06,2.869-.145.636-1.648,1.286-3.171.87-3.211-.877-6.025-3.369-4.423-5.011" transform="translate(-25.332 -90.03)" fill="#ffdbb0"/>
        <path id="パス_3083" data-name="パス 3083" d="M51.717,198.929c.521-.468.658,1.62,2.128,2.374a10.351,10.351,0,0,0,3.787.934c.475-.06.453-.473.31-.7-.2-.324,1.34.1,1.9.415,1.718.962,1.436,2.545-.959,3.027a16.627,16.627,0,0,1-5.456-.015,4.542,4.542,0,0,1-2.62-1.5c-.63-.666-.387-1.478-.087-2.373a4.9,4.9,0,0,1,1-2.154" transform="translate(-24.388 -96.203)" fill="#0054a7"/>
        <path id="パス_3084" data-name="パス 3084" d="M24.723,206.72a25.969,25.969,0,0,1,.333-6.059c.769-4.862,1.148-6.241-2.952-6.343-1.436-.036-1.563,4.934-1.982,9.409-.3,3.22-1.117,5.029-.327,5.435a8.142,8.142,0,0,0,4.147.542c1.608-.392.868-1.828.781-2.984" transform="translate(-9.415 -94.005)" fill="#ffdbb0"/>
        <path id="パス_3085" data-name="パス 3085" d="M24.8,221.325c-.108,1.9-1.429,2.842-4.383,2.324a3.135,3.135,0,0,1-2.586-3.358c.169-2.083,2.043-1.815,4.26-1.39,1.511.29,2.791,1,2.709,2.424" transform="translate(-8.619 -105.754)" fill="#0054a7"/>
        <path id="パス_3086" data-name="パス 3086" d="M43.3,45.138c-.286.039-3.161.312-3.524.323a32.158,32.158,0,0,1-.432,4.084,38.578,38.578,0,0,1-1.485,4.378c.794,1.032,8.191,0,9.475-1.278-.806-.309-2.542-2.923-2.918-4.088s-1.056-2.972-1.117-3.42" transform="translate(-18.313 -21.836)" fill="#ffdbb0"/>
        <path id="パス_3087" data-name="パス 3087" d="M20.71,114.311c-.144,6.385-1.337,17.249-2.037,25.592-.3,3.551-1.15,17.4-1.238,18.793-.185,2.928.095,4.683,3.55,4.686,2.3,0,5.635,1,6.107-3.124.251-2.191.093-7.8,1.136-16.332.955-7.815,1.033-12.485,2.7-13.918,2.6-2.24,10.923-3.289,10.793.142-.138,3.646-1.5,10.772-4.585,19.175-.817,2.225-.782,2.9,2.165,5.6,3.212,2.95,4.968.061,6.112-2.164a98.393,98.393,0,0,0,4.8-11.2c2.8-7.338,3.747-10.481,3.489-13.935-.268-3.59-6.236-14.5-11.27-18.638-2.81-2.311-9.272-1-15.054-1.278-3.028-.148-6.606,3.937-6.666,6.6" transform="translate(-8.414 -52.049)" fill="#f78a1c"/>
        <path id="パス_3088" data-name="パス 3088" d="M43.5,26.6c1.608-1.1,1.521-4.393-.365-5.336-.731-.365-.706-1.013-1.571-2.449a4.075,4.075,0,0,0-6.8-.365c-.991,1.439-2.668-.146-4.276,2.339-1.093,1.69.7,3.254-.146,4.423a3.082,3.082,0,0,0,1.316,4.641c1.805.8.947,2.152,2.522,2.7,2.083.731,2.63-.583,4.057-.622,1.353-.036,2.436.546,3.618-.292a2.944,2.944,0,0,0,1.316-2.7c-.146-.877-.22-1.965.329-2.339" transform="translate(-14.401 -8.127)" fill="#0054a7"/>
        <path id="パス_3089" data-name="パス 3089" d="M72.795,11.731c-.917,2.152-8.09,11.464-9.122,13.551-1.947,3.939-2.071,5.035-.844,5.729.786.444,2.363,3.115,6.326-4.084,2.42-4.4,6.787-14.96,7.307-15.306a10.689,10.689,0,0,0,2.35-1.867,4.281,4.281,0,0,0,.931-3.076c-.016-.884-1.358-1.929-1.85-2.1-1.051-.358-2.066-.2-2.394.379-.555.983-.723-.093-1.529.68-.923.886-.366,2.111-.459,2.959a8.744,8.744,0,0,1-.717,3.133" transform="translate(-30.009 -2.123)" fill="#ffdbb0"/>
        <path id="パス_3090" data-name="パス 3090" d="M6.952,15.165c.917,2.152,6.274,8.814,7.305,10.9C16.2,30,18.145,33.751,16.917,34.445c-.785.444-2.316,4.083-6.279-3.116C8.219,26.932,3.8,15.4,3.285,15.054A10.677,10.677,0,0,1,.934,13.187,4.281,4.281,0,0,1,0,10.111c.016-.884,1.358-1.929,1.85-2.1,1.051-.358,2.066-.2,2.394.379.555.983.723-.093,1.53.68.923.886.365,2.111.458,2.959a8.741,8.741,0,0,0,.717,3.133" transform="translate(0 -3.785)" fill="#ffdbb0"/>
        <path id="パス_3091" data-name="パス 3091" d="M47.2,48.479c1.539-2.452-.447-2.441-2.722-4.373-2.475-2.1-3.484-1.454-5.657.709a14.03,14.03,0,0,1-7.359,2.558c-2.237,0-5.2-.92-6.756-3.042-.678-.925-2.284.091-4.477,1.407-1.64.984-3.454,2.185-3.07,3.07,1.453,3.351,3.935,7.737,4.276,8.662a19.892,19.892,0,0,1,.219,9.978c-1.2,3.823-6.318,8.687-3.618,11.731,2.915,3.287,14.363-.219,19.517.658,6.282,1.069,9.429-.219,9.32-3.728-.086-2.761-2.3-5.4-2.851-8.626-.533-3.092-2.186-5.989-1.2-10.893.856-4.27,2.661-5.371,4.382-8.112" transform="translate(-8.277 -20.716)" fill="#51a7dd"/>
        <path id="パス_3092" data-name="パス 3092" d="M179.194,10.92a6.363,6.363,0,0,1,.94-2.4c.6-.786,3.484-4.522,3.767-5.1s.341-1.205-.083-1.428-1-.027-1.352-.328-.536-1.132-.88-1.287-.5-.694-1.041-.133S178.1,2.734,177.8,3.018s-.746-.563-1.245-.374.248,4.456.1,5.178c-.432,2.13-8.122,11.776-9.447,13.618-1.9,2.643,1.04,3.833,2.7,4.73,1.451.784,3.841-3.646,6.75-9.022a33.246,33.246,0,0,0,2.537-6.227" transform="translate(-80.591 0)" fill="#ffdbb0"/>
        <path id="パス_3093" data-name="パス 3093" d="M166.3,178.19a25.858,25.858,0,0,1-.611-6.005c0-4.9.115-11.927.382-17.742.136-2.971.126-8.539,0-13.736-.072-2.961-2.289-4.731-6.334-4.2-1.417.187-2.185.975-2.137,5.265.005.451,1.36,14.495,1.527,17.094.37,5.789,1.908,12.63,2.189,17.092.2,3.21-.32,5.115.519,5.392a8.106,8.106,0,0,0,4.159-.109c1.519-.634.57-1.931.305-3.053" transform="translate(-76.241 -65.993)" fill="#ffdbb0"/>
        <path id="パス_3094" data-name="パス 3094" d="M170.391,220.655c.187,1.879-.965,3.013-3.948,2.962a3.118,3.118,0,0,1-3.061-2.9c-.156-2.073,1.726-2.1,3.971-2.025,1.53.051,2.9.549,3.037,1.963" transform="translate(-79.035 -105.787)" fill="#0054a7"/>
        <path id="パス_3095" data-name="パス 3095" d="M139.687,178.584a25.859,25.859,0,0,1-.611-6.005c0-4.9.115-11.927.382-17.742.136-2.971.126-8.539,0-13.736-.072-2.961-2.289-4.731-6.334-4.2-1.417.187-2.185.975-2.137,5.265.005.451,1.36,14.495,1.527,17.094.37,5.788,1.908,12.63,2.189,17.092.2,3.21-.32,5.115.519,5.392a8.105,8.105,0,0,0,4.159-.109c1.519-.634.57-1.931.305-3.053" transform="translate(-63.366 -66.184)" fill="#ffdbb0"/>
        <path id="パス_3096" data-name="パス 3096" d="M143.777,221.049c.187,1.879-.965,3.013-3.948,2.962a3.118,3.118,0,0,1-3.061-2.9c-.156-2.073,1.726-2.1,3.971-2.025,1.53.051,2.9.549,3.037,1.963" transform="translate(-66.16 -105.977)" fill="#0054a7"/>
        <path id="パス_3097" data-name="パス 3097" d="M130.325,98.174c-.065,2.484-.152,7.468-.217,10.867-.146,7.549-.423,12.259-.491,13.966-.335,8.343-.167,9.906,3.686,9.911,4.656.005,7.341,1.213,7.23-3.411-.165-6.9.088-9.444.983-9.449.7,0,.747,4.589.889,7.332.309,5.966,1.893,5.208,4.9,5.113,4.861-.155,6.975-.516,6.817-3.3-.077-1.356.067-7.514-.32-14.592-.219-4.01-.81-11.217-1.238-15.881-.371-4.041-6.609-2.051-13.051-2.494-3.374-.232-9.232-1.027-9.188,1.943" transform="translate(-62.649 -46.422)" fill="#62c0b4"/>
        <path id="パス_3098" data-name="パス 3098" d="M88.019,51.278c-.976-1.186-1.889-3.7.2-5.2,2.146-1.551,3.9-1.278,4.682,0s1.366,1.825.293,2.829-4.694,2.951-5.17,2.373" transform="translate(-42.066 -21.776)" fill="#ffdbb0"/>
        <path id="パス_3099" data-name="パス 3099" d="M101.736,57.933c-1.278.071-7.328-3.577-8.212-7.865-.266-1.29-5.371,1.918-4.584,3.51.732,1.482,7.6,9.193,11.394,10.109,3.361.81,8.443-2.776,10.481-4.232,1.148-.82-1.172-6.6-3.3-5.539-2.728,1.364-3.381,3.883-5.777,4.016" transform="translate(-42.986 -24.077)" fill="#ffdbb0"/>
        <path id="パス_3100" data-name="パス 3100" d="M145.963,17.134c.227-1.5-1.4-3.648-3.011-4.425S140.4,10.9,137.823,11.8c-2.107-.015-2.91,1.507-3.66,2.3a5.439,5.439,0,0,0-1.025,4.149c.267,1.5-.488,4.6,3.239,6.721,1.144.651,1.123,1.108,3.332.933,2.511-.2,1.947-1.091,3.521-1.978,2.544-1.433,2.5-5.287,2.732-6.792" transform="translate(-64.375 -5.54)" fill="#0054a7"/>
        <path id="パス_3101" data-name="パス 3101" d="M151.536,40.558c.38-.718-3.211-3.719-5.459-5.539-1.415-1.146-1.177-.6-3.066,1.079-4.043,3.588-5.537,2.263-9.029,2.373A16.315,16.315,0,0,0,126,41.625c-1.96,1.434-4.119,3.054-6.107,4.4-1.234.838-2.13,1.278-1.633,2.982.373,1.28,2.119,6.932,3.763,5.894,1.349-.852,2.344-1.7,2.84-1.349.867.619.071,8.379-.426,11.077-.377,2.045-3.408,8.308-1.491,10.722,1.653,2.082,7.665.663,9.373.64,5.042-.071,8.308,1.7,13.137,1.42,3.114-.183,4.154-2.784,2.869-5.781-1.439-3.359-1.569-10.7-2.14-14.984a18,18,0,0,1,.535-8.812c.8-2.37,4.094-5.916,4.816-7.278" transform="translate(-57.143 -16.649)" fill="#fedc5e"/>
        <path id="パス_3102" data-name="パス 3102" d="M136.276,40.577c-.842.471-1.89,1.731-2.583.48-.444-.8.309-2.841,1.358-4.021,1.491-1.678,5.405-2.05,7.562-1.864,1.922.166,2.351.971,3.222,1.811.98.944,1.34,2.858-1.145,2.219-1.062-.273-1.824.678-4.207,1-1.758.24-3.3-.133-4.207.373" transform="translate(-64.614 -16.994)" fill="#51a7dd"/>
      </g>
    </g>
  </g>
</svg>
