<svg xmlns="http://www.w3.org/2000/svg" xmlns:xlink="http://www.w3.org/1999/xlink" width="368" height="125.887" viewBox="0 0 368 125.887">
  <defs>
    <filter id="パス_857" x="0" y="26.251" width="76.192" height="76.795" filterUnits="userSpaceOnUse">
      <feOffset dx="5" dy="5" input="SourceAlpha"/>
      <feGaussianBlur stdDeviation="5" result="blur"/>
      <feFlood flood-opacity="0.161"/>
      <feComposite operator="in" in2="blur"/>
      <feComposite in="SourceGraphic"/>
    </filter>
    <filter id="パス_858" x="47.426" y="20.598" width="77.125" height="78.688" filterUnits="userSpaceOnUse">
      <feOffset dx="5" dy="5" input="SourceAlpha"/>
      <feGaussianBlur stdDeviation="5" result="blur-2"/>
      <feFlood flood-opacity="0.161"/>
      <feComposite operator="in" in2="blur-2"/>
      <feComposite in="SourceGraphic"/>
    </filter>
    <filter id="パス_859" x="98.773" y="18.116" width="73.833" height="76.089" filterUnits="userSpaceOnUse">
      <feOffset dx="5" dy="5" input="SourceAlpha"/>
      <feGaussianBlur stdDeviation="5" result="blur-3"/>
      <feFlood flood-opacity="0.161"/>
      <feComposite operator="in" in2="blur-3"/>
      <feComposite in="SourceGraphic"/>
    </filter>
    <filter id="パス_860" x="145.757" y="13.512" width="74.914" height="76.435" filterUnits="userSpaceOnUse">
      <feOffset dx="5" dy="5" input="SourceAlpha"/>
      <feGaussianBlur stdDeviation="5" result="blur-4"/>
      <feFlood flood-opacity="0.161"/>
      <feComposite operator="in" in2="blur-4"/>
      <feComposite in="SourceGraphic"/>
    </filter>
    <filter id="パス_861" x="193.212" y="7.692" width="77.273" height="78.888" filterUnits="userSpaceOnUse">
      <feOffset dx="5" dy="5" input="SourceAlpha"/>
      <feGaussianBlur stdDeviation="5" result="blur-5"/>
      <feFlood flood-opacity="0.161"/>
      <feComposite operator="in" in2="blur-5"/>
      <feComposite in="SourceGraphic"/>
    </filter>
    <filter id="パス_862" x="242.894" y="4.586" width="76.143" height="78.337" filterUnits="userSpaceOnUse">
      <feOffset dx="5" dy="5" input="SourceAlpha"/>
      <feGaussianBlur stdDeviation="5" result="blur-6"/>
      <feFlood flood-opacity="0.161"/>
      <feComposite operator="in" in2="blur-6"/>
      <feComposite in="SourceGraphic"/>
    </filter>
    <filter id="パス_863" x="292.25" y="0" width="75.75" height="77.931" filterUnits="userSpaceOnUse">
      <feOffset dx="5" dy="5" input="SourceAlpha"/>
      <feGaussianBlur stdDeviation="5" result="blur-7"/>
      <feFlood flood-opacity="0.161"/>
      <feComposite operator="in" in2="blur-7"/>
      <feComposite in="SourceGraphic"/>
    </filter>
    <filter id="パス_864" x="90.818" y="69.731" width="55.486" height="56.156" filterUnits="userSpaceOnUse">
      <feOffset dx="5" dy="5" input="SourceAlpha"/>
      <feGaussianBlur stdDeviation="5" result="blur-8"/>
      <feFlood flood-opacity="0.161"/>
      <feComposite operator="in" in2="blur-8"/>
      <feComposite in="SourceGraphic"/>
    </filter>
    <filter id="パス_865" x="117.229" y="69.901" width="56.305" height="51.861" filterUnits="userSpaceOnUse">
      <feOffset dx="5" dy="5" input="SourceAlpha"/>
      <feGaussianBlur stdDeviation="5" result="blur-9"/>
      <feFlood flood-opacity="0.161"/>
      <feComposite operator="in" in2="blur-9"/>
      <feComposite in="SourceGraphic"/>
    </filter>
    <filter id="パス_866" x="144.594" y="65.768" width="55.118" height="55.501" filterUnits="userSpaceOnUse">
      <feOffset dx="5" dy="5" input="SourceAlpha"/>
      <feGaussianBlur stdDeviation="5" result="blur-10"/>
      <feFlood flood-opacity="0.161"/>
      <feComposite operator="in" in2="blur-10"/>
      <feComposite in="SourceGraphic"/>
    </filter>
    <filter id="パス_867" x="171.443" y="61.572" width="56.644" height="57.622" filterUnits="userSpaceOnUse">
      <feOffset dx="5" dy="5" input="SourceAlpha"/>
      <feGaussianBlur stdDeviation="5" result="blur-11"/>
      <feFlood flood-opacity="0.161"/>
      <feComposite operator="in" in2="blur-11"/>
      <feComposite in="SourceGraphic"/>
    </filter>
    <filter id="パス_868" x="198.696" y="60.696" width="53.875" height="55.809" filterUnits="userSpaceOnUse">
      <feOffset dx="5" dy="5" input="SourceAlpha"/>
      <feGaussianBlur stdDeviation="5" result="blur-12"/>
      <feFlood flood-opacity="0.161"/>
      <feComposite operator="in" in2="blur-12"/>
      <feComposite in="SourceGraphic"/>
    </filter>
    <filter id="パス_869" x="224.818" y="58.32" width="51.643" height="57.117" filterUnits="userSpaceOnUse">
      <feOffset dx="5" dy="5" input="SourceAlpha"/>
      <feGaussianBlur stdDeviation="5" result="blur-13"/>
      <feFlood flood-opacity="0.161"/>
      <feComposite operator="in" in2="blur-13"/>
      <feComposite in="SourceGraphic"/>
    </filter>
  </defs>
  <g id="グループ_2950" data-name="グループ 2950" transform="translate(12456 119.314)">
    <g transform="matrix(1, 0, 0, 1, -12456, -119.31)" filter="url(#パス_857)">
      <path id="パス_857-2" data-name="パス 857" d="M46.192,116.581v6.634l-34.251,3V132.3c0,10.516-.049,21.92-4.668,31.071A13.681,13.681,0,0,0,0,161.408c4.57-9.2,4.57-15.436,4.57-27.721V120.222Zm-2.457,17.463v6.437l-11.106.972V153.59L46.192,152.4v6.339L11.253,161.8V155.46l14.054-1.23V142.093l-10.614.929v-6.437l10.614-.929v-9.631l7.568-.269c.246-.022.835-.024.835.566,0,.54-.54.784-1.081.93v7.764Z" transform="translate(10 -80.33)" fill="#fff"/>
    </g>
    <g transform="matrix(1, 0, 0, 1, -12456, -119.31)" filter="url(#パス_858)">
      <path id="パス_858-2" data-name="パス 858" d="M239.271,101.642a29.576,29.576,0,0,1,3.44,5.6V98.49l6.192-.247c.442-.038,1.032.106,1.032.7,0,.344-.344.62-1.032,1.073v23.882l-6.192.542V112.348a26.2,26.2,0,0,0-3.833,1.908c-.54-1.525-.59-1.718-.688-2.053-2.6.67-4.717,1.1-7.125,1.655l5.749-.061c1.081,0,1.081.446,1.081.642,0,.786-.884,1.011-1.327,1.1v1.72l4.668-.409v5.9l-4.668.408v4.521c4.226-1.205,4.668-1.342,6.29-1.926a29.706,29.706,0,0,0-.541,6.239c-5.012,1.519-5.553,1.665-10.27,3.011-.835.22-4.717,1.3-5.455,1.558-.344.964-.54,1.423-1.081,1.471-.442.038-.639-.338-.688-.677L223.5,131.08c.983-.233,5.356-1.353,6.241-1.578v-5.749l-4.914.43v-5.9l4.914-.43v-3.735c-.442.137-2.949.651-3.145.717-.2.754-.295,1.451-1.032,1.515-.589.052-.639-.386-.786-.865l-1.621-6.148c.393-.084,2.162-.386,2.506-.416a66.024,66.024,0,0,0,2.555-7.349l-2.8.245V97.1l-.442.039a59.671,59.671,0,0,1-2.949,8.071l1.13.294c.245.077.54.247.54.542,0,.491-.639.842-1.081,1.028V139.56l-6.929.606V117.955a11.288,11.288,0,0,1-.884,1.207,18.827,18.827,0,0,0-4.177-5.384c3.489-4.433,6.339-11.169,8.207-19.391l7.027,1.4,15.577-1.363v6l-5.8.507c.147.577-.639.891-1.081,1.028-1.131,2.851-1.818,4.434-2.408,5.714.59-.15,3-.7,3.489-.8-.295-.564-.442-.748-1.621-2.561Zm17.789-10.156c.148-.013.688-.061.688.431,0,.639-.835,1.007-1.13,1.18v37.788c0,2.85-.737,3.7-2.113,4.706-.492.387-2.654,1.755-7.273,2.111a16.767,16.767,0,0,0-2.162-6.936,21.977,21.977,0,0,0,3.931.1c1.474-.129,1.474-.522,1.474-2.34v-36.8Z" transform="translate(-153.2 -60.88)" fill="#fff"/>
    </g>
    <g transform="matrix(1, 0, 0, 1, -12456, -119.31)" filter="url(#パス_859)">
      <path id="パス_859-2" data-name="パス 859" d="M482.443,86.792c.049,1.421.049,3.239.049,6.138,0,29.778-2.8,31.006-14.054,31.893a11.965,11.965,0,0,0-2.653-7.139,22.9,22.9,0,0,0,4.914.012,3.286,3.286,0,0,0,3.194-1.95c1.523-3.77,1.621-17.291,1.621-21.911l-8.894.778a39.92,39.92,0,0,1-3.44,6.984c-3-1.458-3.686-1.594-4.914-1.781v24.226l-7.174.628V122.9l-4.963.434v2.555l-7.469.654V90.623l5.5-.482a78.9,78.9,0,0,0,1.966-8.083l6.831.582c.835.074,1.229.138,1.229.63,0,.442-.246.562-1.229,1.139-.737,2.423-1.278,3.748-1.818,5.122l7.125-.623v7.666a45.734,45.734,0,0,0,5.062-16.118l6.88.971c.344.068.884.168.884.66,0,.59-.737.851-1.13.984-.246,1.152-.442,2.25-1.229,4.923Zm-36.315,16.739,4.963-.434V95.973l-4.963.434Zm4.963,5.708-4.963.434v7.174l4.963-.434Zm18.526-10.761c1.572,2.565,3.145,8.128,3.489,10.211a25.694,25.694,0,0,0-6.143,3.289c-.442-2.074-2.31-8.4-3.538-10.157Z" transform="translate(-329.89 -52.34)" fill="#fff"/>
    </g>
    <g transform="matrix(1, 0, 0, 1, -12456, -119.31)" filter="url(#パス_860)">
      <path id="パス_860-2" data-name="パス 860" d="M665.844,81.925l7.666-.081c.737-.015,1.425.023,1.425.612,0,.54-.246.66-1.425,1.059v2.85l14.546-1.272v6.29L673.51,92.654v5.16l18.722-1.638v6.339l-44.914,3.929v-6.339l18.526-1.621v-5.16L651.495,94.58v-6.29l14.349-1.255Zm-17.15-4.347c1.228-.058,6.781-.839,7.912-.987a53.131,53.131,0,0,0,4.029-7.724l-12.629,1.1V63.78l43.1-3.77V66.2L679.21,67.242c1.917,1.208,9.189,6.911,11.548,10.1a34.366,34.366,0,0,1-2.7,2.6c-.442.432-2.359,2.319-2.752,2.7-.885-1.1-1.13-1.375-3.391-3.782-5.012.831-26.044,4.342-29.386,4.831-.2.656-.442,1.267-1.278,1.34-.786.068-.934-.41-1.081-1.134Zm28.354-10.146L670.561,68c.148.773-.59,1.034-1.425,1.206-1.523,2.689-3.145,5.091-3.882,6.187,1.573-.236,9.14-1.488,10.86-1.736a33.121,33.121,0,0,0-3.784-2.47Z" transform="translate(-491.56 -36.5)" fill="#fff"/>
    </g>
    <g transform="matrix(1, 0, 0, 1, -12456, -119.31)" filter="url(#パス_861)">
      <path id="パス_861-2" data-name="パス 861" d="M871.929,54.909V70.044c0,3.784,3.047,4.991,7.862,4.57,6.487-.568,20.049-2.1,25.553-3.562a38.553,38.553,0,0,0-2.359,7.823l-17.3,1.513c-7.42.649-9.14.5-11.5-.075a10.7,10.7,0,0,1-5.7-3.088c-.492.485-1.72,1.625-2.555,2.287-1.72,1.33-2.85,2.215-3.341,2.6,0,.393,0,.885-.54.932-.344.03-.492-.2-.688-.53l-3.292-5.609a39.322,39.322,0,0,0,6.634-4.561V62.076l-5.749.5V56.044Zm-8.6-17.233a38.459,38.459,0,0,1,9.042,5.7A32.558,32.558,0,0,0,868,49.5a32.238,32.238,0,0,0-8.747-6.163Zm40.3,9.2V53.61l-7.273.636v17.3l-6.929.606v-17.3l-6.192.542c-.442,6.967-1.474,12.905-4.668,17.705-3.1-1.989-4.57-2.4-6.143-2.509,2.85-5.065,3.735-8.877,3.735-16.445V38.618l5.946.512a76.639,76.639,0,0,0,16.364-4.97L903.28,39a.857.857,0,0,1,.246.617c0,.393-.393.526-.688.551a8.026,8.026,0,0,1-.983.037,90.05,90.05,0,0,1-18.477,4.368v4.079Z" transform="translate(-654.86 -16.47)" fill="#fff"/>
    </g>
    <g transform="matrix(1, 0, 0, 1, -12456, -119.31)" filter="url(#パス_862)">
      <path id="パス_862-2" data-name="パス 862" d="M1078.71,61.628c.246-.071,1.032-.336,1.376-.465V42.982l6.388-.215c.295-.026.933-.032.933.41s-.54.834-1.179,1.233V59.1c.393-.133,1.327-.46,1.868-.655V39.578l-7.666.671V24.18l18.919-1.655V38.594l-5.209.456v4.324l5.111-.447v6.388l-5.111.447v6.486c2.457-.952,4.128-1.589,5.8-2.276-.1,1.433-.2,4.685-.147,6.155-5.9,2.482-11.745,4.86-17.74,7.154-.295.714-.59,1.378-1.081,1.421-.393.034-.541-.493-.639-.878Zm8.206-32.462v4.816l6-.524V28.641Zm35.823,2.173V53.4l-7.027.615V52.3l-8.157.714v4.914l17.3-1.513v6.437l-17.3,1.513v1.13l-6.585.576V22.383l23.047-2.016v6.339l-16.462,1.44v4.521ZM1107.555,39.4v6.585l8.157-.714V38.685Z" transform="translate(-825.82 -5.78)" fill="#fff"/>
    </g>
    <g transform="matrix(1, 0, 0, 1, -12456, -119.31)" filter="url(#パス_863)">
      <path id="パス_863-2" data-name="パス 863" d="M1317.025,38.529a22.112,22.112,0,0,0-3.784,1.363c-.147-.921-.2-1.31-.344-2.132-.983.283-5.7,1.727-6.781,2.018-.1.3-.2.8-.589.838-.3.026-.442-.4-.541-.69l-.688-1.709v9.189l-6,.524V26.8l9.484-.83a18.834,18.834,0,0,0,.589-2.017l-8.943.782V11.715l5.6-.146c.3-.026.934.066.934.508,0,.295-.295.616-.884,1.109v3.931c.54-.44,1.278-1.045,2.506-2.136a8,8,0,0,0-2.309-1.174l2.6-3.422a9.371,9.371,0,0,1,2.752,1.528c.393-.477.835-.958,1.671-2.112l-14.4,1.26V5.755l9.631-.843V1.866l7.125-.23c.491.006,1.229.04,1.229.531,0,.344-.639.744-1.229,1.041V4.289l8.649-.757V8.839l-9.779.856,1.966,1.7.2.179V10.292l5.6-.146c.3-.026,1.18-.054,1.18.585,0,.344-.59.739-1.18,1.037v3.784c1.671-2.112,4.718-6.653,6.634-14.88L1334.076,2c.295.073.639.288.639.583,0,.246-.245.513-1.327.8a39.728,39.728,0,0,1-1.916,5.376l1.671-.146A39.386,39.386,0,0,0,1336.73,0l6.29,1.465c.393.113.639.239.639.534,0,.491-.541.686-1.573.973a53.8,53.8,0,0,1-2.653,5.1l3.587-.314v5.995l-4.472.391v3.685l3.44-.3v5.307l-3.44.3v3.833l3.44-.3v5.258l-3.44.3v3.931l4.718-.413v5.9l-12.826,1.122V45.12l-6.143.537V21.038a8.551,8.551,0,0,1-.934.868,18.3,18.3,0,0,0-2.064-2.62v3.538l-7.518.658c-.2.607-.442,1.415-.639,2.021l9.337-.817V42.819c0,2.064,0,3.047-7.813,3.927a9.886,9.886,0,0,0-2.359-5.494c1.327-.018,3.243.011,3.686-.027.884-.077,1.032-.533,1.032-1.81ZM1304.3,35.761c.295-.075.442-.088.737-.163.835-2.383.934-2.637,1.425-4.351l-2.162.189Zm3.44-16.025a6.209,6.209,0,0,0-2.653-1.881v2.113Zm4.275-.374a15.4,15.4,0,0,0-1.376-1.648,22.609,22.609,0,0,1-1.867,1.932Zm3.44,11.345a22.249,22.249,0,0,1,1.573,4.629V30.323l-5.553.486c-.2.558-1.081,3.141-1.278,3.65.246-.022,1.523-.33,1.769-.4-.246-.765-.344-1.1-.639-1.861Zm.246-18.252a2.667,2.667,0,0,1-.639.1,19.806,19.806,0,0,1-1.327,1.689,10.925,10.925,0,0,1,1.965,2.039Zm0,4.57a7.857,7.857,0,0,0-1.965,2.186l1.965-.172Zm16.953,1.318V14.656l-2.211.193v3.685Zm-2.211,5.5v3.833l2.211-.193V23.649Zm2.211,12.828V32.74l-2.211.193v3.931Z" transform="translate(-995.66 10)" fill="#fff"/>
    </g>
    <g transform="matrix(1, 0, 0, 1, -12456, -119.31)" filter="url(#パス_864)">
      <path id="パス_864-2" data-name="パス 864" d="M428.029,314.36c-6.979.5-13.025,7.3-13.025,11.877,0,3.278,4.154,4.525,8,4.273a41.812,41.812,0,0,0-2.119,5.328c-2.289-.422-10.4-1.972-10.4-8.726,0-5.227,4.04-9.339,5.2-10.175a81.011,81.011,0,0,0-11.7,2.8l-.65-5.255a93.756,93.756,0,0,0,12.573-1.75,71.851,71.851,0,0,0,11.33-3.054Zm-4.69,4.423a15.392,15.392,0,0,1,2.628,2.793c-.791.634-1.187.98-2.176,1.886a20.086,20.086,0,0,0-2.515-2.973Zm2.967-2.266a15.764,15.764,0,0,1,2.515,2.747c-.706.6-1.187,1.065-2.063,1.932a18.409,18.409,0,0,0-2.514-2.973Z" transform="translate(-302.52 -229.95)" fill="#fff"/>
    </g>
    <g transform="matrix(1, 0, 0, 1, -12456, -119.31)" filter="url(#パス_865)">
      <path id="パス_865-2" data-name="パス 865" d="M520.625,315.19a24.133,24.133,0,0,0,3.56-.99c7.968-2.788,9.889-3.437,13-3.708,6.781-.593,9.748,3.64,9.748,8.613,0,10.653-12.856,12.569-17.4,13.193a17.389,17.389,0,0,0-1.441-4.395c5.086-.417,14.071-1.372,14.071-8.323,0-1.469-.508-5.352-5.51-4.915-4.21.368-11.189,3.833-14.24,5.823Z" transform="translate(-393.4 -230.53)" fill="#fff"/>
    </g>
    <g transform="matrix(1, 0, 0, 1, -12456, -119.31)" filter="url(#パス_866)">
      <path id="パス_866-2" data-name="パス 866" d="M643.089,297.42a20.03,20.03,0,0,0,3.136-.048c.819-.072,1.667-.2,2.882-.394a45.878,45.878,0,0,0,1.045-4.895l4.436,1c.4.078.537.179.537.405,0,.339-.452.379-.593.391-.085.205-.452,1.537-.565,1.914a26.24,26.24,0,0,0,3.052-1.2,29.681,29.681,0,0,0,.085,4.2,39.786,39.786,0,0,1-4.521,1.384c-.4,1.193-1.356,3.877-2.882,7.486a41.928,41.928,0,0,1-3.306,6.505,20.718,20.718,0,0,0-4.238-1.324,56.264,56.264,0,0,0,5.707-11.661c-.65.113-3.362.435-4.238.512Zm18.281,6.115a4.545,4.545,0,0,0-1.017,2.858,19.484,19.484,0,0,0,.283,2.744,27.1,27.1,0,0,1,5.99,2.923,31.942,31.942,0,0,0-2.6,3.618,22.318,22.318,0,0,0-3.249-2.089c-.537,2.7-2.4,3.657-5.651,3.942-4.492.393-6.725-1.418-6.725-4.074,0-.537.113-4.475,5.82-4.974.791-.069,1.356-.062,1.865-.078-.028-.2-.141-2.22-.141-2.446a6.087,6.087,0,0,1,1.978-4.1Zm-7.007,8.3c-.791.069-1.809.554-1.809,1.317,0,.678.82.974,2.006.87,1.921-.168,2.034-1.11,2.119-1.824a5.222,5.222,0,0,0-2.317-.363m5.481-15.54c4.492,1.076,6.159,2.117,7.431,3.023a41.092,41.092,0,0,0-2.571,3.87,18.324,18.324,0,0,0-7.092-3.024Z" transform="translate(-487.56 -216.31)" fill="#fff"/>
    </g>
    <g transform="matrix(1, 0, 0, 1, -12456, -119.31)" filter="url(#パス_867)">
      <path id="パス_867-2" data-name="パス 867" d="M774,276.3c.509.068.678.11.678.421,0,.367-.367.4-.735.46-.141.577-.791,3.008-.932,3.642,5-.635,6.7,2.324,6.7,7.806,0,.452,0,6.5-2.345,9.671a5.766,5.766,0,0,1-4.549,2.263,7.156,7.156,0,0,1-2.4-.129,12.83,12.83,0,0,0-.594-4.554,10.67,10.67,0,0,0,2.967.306c2.317-.2,2.628-5.316,2.628-8.142,0-1.13-.085-3.185-2.656-2.961-.283.025-.565.078-.847.131a64.419,64.419,0,0,1-6.442,15.85,12.507,12.507,0,0,0-4.069-1.9,55.8,55.8,0,0,0,5.962-12.559,24.749,24.749,0,0,0-4.012,1.877l-1.328-4.659c1.13-.212,2.373-.6,6.527-1.9a31.044,31.044,0,0,0,.848-6.375Zm7.261,2.784a30.754,30.754,0,0,1,4.577,5.053,5.765,5.765,0,0,1,1.356,3.413c0,2.119-2.458,3.239-4.153,4.037a27.035,27.035,0,0,0-2.147-3.57c1.074-.433,1.441-.578,1.441-1.2,0-1.356-2.769-4.674-3.984-5.868Zm1.582-3.642a16.125,16.125,0,0,1,2.317,2.595c-.65.509-.791.634-2.063,1.678-.282-.343-1.7-2.084-2.317-2.68Zm2.825-2a13.822,13.822,0,0,1,2.373,2.674c-.622.507-1.639,1.3-2.289,1.811a11.108,11.108,0,0,0-2.26-2.911Z" transform="translate(-579.95 -201.87)" fill="#fff"/>
    </g>
    <g transform="matrix(1, 0, 0, 1, -12456, -119.31)" filter="url(#パス_868)">
      <path id="パス_868-2" data-name="パス 868" d="M902.458,272.232a86.934,86.934,0,0,0-6.753,7.033,11.777,11.777,0,0,1,2.712-.548c2.769-.242,7.883.469,7.883,6.346a8.529,8.529,0,0,1-4.153,7.569,21.484,21.484,0,0,1-8.787,2.662c-.706.062-1.1.068-1.441.07a12.66,12.66,0,0,0-1.667-3.895c1.1-.068,2.147-.1,2.882-.168,5.142-.45,8.674-2.369,8.674-5.7,0-3.391-3.673-3.352-4.464-3.283-3.956.346-6.442,2.626-9.183,5.155-1.78,1.625-2.176,2.055-2.543,2.455l-3.193-2.942a83.934,83.934,0,0,0,11.867-11.719,69.355,69.355,0,0,1-7.29,1.8l-.763-4.539c.65-.029,1.384-.065,2.4-.154a35.625,35.625,0,0,0,11.471-2.812Z" transform="translate(-673.73 -198.86)" fill="#fff"/>
    </g>
    <g transform="matrix(1, 0, 0, 1, -12456, -119.31)" filter="url(#パス_869)">
      <path id="パス_869-2" data-name="パス 869" d="M998.437,269.683c1.271-.224,1.752-.436,6.075-2.4a24.326,24.326,0,0,1,7.8-2.434c4.125-.361,7.77,2.09,7.77,7.232,0,8.759-9.72,13.029-13.478,14.036a13.079,13.079,0,0,0-2.967-3.583c10.68-2.856,11.924-7.91,11.924-9.8a3.363,3.363,0,0,0-3.843-3.648c-2.43.213-7.064,2.257-11.217,6.152ZM1004.568,259a23.563,23.563,0,0,0,8.392.65,15.124,15.124,0,0,0,2.091-.3,40.491,40.491,0,0,0-.565,4.74c-6.16.454-9.1-.193-10.539-.519Z" transform="translate(-763.62 -190.68)" fill="#fff"/>
    </g>
  </g>
</svg>
