<svg xmlns="http://www.w3.org/2000/svg" width="58.746" height="44.089" viewBox="0 0 58.746 44.089">
  <g id="グループ_8119" data-name="グループ 8119" transform="translate(1.225 1.225)">
    <g id="グループ_8118" data-name="グループ 8118" transform="matrix(0.966, -0.259, 0.259, 0.966, 0, 13.03)">
      <path id="パス_3464" data-name="パス 3464" d="M49.488,10.993h.858V0H30.407L30.2.134,30.132,0H0V10.993H.858a3.627,3.627,0,0,1,3.391,3.816A3.627,3.627,0,0,1,.858,18.626H0V29.619H50.346V18.626h-.858A3.627,3.627,0,0,1,46.1,14.809a3.627,3.627,0,0,1,3.391-3.816m-.858,9.484" transform="translate(0 0)" fill="#fff" stroke="#024287" stroke-linejoin="round" stroke-width="2"/>
      <g id="グループ_8111" data-name="グループ 8111" transform="translate(7.171 5.784)">
        <rect id="長方形_2216" data-name="長方形 2216" width="31.918" height="1.288" transform="translate(1.641 16.763)" fill="#024287" stroke="#024287" stroke-linejoin="round" stroke-width="2"/>
        <g id="グループ_8110" data-name="グループ 8110" transform="translate(0 5.961)">
          <path id="パス_3314" data-name="パス 3314" d="M0,0V2.194H.789V.888h.444V5.053H.8v.888H2.915V5.053H2.489V.888h.444V2.194h.789V0Z" transform="translate(6.023 0.091)" fill="#024287" stroke="#024287" stroke-linejoin="round" stroke-width="2"/>
          <path id="パス_3315" data-name="パス 3315" d="M1.766,5.053h.543v.888H0V5.053H.51V.888H0V0H2.309V.888H1.766Z" transform="translate(10.058 0.091)" fill="#024287" stroke="#024287" stroke-linejoin="round" stroke-width="2"/>
          <path id="パス_3316" data-name="パス 3316" d="M3.223,4.255a3.4,3.4,0,0,1-.132.688,2.013,2.013,0,0,1-.359.69,1.253,1.253,0,0,1-1,.493,1.282,1.282,0,0,1-.376-.054,1.557,1.557,0,0,1-.874-.768A4.659,4.659,0,0,1,0,2.979Q0,2.727.014,2.5h0a4.188,4.188,0,0,1,.4-1.7L.46.718a1.17,1.17,0,0,1,1-.718.748.748,0,0,1,.1.006h0A.965.965,0,0,1,2.21.5h.015V.091h.841V2.1H2.225a2.2,2.2,0,0,0-.195-.914A.322.322,0,0,0,1.751,1q-.271,0-.323.443c-.005.044-.01.093-.014.147q-.037.459-.037,1.388a11.86,11.86,0,0,0,.079,1.746q.079.413.354.413c.144,0,.25-.1.317-.292a3.574,3.574,0,0,0,.134-.906Z" transform="translate(12.812 0)" fill="#024287" stroke="#024287" stroke-linejoin="round" stroke-width="2"/>
          <path id="パス_3317" data-name="パス 3317" d="M2.324,5.053v.888H.5V5.053H.76l-.6-1.772L0,2.826.895.888H.565V0H2.107V.888H1.791L1.084,2.406l.077.223.631,1.82.209.6Z" transform="translate(18.164 0.091)" fill="#024287" stroke="#024287" stroke-linejoin="round" stroke-width="2"/>
          <path id="パス_3318" data-name="パス 3318" d="M1.641.888V5.053h.253v.888H0V5.053H.385V.888H0V0H1.964V.888Z" transform="translate(16.399 0.091)" fill="#024287" stroke="#024287" stroke-linejoin="round" stroke-width="2"/>
          <path id="パス_3319" data-name="パス 3319" d="M3.723,0V2.194h-.79V.888H2.489V5.053h.426v.888H.8V5.053h.429V.888H.789V2.194H0V0Z" transform="translate(24.586 0.091)" fill="#024287" stroke="#024287" stroke-linejoin="round" stroke-width="2"/>
          <path id="パス_3320" data-name="パス 3320" d="M2.382,0l.562,1.948h1.82l-1.472,1.2L3.854,5.1,2.382,3.9.91,5.1l.562-1.948L0,1.948H1.819Z" transform="translate(29.568 0.267)" fill="#024287" stroke="#024287" stroke-linejoin="round" stroke-width="2"/>
          <path id="パス_3321" data-name="パス 3321" d="M4.764,1.948l-.471.385h0l-1,.818.235.814L3.854,5.1,3.12,4.5l-.738-.6L.91,5.1l.408-1.416.154-.532L0,1.948H1.82L2.382,0l.382,1.324h0l.18.623Z" transform="translate(0 0.267)" fill="#024287" stroke="#024287" stroke-linejoin="round" stroke-width="2"/>
          <path id="パス_3322" data-name="パス 3322" d="M2.624,1.888v-1h-.91V2.463h.7V3.35h-.7v1.7h.91V4h.94V5.941H0V5.053H.459V.888H0V0H3.565V1.888Z" transform="translate(20.632 0.091)" fill="#024287" stroke="#024287" stroke-linejoin="round" stroke-width="2"/>
        </g>
        <rect id="長方形_2217" data-name="長方形 2217" width="31.918" height="1.288" transform="translate(1.641 0)" fill="#024287" stroke="#024287" stroke-linejoin="round" stroke-width="2"/>
      </g>
      <path id="パス_3323" data-name="パス 3323" d="M49.488,10.993h.858V0H30.407L30.2.134,30.132,0H0V10.993H.858a3.627,3.627,0,0,1,3.391,3.816A3.627,3.627,0,0,1,.858,18.626H0V29.619H50.346V18.626h-.858A3.627,3.627,0,0,1,46.1,14.809a3.627,3.627,0,0,1,3.391-3.816m-.858,9.484v7.211H1.716V20.476a5.6,5.6,0,0,0,4.249-5.667A5.6,5.6,0,0,0,1.716,9.142V1.931H48.629V9.142a5.6,5.6,0,0,0-4.249,5.667,5.6,5.6,0,0,0,4.249,5.667" transform="translate(0 0)" fill="#024287" stroke="#024287" stroke-linejoin="round" stroke-width="2"/>
    </g>
    <g id="グループ_8113" data-name="グループ 8113" transform="matrix(0.966, -0.259, 0.259, 0.966, 0, 13.03)">
      <path id="パス_3464-2" data-name="パス 3464" d="M49.488,10.993h.858V0H30.407L30.2.134,30.132,0H0V10.993H.858a3.627,3.627,0,0,1,3.391,3.816A3.627,3.627,0,0,1,.858,18.626H0V29.619H50.346V18.626h-.858A3.627,3.627,0,0,1,46.1,14.809a3.627,3.627,0,0,1,3.391-3.816m-.858,9.484" transform="translate(0 0)" fill="#fff"/>
      <g id="グループ_8111-2" data-name="グループ 8111" transform="translate(7.171 5.784)">
        <rect id="長方形_2216-2" data-name="長方形 2216" width="31.918" height="1.288" transform="translate(1.641 16.763)" fill="#024287"/>
        <g id="グループ_8110-2" data-name="グループ 8110" transform="translate(0 5.961)">
          <path id="パス_3314-2" data-name="パス 3314" d="M0,0V2.194H.789V.888h.444V5.053H.8v.888H2.915V5.053H2.489V.888h.444V2.194h.789V0Z" transform="translate(6.023 0.091)" fill="#024287"/>
          <path id="パス_3315-2" data-name="パス 3315" d="M1.766,5.053h.543v.888H0V5.053H.51V.888H0V0H2.309V.888H1.766Z" transform="translate(10.058 0.091)" fill="#024287"/>
          <path id="パス_3316-2" data-name="パス 3316" d="M3.223,4.255a3.4,3.4,0,0,1-.132.688,2.013,2.013,0,0,1-.359.69,1.253,1.253,0,0,1-1,.493,1.282,1.282,0,0,1-.376-.054,1.557,1.557,0,0,1-.874-.768A4.659,4.659,0,0,1,0,2.979Q0,2.727.014,2.5h0a4.188,4.188,0,0,1,.4-1.7L.46.718a1.17,1.17,0,0,1,1-.718.748.748,0,0,1,.1.006h0A.965.965,0,0,1,2.21.5h.015V.091h.841V2.1H2.225a2.2,2.2,0,0,0-.195-.914A.322.322,0,0,0,1.751,1q-.271,0-.323.443c-.005.044-.01.093-.014.147q-.037.459-.037,1.388a11.86,11.86,0,0,0,.079,1.746q.079.413.354.413c.144,0,.25-.1.317-.292a3.574,3.574,0,0,0,.134-.906Z" transform="translate(12.812 0)" fill="#024287"/>
          <path id="パス_3317-2" data-name="パス 3317" d="M2.324,5.053v.888H.5V5.053H.76l-.6-1.772L0,2.826.895.888H.565V0H2.107V.888H1.791L1.084,2.406l.077.223.631,1.82.209.6Z" transform="translate(18.164 0.091)" fill="#024287"/>
          <path id="パス_3318-2" data-name="パス 3318" d="M1.641.888V5.053h.253v.888H0V5.053H.385V.888H0V0H1.964V.888Z" transform="translate(16.399 0.091)" fill="#024287"/>
          <path id="パス_3319-2" data-name="パス 3319" d="M3.723,0V2.194h-.79V.888H2.489V5.053h.426v.888H.8V5.053h.429V.888H.789V2.194H0V0Z" transform="translate(24.586 0.091)" fill="#024287"/>
          <path id="パス_3320-2" data-name="パス 3320" d="M2.382,0l.562,1.948h1.82l-1.472,1.2L3.854,5.1,2.382,3.9.91,5.1l.562-1.948L0,1.948H1.819Z" transform="translate(29.568 0.267)" fill="#024287"/>
          <path id="パス_3321-2" data-name="パス 3321" d="M4.764,1.948l-.471.385h0l-1,.818.235.814L3.854,5.1,3.12,4.5l-.738-.6L.91,5.1l.408-1.416.154-.532L0,1.948H1.82L2.382,0l.382,1.324h0l.18.623Z" transform="translate(0 0.267)" fill="#024287"/>
          <path id="パス_3322-2" data-name="パス 3322" d="M2.624,1.888v-1h-.91V2.463h.7V3.35h-.7v1.7h.91V4h.94V5.941H0V5.053H.459V.888H0V0H3.565V1.888Z" transform="translate(20.632 0.091)" fill="#024287"/>
        </g>
        <rect id="長方形_2217-2" data-name="長方形 2217" width="31.918" height="1.288" transform="translate(1.641 0)" fill="#024287"/>
      </g>
      <path id="パス_3323-2" data-name="パス 3323" d="M49.488,10.993h.858V0H30.407L30.2.134,30.132,0H0V10.993H.858a3.627,3.627,0,0,1,3.391,3.816A3.627,3.627,0,0,1,.858,18.626H0V29.619H50.346V18.626h-.858A3.627,3.627,0,0,1,46.1,14.809a3.627,3.627,0,0,1,3.391-3.816m-.858,9.484v7.211H1.716V20.476a5.6,5.6,0,0,0,4.249-5.667A5.6,5.6,0,0,0,1.716,9.142V1.931H48.629V9.142a5.6,5.6,0,0,0-4.249,5.667,5.6,5.6,0,0,0,4.249,5.667" transform="translate(0 0)" fill="#024287"/>
    </g>
  </g>
</svg>
