<svg xmlns="http://www.w3.org/2000/svg" width="276.69" height="248.471" viewBox="0 0 276.69 248.471">
  <g id="グループ_8481" data-name="グループ 8481" transform="translate(-1008.24 -7496.765)">
    <path id="パス_10838" data-name="パス 10838" d="M274.685,73.514l-39.192-1.108a123.478,123.478,0,1,0,9.122,29.761Z" transform="translate(1009.245 7497.771)" fill="#ff0" stroke="#024287" stroke-linecap="round" stroke-linejoin="round" stroke-width="2"/>
    <path id="パス_10840" data-name="パス 10840" d="M-90.528-12.926a14.2,14.2,0,0,1,1.656-6.992,11.413,11.413,0,0,1,4.623-4.6,14,14,0,0,1,6.785-1.61,12.82,12.82,0,0,1,8.28,2.691,12.361,12.361,0,0,1,4.324,7.521h-9.568a3.2,3.2,0,0,0-3.22-2.53,3.123,3.123,0,0,0-2.691,1.4,7.126,7.126,0,0,0-.989,4.117,7.241,7.241,0,0,0,.989,4.14A3.109,3.109,0,0,0-77.648-7.36a3.158,3.158,0,0,0,3.22-2.53h9.568a12.434,12.434,0,0,1-4.324,7.5A12.749,12.749,0,0,1-77.464.322a14,14,0,0,1-6.785-1.61,11.413,11.413,0,0,1-4.623-4.6A14.3,14.3,0,0,1-90.528-12.926ZM-49.128.322a14.637,14.637,0,0,1-6.923-1.61,11.866,11.866,0,0,1-4.807-4.6,13.7,13.7,0,0,1-1.748-7.038,13.463,13.463,0,0,1,1.771-6.992,12.021,12.021,0,0,1,4.83-4.6,14.637,14.637,0,0,1,6.923-1.61,14.637,14.637,0,0,1,6.923,1.61,12.021,12.021,0,0,1,4.83,4.6,13.463,13.463,0,0,1,1.771,6.992,13.587,13.587,0,0,1-1.771,7.015,11.938,11.938,0,0,1-4.853,4.623A14.774,14.774,0,0,1-49.128.322Zm0-7.82a4.069,4.069,0,0,0,3.151-1.4,5.812,5.812,0,0,0,1.265-4.025,5.723,5.723,0,0,0-1.265-4,4.049,4.049,0,0,0-3.1-1.38,3.979,3.979,0,0,0-3.082,1.38,5.792,5.792,0,0,0-1.242,4,6.019,6.019,0,0,0,1.2,4.048A3.891,3.891,0,0,0-49.128-7.5ZM1.84-26.036A10.032,10.032,0,0,1,9.5-23.092a11.244,11.244,0,0,1,2.783,8.05V0H3.266V-13.846a4.353,4.353,0,0,0-1.15-3.22,4.227,4.227,0,0,0-3.128-1.15,4.227,4.227,0,0,0-3.128,1.15,4.353,4.353,0,0,0-1.15,3.22V0h-9.016V-13.846a4.405,4.405,0,0,0-1.127-3.22,4.148,4.148,0,0,0-3.1-1.15,4.289,4.289,0,0,0-3.174,1.15,4.353,4.353,0,0,0-1.15,3.22V0h-9.016V-25.806h9.016v3.4a8.7,8.7,0,0,1,3.1-2.645,9.415,9.415,0,0,1,4.393-.989,10.272,10.272,0,0,1,5.083,1.242,9.071,9.071,0,0,1,3.519,3.5,10.672,10.672,0,0,1,3.634-3.427A9.7,9.7,0,0,1,1.84-26.036ZM21.758-28.2a5.506,5.506,0,0,1-3.841-1.311A4.249,4.249,0,0,1,16.468-32.8a4.37,4.37,0,0,1,1.449-3.358,5.448,5.448,0,0,1,3.841-1.334,5.382,5.382,0,0,1,3.795,1.334A4.37,4.37,0,0,1,27-32.8a4.249,4.249,0,0,1-1.449,3.289A5.439,5.439,0,0,1,21.758-28.2Zm4.462,2.392V0H17.2V-25.806Zm22.034-.23a8.976,8.976,0,0,1,7.084,2.967,11.688,11.688,0,0,1,2.622,8.027V0H48.944V-13.846a4.971,4.971,0,0,0-1.15-3.473,3.961,3.961,0,0,0-3.082-1.265,4.073,4.073,0,0,0-3.174,1.265,4.971,4.971,0,0,0-1.15,3.473V0H31.372V-25.806h9.016v3.68a8.9,8.9,0,0,1,3.22-2.829A9.71,9.71,0,0,1,48.254-26.036Zm24.2-.092a9.473,9.473,0,0,1,4.577,1.058,7.618,7.618,0,0,1,3.013,2.852v-3.588h9.016V-.276a15.158,15.158,0,0,1-1.38,6.555,10.689,10.689,0,0,1-4.3,4.669A14.186,14.186,0,0,1,75.992,12.7q-5.98,0-9.568-2.806A10.676,10.676,0,0,1,62.33,2.254h8.878a2.958,2.958,0,0,0,1.38,1.932,5.308,5.308,0,0,0,2.852.69q4.6,0,4.6-5.152V-3.588A7.618,7.618,0,0,1,77.027-.736,9.473,9.473,0,0,1,72.45.322a10.126,10.126,0,0,1-5.589-1.61A10.992,10.992,0,0,1,62.9-5.911a16.013,16.013,0,0,1-1.449-7.015A15.863,15.863,0,0,1,62.9-19.918a11.018,11.018,0,0,1,3.956-4.6A10.126,10.126,0,0,1,72.45-26.128Zm7.59,13.2a5.44,5.44,0,0,0-1.357-3.91,4.424,4.424,0,0,0-3.335-1.426,4.438,4.438,0,0,0-3.358,1.4,5.48,5.48,0,0,0-1.334,3.933A5.582,5.582,0,0,0,71.99-8.993a4.37,4.37,0,0,0,3.358,1.449A4.424,4.424,0,0,0,78.683-8.97,5.506,5.506,0,0,0,80.04-12.926ZM-44.528,39.322a15.689,15.689,0,0,1-6.233-1.173,10.631,10.631,0,0,1-4.324-3.22,8.36,8.36,0,0,1-1.771-4.623h8.74a2.767,2.767,0,0,0,1.15,1.932,4.01,4.01,0,0,0,2.392.69,2.955,2.955,0,0,0,1.748-.46,1.409,1.409,0,0,0,.644-1.2,1.509,1.509,0,0,0-1.058-1.426,21.692,21.692,0,0,0-3.5-1.012,30.233,30.233,0,0,1-4.6-1.242,7.83,7.83,0,0,1-3.2-2.254,6.236,6.236,0,0,1-1.357-4.232,7.34,7.34,0,0,1,1.242-4.163,8.5,8.5,0,0,1,3.657-2.967,13.924,13.924,0,0,1,5.819-1.1q5.06,0,7.958,2.484a9.712,9.712,0,0,1,3.358,6.532H-42a3.019,3.019,0,0,0-1.081-1.909,3.592,3.592,0,0,0-2.277-.667,2.856,2.856,0,0,0-1.679.414,1.338,1.338,0,0,0-.575,1.15,1.524,1.524,0,0,0,1.058,1.4,18.1,18.1,0,0,0,3.4.989A29.9,29.9,0,0,1-38.479,24.6a8.292,8.292,0,0,1,3.266,2.369,6.585,6.585,0,0,1,1.4,4.439,6.691,6.691,0,0,1-1.311,4.048,8.745,8.745,0,0,1-3.726,2.829A14.343,14.343,0,0,1-44.528,39.322Zm27.14,0a14.637,14.637,0,0,1-6.923-1.61,11.866,11.866,0,0,1-4.807-4.6,13.7,13.7,0,0,1-1.748-7.038,13.463,13.463,0,0,1,1.771-6.992,12.021,12.021,0,0,1,4.83-4.6,14.637,14.637,0,0,1,6.923-1.61,14.637,14.637,0,0,1,6.923,1.61,12.021,12.021,0,0,1,4.83,4.6,13.463,13.463,0,0,1,1.771,6.992,13.587,13.587,0,0,1-1.771,7.015,11.938,11.938,0,0,1-4.853,4.623A14.774,14.774,0,0,1-17.388,39.322Zm0-7.82a4.069,4.069,0,0,0,3.151-1.4,5.812,5.812,0,0,0,1.265-4.025,5.723,5.723,0,0,0-1.265-4,4.049,4.049,0,0,0-3.1-1.38,3.979,3.979,0,0,0-3.082,1.38,5.792,5.792,0,0,0-1.242,4,6.019,6.019,0,0,0,1.2,4.048A3.891,3.891,0,0,0-17.388,31.5Zm29.256,7.82a14.637,14.637,0,0,1-6.923-1.61,11.866,11.866,0,0,1-4.807-4.6A13.7,13.7,0,0,1-1.61,26.074,13.463,13.463,0,0,1,.161,19.082a12.021,12.021,0,0,1,4.83-4.6,14.637,14.637,0,0,1,6.923-1.61,14.637,14.637,0,0,1,6.923,1.61,12.021,12.021,0,0,1,4.83,4.6,13.463,13.463,0,0,1,1.771,6.992,13.587,13.587,0,0,1-1.771,7.015,11.938,11.938,0,0,1-4.853,4.623A14.774,14.774,0,0,1,11.868,39.322Zm0-7.82a4.069,4.069,0,0,0,3.151-1.4,5.812,5.812,0,0,0,1.265-4.025,5.723,5.723,0,0,0-1.265-4,4.049,4.049,0,0,0-3.105-1.38,3.979,3.979,0,0,0-3.082,1.38,5.792,5.792,0,0,0-1.242,4,6.019,6.019,0,0,0,1.2,4.048A3.891,3.891,0,0,0,11.868,31.5ZM46,12.964a8.976,8.976,0,0,1,7.084,2.967,11.688,11.688,0,0,1,2.622,8.027V39H46.69V25.154a4.971,4.971,0,0,0-1.15-3.473,3.961,3.961,0,0,0-3.082-1.265,4.073,4.073,0,0,0-3.174,1.265,4.971,4.971,0,0,0-1.15,3.473V39H29.118V13.194h9.016v3.68a8.9,8.9,0,0,1,3.22-2.829A9.71,9.71,0,0,1,46,12.964Z" transform="translate(1128.216 7615.459)" fill="#024287"/>
  </g>
</svg>
