<svg id="グループ_8213" data-name="グループ 8213" xmlns="http://www.w3.org/2000/svg" xmlns:xlink="http://www.w3.org/1999/xlink" width="220.905" height="322.974" viewBox="0 0 220.905 322.974">
  <defs>
    <clipPath id="clip-path">
      <rect id="長方形_4320" data-name="長方形 4320" width="220.905" height="322.974" fill="none"/>
    </clipPath>
  </defs>
  <g id="グループ_8212" data-name="グループ 8212" clip-path="url(#clip-path)">
    <path id="パス_7111" data-name="パス 7111" d="M385.084,640.011c1.257,3.542,5.142,8,7.655,10.512s-.685,3.885-1.828,4-16.225,1.714-16.453-.572,1.714-13.14,1.714-13.14Z" transform="translate(-194.353 -332.198)" fill="#c9dfeb"/>
    <path id="パス_7112" data-name="パス 7112" d="M315.071,641.912c0,5.484-1.714,10.969-1.257,12.683s13.482.8,14.854.8-1.714-13.482-1.714-13.482Z" transform="translate(-162.845 -333.185)" fill="#c9dfeb"/>
    <path id="パス_7113" data-name="パス 7113" d="M52.8,635.663c1.6,5.4,7,8.463,6.421,11.528s-21.45,1.751-21.3.875,2.918-13.278,2.918-13.278Z" transform="translate(-19.678 -329.488)" fill="#ffc500"/>
    <path id="パス_7114" data-name="パス 7114" d="M121.061,638.394c1.6,5.4,10.069,8.463,9.485,11.528s-24.514,1.751-24.369.875,2.918-13.278,2.918-13.278Z" transform="translate(-55.111 -330.905)" fill="#ffc500"/>
    <path id="パス_7115" data-name="パス 7115" d="M301.148,401.1c-3.5,14.446-3.064,25.828-2.626,35.9s4.247,40.415,4.247,40.415l3.194,41.884L320,518.841s-2.729-35.841-1.416-45.034,4.019-48.192,4.019-48.192a4.932,4.932,0,0,1,3.94,0l3.653,44.227c2.189,20.574,5.1,47.7,5.1,47.7l12.227.779s.622-43.738,2.214-52.448c4.815-26.341-2.185-66.527-2.185-66.527Z" transform="translate(-154.797 -207.283)" fill="#a56130"/>
    <path id="パス_7116" data-name="パス 7116" d="M51.152,400.455c-4.554,10.057-4.519,60.1-4.519,60.1l-4.862,54.081c6.231,1.7,15.295,0,15.295,0s6.548-44.849,7.089-51.161,7.5-36.077,7.5-36.077c1.262-.721,2.886-.9,3.427.361s4.326,30.343,4.326,35.392-5.769,50.989-5.769,50.989a84.294,84.294,0,0,0,16.05,2.344c5.23-14.787,8.178-51.1,8.538-53.982s-1.866-62.7-1.866-62.7c-1.082-2.7-42.8-2.857-45.206.645" transform="translate(-21.682 -206.479)" fill="#da4d0c"/>
    <path id="パス_7117" data-name="パス 7117" d="M12.2,161.165c9.872-5.014,31.373-6.265,48.273-6.467s43.708,1.609,45.431,2.549c.129,3.988,1.291,21.955,1.7,28.254a1.892,1.892,0,0,1-1.662,2.093c-14.763-.8-39.944-2.1-46.11-1.2-5.449.8-36.378,2.5-45.641,2.994-1.657.089-2.576-1.909-2.576-1.909Z" transform="translate(-6.033 -80.288)" fill="#b40019"/>
    <path id="パス_7118" data-name="パス 7118" d="M326.216,225.769a70.736,70.736,0,0,1-.988,14.957l12.417-2.539c-1.411-3.951-2.4-13.546-2.4-13.546Z" transform="translate(-168.81 -116.6)" fill="#fac3a0"/>
    <path id="パス_7119" data-name="パス 7119" d="M98.595,251.187c-.612.083-6.766.669-7.542.692-.112,1.478-.4,6.88-.925,8.74s-2.531,8.387-3.177,9.368c1.7,2.209,17.528-.007,20.277-2.735-1.725-.661-5.44-6.256-6.244-8.748s-2.26-6.36-2.389-7.318" transform="translate(-45.132 -130.379)" fill="#fac3a0"/>
    <path id="パス_7120" data-name="パス 7120" d="M97.755,207.076c3.441-2.347,3.254-9.4-.782-11.419-1.565-.783-1.511-2.167-3.363-5.24a8.721,8.721,0,0,0-14.547-.782c-2.12,3.08-5.709-.313-9.151,5.006-2.34,3.616,1.493,6.962-.313,9.463a6.6,6.6,0,0,0,2.815,9.933c3.863,1.7,2.028,4.606,5.4,5.787,4.458,1.565,5.628-1.247,8.681-1.329,2.894-.078,5.212,1.167,7.743-.626a6.3,6.3,0,0,0,2.815-5.787c-.313-1.877-.47-4.205.7-5.006" transform="translate(-35.492 -96.591)" fill="#a56d35"/>
    <path id="パス_7121" data-name="パス 7121" d="M165.517,173.3c-1.962,4.6-17.314,24.533-19.52,29-4.167,8.43-4.433,10.776-1.806,12.26,1.681.95,5.057,6.667,13.538-8.741,5.178-9.407,14.524-32.014,15.635-32.754a22.9,22.9,0,0,0,5.031-4,9.164,9.164,0,0,0,1.993-6.582c-.035-1.893-2.906-4.128-3.96-4.486-2.248-.767-4.421-.431-5.122.81-1.188,2.1-1.548-.2-3.273,1.457-1.975,1.9-.783,4.517-.982,6.331a18.7,18.7,0,0,1-1.533,6.7" transform="translate(-73.958 -81.796)" fill="#fac3a0"/>
    <path id="パス_7122" data-name="パス 7122" d="M14.876,181.187c1.962,4.6,13.426,18.862,15.633,23.326,4.167,8.43,8.32,16.447,5.694,17.932-1.681.95-4.956,8.739-13.437-6.669C17.588,206.369,8.141,181.69,7.03,180.95a22.9,22.9,0,0,1-5.031-4,9.164,9.164,0,0,1-1.993-6.582c.035-1.893,2.906-4.128,3.96-4.486,2.248-.767,4.421-.431,5.123.81,1.187,2.1,1.548-.2,3.272,1.457,1.975,1.9.783,4.517.982,6.331a18.706,18.706,0,0,0,1.533,6.7" transform="translate(0 -85.891)" fill="#fac3a0"/>
    <path id="パス_7123" data-name="パス 7123" d="M107.363,190.188c-1.739-1.476-6-2.837-7.258-3.139-1.29-.308-7.235,8.848-13.142,16.674A187.37,187.37,0,0,1,73.624,219.6c-1.352,1.346-9.076,5.474-15.749,5.474-4.787,0-11.521-1.312-14.851-5.853-.591-.806-18.046-27.265-18.831-28.05s-6.958,2.773-8.239,4.119c-.43.453,1.93,9.679,7.062,22.166s13.037,28.236,13.4,29.225c-.063,13.733.764,18.657-.651,23.149-2.578,8.181-7.526,19.722-.392,24.716,3.923,2.746,24.507-1.877,35.534,0,13.443,2.288,16.682-.535,16.447-8.043-.185-5.909-7.281-31.209-5.176-41.7,1.833-9.138,23.222-47.547,25.184-54.609" transform="translate(-8.255 -97.084)" fill="#33b7ef"/>
    <path id="パス_7124" data-name="パス 7124" d="M428.284,162.927c-1.709-4.092-1.114-9.059-1.768-10.73-.319-.814,1.275-1.1,1.849-.175s.765,2.849,1.593,2.849,4.335-5.523,5.164-6.686,2.168-1.977,2.8-1.686.127,1.453-.064,1.628c.956-.465,2.231-.465,2.231.175a2.629,2.629,0,0,1-.446,1.279c1.084-.29,1.976,0,1.785,1.047,1.211-.116.765.988.7,1.57a55.564,55.564,0,0,1-3,7.558c-.765,1.279-3.953,4.128-4.59,4.767s-1.339,1.512-1.339,1.512Z" transform="translate(-221.362 -76.01)" fill="#fac3a0"/>
    <path id="パス_7125" data-name="パス 7125" d="M202.009,264.3c-2.087-2.539-4.042-7.907.417-11.132,4.593-3.32,8.35-2.734,10.02,0s2.923,3.906.627,6.054-10.046,6.316-11.064,5.077" transform="translate(-103.67 -130.229)" fill="#fac3a0"/>
    <path id="パス_7126" data-name="パス 7126" d="M231.662,279.295c-2.735.152-15.681-7.656-17.572-16.83-.569-2.761-11.494,4.1-9.81,7.512,1.566,3.17,16.257,19.673,24.383,21.633,7.192,1.734,18.068-5.941,22.427-9.055,2.458-1.756-2.507-14.132-7.066-11.852-5.838,2.919-7.235,8.308-12.361,8.593" transform="translate(-105.94 -135.901)" fill="#fac3a0"/>
    <path id="パス_7127" data-name="パス 7127" d="M331.841,185.969c.486-3.22-2.987-7.808-6.443-9.47s-5.467-3.862-10.976-1.943c-4.51-.033-6.226,3.225-7.832,4.921s-4.135,6.6-3.562,9.814.325,8.91,8.3,13.449c2.449,1.393,2.4,2.372,7.131,2,5.374-.428,4.166-2.334,7.535-4.231,5.445-3.067,5.36-11.315,5.846-14.535" transform="translate(-157.244 -90.217)" fill="#844d26"/>
    <path id="パス_7128" data-name="パス 7128" d="M347.8,180.583c-1.975-1.975-3.8-1.045-8.607-4.938a111.079,111.079,0,0,1-11.852,18.343c-4.139,5.189-7.747,6.653-9.541,8.245-2.865,2.543-14.978,6.423-19.977,6.579-2.4.075-13.532,3.484-20.714,8.74-4.194,3.069-4.917,5.861-9.172,8.748-2.642,1.793-11.928,3.973-10.865,7.619.8,2.739,11.641,12.279,15.161,10.056,2.887-1.823,5.014-3.647,6.078-2.887,1.855,1.325.152,17.931-.911,23.705-.806,4.376-5.935,18.935-3.191,22.946,3.213,4.7,15.332,1.4,18.986,1.351,10.789-.152,18.593,2.724,28.926,2.116,6.665-.392,9.146-5.02,6.4-11.432-3.081-7.188-3.359-22.9-4.581-32.065-.812-6.089-1.239-11.765,1.145-18.857.839-2.5,6.316-10.417,11.712-21.036,5.573-10.967,10.222-25.752,11.006-27.233" transform="translate(-133.39 -91.169)" fill="#00942c"/>
    <path id="パス_7129" data-name="パス 7129" d="M217.871,270.092c-5.08-.423-10.3,5.926-10.583,7.478,10.018,12.7,17.5,18.2,22.576,19.472s16.572-4.054,16.572-4.054l-10.5-13.725c-9.877.141-18.061-9.172-18.061-9.172" transform="translate(-107.593 -140.181)" fill="#00942c"/>
    <path id="パス_7130" data-name="パス 7130" d="M54.8,243.375a40.6,40.6,0,0,1-12.881-14.169L26.029,240.37l12.022,28.338c.859,8.587-.429,27.049-1.717,35.207s-3.005,10.734-.858,15.457,16.745,10.734,26.191,11.163,31.343-8.158,32.631-15.887S90.433,294.04,90,285.023s-1.288-18.033-1.288-18.033l9.875-21.9-10.3-17.6S77.552,239.082,72.4,243.8c-1.7,1.562-13.31,3.435-17.6-.43" transform="translate(-13.51 -118.078)" fill="#d7e9f3"/>
    <path id="パス_7131" data-name="パス 7131" d="M25.073,242.153a.886.886,0,0,1-.51-1.612l15.886-11.163a.886.886,0,1,1,1.019,1.45L25.582,241.992a.88.88,0,0,1-.509.161" transform="translate(-12.554 -118.976)" fill="#001a3b"/>
    <path id="パス_7132" data-name="パス 7132" d="M27.751,248.4a.886.886,0,0,1-.51-1.612l15.886-11.163a.886.886,0,0,1,1.019,1.451L28.26,248.241a.88.88,0,0,1-.509.161" transform="translate(-13.944 -122.219)" fill="#0060b3"/>
    <path id="パス_7133" data-name="パス 7133" d="M164.825,245.021a.886.886,0,0,1-.766-.439l-10.3-17.6a.886.886,0,0,1,1.53-.9l10.3,17.6a.886.886,0,0,1-.764,1.334" transform="translate(-79.744 -117.121)" fill="#001a3b"/>
    <path id="パス_7134" data-name="パス 7134" d="M160.361,250.378a.886.886,0,0,1-.766-.439l-10.3-17.6a.886.886,0,0,1,1.53-.9l10.3,17.6a.886.886,0,0,1-.764,1.334" transform="translate(-77.427 -119.902)" fill="#0060b3"/>
    <path id="パス_7135" data-name="パス 7135" d="M29.184,71.422a2.043,2.043,0,0,1-1.725-.944C27.348,70.3,16.2,52.961,5.252,44.012A2.045,2.045,0,1,1,7.84,40.846c11.461,9.366,22.6,26.7,23.065,27.43a2.045,2.045,0,0,1-1.721,3.146" transform="translate(-2.336 -20.961)" fill="#d65a63"/>
    <path id="パス_7136" data-name="パス 7136" d="M156.515,40.47a2.045,2.045,0,0,1-2.024-1.775l-4.851-36.38a2.045,2.045,0,1,1,4.054-.54l4.851,36.38a2.045,2.045,0,0,1-1.757,2.3,2.1,2.1,0,0,1-.273.018" transform="translate(-77.661 0)" fill="#ffd900"/>
    <path id="パス_7137" data-name="パス 7137" d="M292.867,45.64a2.047,2.047,0,0,1-2.024-2.356c.016-.106,1.691-10.852,7.039-33.309a2.045,2.045,0,1,1,3.978.947c-5.3,22.266-6.959,32.879-6.975,32.984a2.045,2.045,0,0,1-2.018,1.733" transform="translate(-150.95 -4.362)" fill="#0092e5"/>
    <path id="パス_7138" data-name="パス 7138" d="M402.963,83.376a2.045,2.045,0,0,1-1.745-3.108c.469-.77,11.627-18.993,23.5-29.049a2.045,2.045,0,0,1,2.644,3.12C416,63.963,404.823,82.211,404.711,82.394a2.044,2.044,0,0,1-1.749.982" transform="translate(-208.098 -26.333)" fill="#399d26"/>
  </g>
</svg>
