<svg xmlns="http://www.w3.org/2000/svg" xmlns:xlink="http://www.w3.org/1999/xlink" width="78.757" height="237.59" viewBox="0 0 78.757 237.59">
  <defs>
    <clipPath id="clip-path">
      <rect id="長方形_4333" data-name="長方形 4333" width="78.757" height="237.59" fill="none"/>
    </clipPath>
  </defs>
  <g id="グループ_8266" data-name="グループ 8266" transform="translate(0)">
    <g id="グループ_8265" data-name="グループ 8265" transform="translate(0)" clip-path="url(#clip-path)">
      <path id="パス_7427" data-name="パス 7427" d="M75.843,424.578c0,3.226-2.3,6.821-4.332,7.743s-10.877,1.752-11.061,4.7,1.693,3.95,1.693,3.95,18.494.475,21.167.106c1.337-.185,2.861-.308,4.052-.386s2.011-2.182,2.011-2.182l-.255-15.131Z" transform="translate(-29.813 -208.851)" fill="#001a3b"/>
      <path id="パス_7428" data-name="パス 7428" d="M37.727,424.428c.369,2.028.369,5.715-.369,6.913s-2.354,4.869-5.34,5.518a6.171,6.171,0,0,0-4.674,7.011c.294,1.915,9.815,1.114,13.5,1.3s15.777-8.389,15.132-10.878-5.807-13.458-5.807-13.458Z" transform="translate(-13.451 -207.594)" fill="#001a3b"/>
      <path id="パス_7429" data-name="パス 7429" d="M36.807,223.856a99.2,99.2,0,0,1-4.259,14.48c-.838,2.595-11.073,36.625-11.5,43.865s11.924,46.845,11.924,46.845l16.609-3.407s-9.8-40.457-9.8-44.29,16.609-34.5,16.609-34.5c-.852,21.293-2.729,35.365-2.129,45.568.426,7.24-.449,35.081-.449,35.081s15.568,3.938,16.705-.3c2.7-10.058,2.057-36.915,3.334-45.432S83.779,241.03,78.967,223Z" transform="translate(-10.378 -110.006)" fill="#676166"/>
      <path id="パス_7430" data-name="パス 7430" d="M76.328,57.678a28.652,28.652,0,0,1,.331,9.922s8.268.662,11.08-.5a56.854,56.854,0,0,1-1.158-11.245Z" transform="translate(-37.652 -27.555)" fill="#fac3a0"/>
      <path id="パス_7431" data-name="パス 7431" d="M7.956,57.985c-1.258,2.442.417,9.558-.4,10.913A79.57,79.57,0,0,0,2.208,81.076c-2.523,7.8-1.543,17.5.8,18.817,6.425,3.6,13.309.343,18.649-3.566,2.058-1.505-4.082-11.694-5.8-11.006-.589.236-3.706,2.745-5.162,1.606-1.024-.8-.355-3.359.291-7.362a75.4,75.4,0,0,1,1.946-7.324,3.57,3.57,0,0,1,.875-2.13c1.056-1,2.117-5.949,2.2-7.64.048-.961,2.1-6.679,2.664-8.7.308-1.113-.818-1.761-2.435-1.33-.569.152-.829-1.482-2.059-.612-3.245,2.3-4.967,3.719-6.224,6.162" transform="translate(-0.357 -25.437)" fill="#fac3a0"/>
      <path id="パス_7432" data-name="パス 7432" d="M37.023,76.259c-1.78-.76-6.052,1.183-8.318,3.982S12.216,96.765,12.216,96.765l3.142-13.726-9.426-2.15c-6.449,14.718-8.1,27.948-2.646,32.413s25.3-10.088,28.114-12.072,21.5-18.191,5.623-24.971" transform="translate(0 -37.536)" fill="#e3556e"/>
      <path id="パス_7433" data-name="パス 7433" d="M47.182,98.12c-.747,6.913-.5,15.545-.5,19.018s-4.8,33.736-4.63,37.374,21,5.127,26.956,5.292,20.506-2.48,21.333-4.961S87.2,136.817,87.7,132.683s1.323-24.475,3.307-30.429S92,83.732,86.376,79.432A33.143,33.143,0,0,0,74.634,73.81c-7.441,2.315-16.868,1.323-16.868,1.323C50.986,80.755,47.844,92,47.182,98.12" transform="translate(-20.744 -36.41)" fill="#e3556e"/>
      <path id="パス_7434" data-name="パス 7434" d="M133.326,98.614c7.111,11.741,11.741,22.16,10.418,28.941s-5.13,9.7-9.922,6.78c-3.332-2.032-.5-35.721-.5-35.721" transform="translate(-65.214 -48.646)" fill="#e3556e"/>
      <path id="パス_7435" data-name="パス 7435" d="M78,6.158a12.121,12.121,0,0,0-15.883,4.876c-1.438,2.8.038,7.456-3.072,9.691-.363.26-.271,3.212.572,7.466a9.54,9.54,0,0,0,5.607,6.329,12.869,12.869,0,0,0,8.571-.236c2.083-.885,9.056-8.378,9.926-11.223C85.049,18.71,86.8,10.124,78,6.158" transform="translate(-29.026 -2.413)" fill="#fac3a0"/>
      <path id="パス_7436" data-name="パス 7436" d="M84.14.013c2.092.091,6.892,1.493,9.35,3.981C98.2,8.765,98,16.294,97.058,20.507a18.285,18.285,0,0,1-6.544,10.608c-2.151,1.749-6.241,2.21-8.909,2.3-4.155.141-8.469-1.234-9.78-6.685-1.15-4.782,2.24-4.537,1.764-6.823-.385-1.85-.9-1.68-1.884-1.154s-.724-3.321-.86-5.416c-.173-2.662-2.012-6.412-.984-8.857S79.512-.189,84.14.013" transform="translate(-34.308 0)" fill="#844d26"/>
      <path id="パス_7437" data-name="パス 7437" d="M71.564,3.64c-6.78,0-11.08,3.8-11.245,6.284s.661,9.592,8.764,10.253c.166-.165,2.481-16.537,2.481-16.537" transform="translate(-29.746 -1.796)" fill="#844d26"/>
      <path id="パス_7438" data-name="パス 7438" d="M111.412,48.309c6.849-4.343,10.181,2.394,9.85,8.182s1.541,16.948,4.512,20.689c-6.284,2.811-12.436-.22-14.2-4.892-.94-2.5-6.945-19.679-.165-23.979" transform="translate(-53.387 -23.147)" fill="#844d26"/>
    </g>
  </g>
</svg>
