<svg id="グループ_8215" data-name="グループ 8215" xmlns="http://www.w3.org/2000/svg" xmlns:xlink="http://www.w3.org/1999/xlink" width="210.942" height="335.072" viewBox="0 0 210.942 335.072">
  <defs>
    <clipPath id="clip-path">
      <rect id="長方形_4321" data-name="長方形 4321" width="210.942" height="335.072" fill="none"/>
    </clipPath>
  </defs>
  <g id="グループ_8214" data-name="グループ 8214" clip-path="url(#clip-path)">
    <path id="パス_7139" data-name="パス 7139" d="M387.924,140.3a22.567,22.567,0,0,1-4.037-9.337c-.485-2.54,1.291-2.092,1.7-1.345s1.7,2.614,1.7,2.614c.482-1.541,1.5-3.784,2.341-5.826.711-1.72.808-2.539,1.373-3.884s2.26-1.494,2.18-.15-1.373,6.648-1.373,6.648c.552-1.35,1.237-2.819,1.938-4.258.734-1.508.807-3.062,1.938-2.838s.517,1.2.242,2.689a40.591,40.591,0,0,1-1.453,5.154c.477-1.2,1.224-2.338,1.777-3.585.757-1.712.726-3.361,1.776-3.137s.528,1.438.323,2.839a32.926,32.926,0,0,1-1.13,4.332c.888-1.046,1.7-4.482,2.5-4.631s1.024.6.727,1.643a39.528,39.528,0,0,0-1.211,4.557c-.154,1.066-.656,2.57-.727,3.063-.162,1.12-.888,4.631-1.776,5.826Z" transform="translate(-199.214 -63.033)" fill="#fac3a0"/>
    <path id="パス_7140" data-name="パス 7140" d="M274.468,148.052a22.564,22.564,0,0,0,.145-10.171c-.527-2.531-2-1.436-2.082-.591s-.563,3.065-.563,3.065c-1.036-1.238-2.834-2.919-4.4-4.482-1.317-1.316-1.72-2.036-2.758-3.06s-2.661-.512-2.07.7,3.818,5.612,3.818,5.612c-1.028-1.035-2.223-2.128-3.423-3.188-1.257-1.111-1.921-2.518-2.878-1.878s-.017,1.307.808,2.576a40.658,40.658,0,0,0,3.32,4.2c-.9-.922-2.028-1.689-3.016-2.629-1.356-1.29-1.961-2.825-2.844-2.215s.064,1.53.791,2.745a32.988,32.988,0,0,0,2.706,3.567c-1.222-.625-3.285-3.488-4.088-3.317s-.716.949-.041,1.8a39.651,39.651,0,0,1,2.867,3.743c.551.925,1.591,2.121,1.846,2.549.579.973,2.6,3.936,3.876,4.7Z" transform="translate(-133.584 -68.652)" fill="#fac3a0"/>
    <path id="パス_7141" data-name="パス 7141" d="M209.66,201.6c-1.111-4.293.184-9.126-.227-10.873-.2-.851,1.419-.912,1.855.09s.353,2.928,1.173,3.046,5.075-4.851,6.061-5.885,2.426-1.649,3.016-1.27-.08,1.457-.294,1.6c1.012-.325,2.274-.143,2.184.49a2.623,2.623,0,0,1-.623,1.2c1.114-.134,1.957.281,1.618,1.289,1.216.057.617,1.087.471,1.654A55.486,55.486,0,0,1,220.855,200c-.939,1.158-4.5,3.525-5.221,4.067s-1.54,1.306-1.54,1.306Z" transform="translate(-108.584 -96.852)" fill="#fac3a0"/>
    <path id="パス_7142" data-name="パス 7142" d="M74.314,191.631c1.111-4.293-.184-9.126.227-10.873.2-.851-1.419-.912-1.855.09s-.353,2.928-1.173,3.046-5.075-4.851-6.061-5.885-2.426-1.649-3.016-1.27.08,1.457.294,1.6c-1.012-.325-2.274-.143-2.184.49a2.623,2.623,0,0,0,.623,1.2c-1.114-.134-1.957.281-1.618,1.289-1.216.057-.617,1.087-.471,1.654a55.479,55.479,0,0,0,4.039,7.056c.939,1.158,4.5,3.525,5.221,4.067s1.54,1.306,1.54,1.306Z" transform="translate(-30.522 -91.678)" fill="#fac3a0"/>
    <path id="パス_7143" data-name="パス 7143" d="M341.648,251.531c.471,5.178-.588,8.473-.235,8.355s13.416-.707,13.416-.707c-1.648-5.06-2.707-8.944-2.707-8.944Z" transform="translate(-177.173 -129.885)" fill="#fac3a0"/>
    <path id="パス_7144" data-name="パス 7144" d="M383.245,635.17c-.027-1.65-7.3.768-10.158,1.288-1.858.338-2.336,1.1-1.733,5.3s1.8,7.122-1.055,10.179-7.357,6.144-6.27,9.761c.7,2.315,2.72,3.54,7.757,2.232a36.706,36.706,0,0,0,10.087-4.19c2.234-1.335,4.953-3.987,4.1-7.115s-1.468-3.906-1.891-6.934-.825-9.613-.84-10.518" transform="translate(-188.864 -329.391)" fill="#844d26"/>
    <path id="パス_7145" data-name="パス 7145" d="M296.883,636.688c.237-1.633-7.328-.407-10.233-.351-1.888.036-2.481.714-2.558,4.953s.637,7.319-2.666,9.88-8.244,4.889-7.749,8.634c.317,2.4,2.119,3.929,7.3,3.442a36.7,36.7,0,0,0,10.627-2.524c2.419-.961,5.527-3.145,5.187-6.368s-.825-4.09-.759-7.147.721-9.622.851-10.518" transform="translate(-142.035 -330.035)" fill="#844d26"/>
    <path id="パス_7146" data-name="パス 7146" d="M293.985,395.392c-4.673,20.393-8.5,75.2-8.5,75.2.425,5.523,3.824,53.106,3.824,53.106,9.347,5.1,14.274-.9,14.274-.9l3.57-55.184L318.544,428.2l.907,47.32c.026,7.39,8.605,46.617,11.071,47.751s11.047,1.275,14.487-2.549l-5.99-52.257s5.1-52.257,1.275-65.852Z" transform="translate(-148.183 -205.229)" fill="#33b7ef"/>
    <path id="パス_7147" data-name="パス 7147" d="M381.351,159.18c3.073-1.132,9.867,0,11.161,1.617l-.809,18.6s-1.294,26.042-2.911,33.644c-.809,4.691-6.976,9.059-10.7,6.794s-4.994-7.441-3.215-17.146,3.882-22,3.882-22Z" transform="translate(-194.171 -82.385)" fill="#ffc500"/>
    <path id="パス_7148" data-name="パス 7148" d="M371.46,220.735c8.337-.878,19.745,5.7,19.745,5.7l-3.51,25.889-18.31-8.5Z" transform="translate(-191.73 -114.531)" fill="#d7e9f3"/>
    <path id="パス_7149" data-name="パス 7149" d="M392.488,226.368a.878.878,0,0,1-.442-.119c-.112-.064-11.26-6.428-19.211-5.591a.886.886,0,0,1-.186-1.762c8.527-.9,19.805,5.543,20.282,5.818a.886.886,0,0,1-.444,1.653" transform="translate(-193.013 -113.573)" fill="#001a3b"/>
    <path id="パス_7150" data-name="パス 7150" d="M391.7,232.639a.877.877,0,0,1-.442-.119c-.112-.064-11.26-6.429-19.21-5.591a.886.886,0,1,1-.186-1.762c8.525-.9,19.805,5.543,20.281,5.818a.886.886,0,0,1-.444,1.654" transform="translate(-192.606 -116.828)" fill="#0060b3"/>
    <path id="パス_7151" data-name="パス 7151" d="M147.123,574.842c2.568.059,3.513-1.719,4.028-6.829.2-2.02.747-41.952.716-43.855-.082-4.921,5.125-28-5.575-27.991-9.332.009-7.589,15.656-7.626,27.8-.019,6.132,1.67,41.658,2,44.016.634,4.483,1.214,6.737,6.454,6.856" transform="translate(-71.919 -257.536)" fill="#fac3a0"/>
    <path id="パス_7152" data-name="パス 7152" d="M74.427,396.561c-2.024,7.285-8.5,44.924-10.118,57.875s-.4,19.426-.4,19.426,20.641-1.214,28.735-1.214,31.568-9.309,31.568-9.309-7.689-32.378-7.285-38.044,1.1-20.727-3.3-27.564Z" transform="translate(-32.943 -205.835)" fill="#33b7ef"/>
    <path id="パス_7153" data-name="パス 7153" d="M181.418,213.241c1.376,0,7.743,3.269,7.915,5.679l-17.207,43.019-16.175-7.227s15.831-24.951,18.412-28.909,7.055-12.561,7.055-12.561" transform="translate(-80.947 -110.683)" fill="#e3556e"/>
    <path id="パス_7154" data-name="パス 7154" d="M341.507,222.931c-3.588,2.956-7.682,3.572-10.543,2.531s-5.535-2.3-7.4-4.806a11.723,11.723,0,0,1-1.466-7.328,12.41,12.41,0,0,1,1-3.441c1.3-2.56,1.934-5.914,3.294-7.9,1.045-1.529,7.482-7.666,15.349-5.279,6.915,2.1,7.279,20.04-.232,26.228" transform="translate(-167.122 -101.816)" fill="#fac3a0"/>
    <path id="パス_7155" data-name="パス 7155" d="M332.22,197.046c-2.36-.037-2.607,1.9-2.96.171-.835-4.076,6.632-9.239,8.856-8.827,1.97.364,4.776-3.93,12.672.745,1.955,1.158,5.37,3.015,6.519,6.846,1.939,6.465,4.175,11.677-.253,18.218-2.083,3.077-5.946,6.2-10.765,6.382s-6.084-2.76-7.865-6.87.1-10.313-2.356-11.7c-5.155-2.915-2.519-5.15-3.847-4.963" transform="translate(-170.869 -97.03)" fill="#a56d35"/>
    <path id="パス_7156" data-name="パス 7156" d="M145.218,595.058c-.022-1.6-3.67-2.369-8.656-2.428-3.144-.037-6.071.623-6.071,2.49,0,1.1.155,32.478.155,33.1,0,1.324-3.775.437-5.448.779-3.813.778-6.207,5.278-1.475,8.236,2.493,1.558,8.556,4.028,11.679,4.356,2.922.307,4.736.769,6.814-1.109,2.285-2.066.649-6.916.728-9.071.059-1.611,2.352-30.67,2.274-36.351" transform="translate(-62.857 -307.604)" fill="#844d26"/>
    <path id="パス_7157" data-name="パス 7157" d="M101.063,280.354c.684-.82,3.848,2.209,7.915,3.786a16.691,16.691,0,0,0,8.4.771c2.671-.964,3.233-4.758,5.8-4.695,3.144.077,8.87,2.861,10.83,3.9,3.267,1.735,1.076,4.251.32,6.43-2.313,6.662-4.663,11.441-4.441,15.267.366,6.3-8.306,12.913-7.694,24.212a19.735,19.735,0,0,0,3.269,9.807c2.65,4.668-3.892,9.651-10.741,6.382-10.951-5.227-17.568.591-31.911-4.514-9.184-3.269,2.709-21.441,4.886-28.245.267-.836,3.331-10.36,4.194-13.2.7-2.318,6.3-16.468,9.169-19.9" transform="translate(-41.201 -145.446)" fill="#e3556e"/>
    <path id="パス_7158" data-name="パス 7158" d="M98.77,519.739c-1.994.374-10.635,2.526-12.464,3.051-4.73,1.358-20.132,6.6-18.784,14.467s14.711,4.089,16.311,3.509c5.764-2.092,13.051-9.425,15.242-10.361a55.046,55.046,0,0,1,9.6-3.352c4.291-.643-5.352-8.168-9.9-7.314" transform="translate(-35.004 -269.736)" fill="#fac3a0"/>
    <path id="パス_7159" data-name="パス 7159" d="M154.5,248.786c3.519-7.95,3.8-10.147-2.57-15s-12.02-.957-13.853.8c-1.981,1.9-.515,5.212-3.619,6.616-.624.265-.743,1.617-.838,1.893-1.307,3.8-.612,5.138-.463,6.244a8.634,8.634,0,0,0,3.32,5.355c1.627,1.31,5.938,1.8,7.9,1.451,1.851-.326,8.016-2.607,10.118-7.355" transform="translate(-68.949 -120.127)" fill="#fac3a0"/>
    <path id="パス_7160" data-name="パス 7160" d="M148.335,244.049c-1.5,1.134-4.888,7.49-2.277,11.161,4.159,5.846,8.133,6.379,7.967,11.115-.3,8.592,4.777,12.633,8.474,12.01,8.146-1.372,6.177-5.215,13.052-6.521,8.013-1.521,11.681-8.609,8.473-14.319-4.286-7.628-10.412.969-16.027-9.124-3.007-5.406.742-7.991-.048-13.681-.585-4.217-1.9-8.26-4.935-9.781-4.708-2.361-15.611-4.047-20.93,3.585-2.667,3.826,5.987,5.564,5.773,8.938-.107,1.687,2.026,1.376,2.611,2.278.791,1.218.139,2.62-2.133,4.34" transform="translate(-73.484 -115.707)" fill="#844d26"/>
    <path id="パス_7161" data-name="パス 7161" d="M93.621,516.187c-1.54.436-2.4,2.25-1.162,7.081.779,3.047,2.191,11.615,4,11.132,1.057-.284,25.142-13.192,25.741-13.353,1.278-.343,3.041,3.327,3.8,4.854,1.741,3.482,5.25,6.147,6.88.809a46.36,46.36,0,0,0,1-13.722c-.46-2.9-.484-4.774-2.837-6.293-2.588-1.671-6.848,1.165-8.95,1.648-1.572.361-23,6.3-28.469,7.845" transform="translate(-47.685 -262.729)" fill="#844d26"/>
    <path id="パス_7162" data-name="パス 7162" d="M84.974,203.014c-8.326.925-11.1,6.476-11.1,6.476.694,9.713,3.006,27.984,5.55,34.922s11.1,24.514,11.1,24.514l13.863-25.361c-8.767-7.809-11.551-16.5-12.938-20.2s-6.475-20.352-6.475-20.352" transform="translate(-38.344 -105.375)" fill="#e3556e"/>
    <path id="パス_7163" data-name="パス 7163" d="M305.736,258.275c2.81-.956,6.284,1.047,10.514,1.456,7.942.768,16.822.971,16.822.971s11.97-.647,13.426,5.338-2.475,33.486-2.637,37.368,3.332,31.807,1.818,37.866-27.8,2.021-42.153-.067c-7.135-1.038-10.75-2.66-10.253-6.295s4.861-38.139,4.861-38.139-2.426-21.513-1.779-27.983,9.381-10.514,9.381-10.514" transform="translate(-152.2 -133.925)" fill="#ffc500"/>
    <path id="パス_7164" data-name="パス 7164" d="M345.111,177.859c-1.654-1.93-5.257-5.019-9-4.841a5.878,5.878,0,0,0-5.89,5.533c-.178,2.677,2.855,8.388,2.855,8.388-.178,13.028,7.279,19.329,11.787,21.826,11.544,6.395,16.218-.736,18.958-5.921s.314-14.695-2.443-18.922-9.556-10.016-16.264-6.065" transform="translate(-171.396 -89.801)" fill="#001a3b"/>
    <path id="パス_7165" data-name="パス 7165" d="M272.713,166.963a17.9,17.9,0,0,1,11.232-3.918l7.862,27.821s11.1,17.692,13.524,21.412,2.312,17.052-5.452,17.375-10.833-.968-13.583-6.791-8.353-32.163-8.353-32.163Z" transform="translate(-141.552 -84.626)" fill="#ffc500"/>
    <path id="パス_7166" data-name="パス 7166" d="M297.245,223.49a52.477,52.477,0,0,0-18.429,2.633l7.02,28.521c0,40.808-.878,37.3-.878,44.757s-2.633,21.939-2.633,21.939c10.531,9.654,34.226,12.725,43,10.97S342.44,323.1,342.44,323.1s-3.51-35.1-3.071-46.951,1.316-22.378,1.316-22.378c1.316-14.041-15.8-12.725-15.8-12.725-2.194,3.51-11.409,1.755-18.868-1.755-1.316-2.194-8.776-15.8-8.776-15.8" transform="translate(-144.72 -115.969)" fill="#d7e9f3"/>
    <path id="パス_7167" data-name="パス 7167" d="M277.859,226.052a.886.886,0,0,1-.3-1.72,52.882,52.882,0,0,1,18.78-2.684.886.886,0,1,1-.1,1.769A51.853,51.853,0,0,0,278.159,226a.889.889,0,0,1-.3.052" transform="translate(-143.763 -115.012)" fill="#001a3b"/>
    <path id="パス_7168" data-name="パス 7168" d="M278.707,232.763a.886.886,0,0,1-.34-1.7c.4-.164,9.806-4.013,19.492-3.459a.886.886,0,0,1-.1,1.769c-9.266-.534-18.618,3.288-18.712,3.327a.877.877,0,0,1-.339.068" transform="translate(-144.203 -118.107)" fill="#0060b3"/>
    <path id="パス_7169" data-name="パス 7169" d="M341.547,229.51a3.134,3.134,0,0,1,5.479.685,5.433,5.433,0,0,1-4.383,6.987" transform="translate(-177.28 -118.444)" fill="#fac3a0"/>
    <path id="パス_7170" data-name="パス 7170" d="M26.4,88.266a2.042,2.042,0,0,1-1.649-.833C24.63,87.267,12.371,70.692.858,62.48a2.045,2.045,0,1,1,2.375-3.33c12.05,8.6,24.3,25.158,24.814,25.859A2.045,2.045,0,0,1,26.4,88.266" transform="translate(0 -30.505)" fill="#d65a63"/>
    <path id="パス_7171" data-name="パス 7171" d="M134.277,43.925a2.045,2.045,0,0,1-1.913-1.323L119.971,9.793A2.045,2.045,0,0,1,123.8,8.347L136.19,41.157a2.046,2.046,0,0,1-1.913,2.768" transform="translate(-62.202 -3.646)" fill="#ffd900"/>
    <path id="パス_7172" data-name="パス 7172" d="M266.8,42.624a2.019,2.019,0,0,1-.392-.038,2.045,2.045,0,0,1-1.618-2.4c.03-.156,3.067-15.835,6.912-38.486a2.045,2.045,0,0,1,4.032.685c-3.853,22.7-6.9,38.424-6.929,38.581a2.045,2.045,0,0,1-2.005,1.655" transform="translate(-137.421 0)" fill="#0092e5"/>
    <path id="パス_7173" data-name="パス 7173" d="M373.541,73.132a2.045,2.045,0,0,1-1.666-3.229c.5-.7,12.4-17.334,28.675-28.724a2.045,2.045,0,1,1,2.346,3.35C387.219,55.5,375.328,72.1,375.21,72.272a2.044,2.044,0,0,1-1.669.86" transform="translate(-192.826 -21.182)" fill="#399d26"/>
  </g>
</svg>
