<svg xmlns="http://www.w3.org/2000/svg" xmlns:xlink="http://www.w3.org/1999/xlink" width="193.345" height="373.99" viewBox="0 0 193.345 373.99">
  <defs>
    <clipPath id="clip-path">
      <rect id="長方形_4328" data-name="長方形 4328" width="123.583" height="284.89" fill="none"/>
    </clipPath>
    <clipPath id="clip-path-2">
      <rect id="長方形_4329" data-name="長方形 4329" width="126.319" height="267.72" fill="none"/>
    </clipPath>
  </defs>
  <g id="グループ_8410" data-name="グループ 8410" transform="translate(-1449 -2533.27)">
    <g id="グループ_8256" data-name="グループ 8256" transform="translate(1518.762 2533.27)">
      <g id="グループ_8256-2" data-name="グループ 8256" clip-path="url(#clip-path)">
        <path id="パス_7332" data-name="パス 7332" d="M15.054,22.127c-.305-1.34-.757-2.577-.475-3.088.666-1.207,3.117-4.382,3.047-6.376-.107-3.047-2.015-3.807-2.725-3.891-1.065-.127-.837-1.987-2.264-3.77a2.353,2.353,0,0,0-3.7-.219C8.1,5.548,6.7,3.835,5.132,5.6c-1.1,1.243-2.181.286-3.241,1.552C1.03,8.183,1.576,9.442.9,9.864c-.842.53-1.24,2.478-.554,4.063,1.045,2.418,2.565,5.422,4.83,7.172,1.025.792,1.283,2.994,1.506,4.668" transform="translate(0 -1.724)" fill="#fac3a0"/>
        <path id="パス_7333" data-name="パス 7333" d="M165.281,456.012c-.481-1.321-2.384-13.708-2.68-15.446-.937-5.494-12.2-11.418-12.574-.519s1.284,14.655-2.9,18.073c-.053.043-12.862,9.332-9.216,12.439,3.709,3.161,10.47,1.681,16.117-1.4s14.288-4.814,11.254-13.142" transform="translate(-59.285 -187.428)" fill="#001a3b"/>
        <path id="パス_7334" data-name="パス 7334" d="M71.971,441.792c-.341-1.363-.946-13.881-1.06-15.641-.361-5.562-10.951-12.624-12.453-1.823S58.212,439.035,53.7,442c-.057.038-13.763,7.944-10.459,11.413,3.36,3.529,10.238,2.76,16.176.279s14.711-3.3,12.558-11.9" transform="translate(-18.453 -180.843)" fill="#001a3b"/>
        <path id="パス_7335" data-name="パス 7335" d="M55.12,272.6c.959-16.16,3-59.109,7.658-79.68,2.245-8.143,10.173-11.751,30.484-8.959,3.614.219,18.086-2.5,20.536,9.6,4.437,21.912,5.454,43.43,4.173,53.617-1.872,14.894,1.362,33.894,4.274,46.565,2.184,9.505,9.784,41.791,11.069,50.011,1.113,7.128-19.271,8.676-21.319,2.826-1.555-4.441-13.2-39.61-16.65-49.772-3.863-11.365-7.281-45.629-10.3-47.829-2.551-1.856-6.874,30-6.8,35.946.075,6.423,1.449,38.89,1.706,49.935.2,8.639-1.741,5.223-10.988,4.709-5.921-.329-8.713,1.4-9.942-2.617s-.893-13.771-1.753-20.92c-1.612-13.4-2.409-38.92-2.14-43.437" transform="translate(-23.786 -79.054)" fill="#ffc500"/>
        <path id="パス_7336" data-name="パス 7336" d="M168.6,51.163c4.312-1.738,11.272-3.168,12.181-7.172.4-1.747,1.7-19.956,1.88-24.994-.06-1.373.049-2.686-.357-3.1-.962-.988-4.164-3.4-4.624-5.344-.7-2.967.937-4.2,1.6-4.472.995-.4.283-2.138,1.188-4.234A2.353,2.353,0,0,1,183.971.654c1.016.515,1.913-1.507,3.891-.214,1.388.908,2.18-.3,3.536.64,1.1.763.907,2.121,1.667,2.35.952.289,1.85,2.063,1.608,3.773-.369,2.609-1.041,5.907-2.764,8.193-.779,1.034-.447,3.227-.219,4.9.223,1.635.988,6.764,1.5,13.09.3,3.657.532,13.486.693,16.656.282,5.555-3.894,8.552-10.659,12.032a66.092,66.092,0,0,1-13.677,4.91c-1.5.471-6.948-13.4-.951-15.821" transform="translate(-71.633 0)" fill="#fac3a0"/>
        <path id="パス_7337" data-name="パス 7337" d="M107.672,60.176c.006-1.155-9.985-1.381-9.932-.086.029.707,1.8,4.508-.237,6.336-1.595,1.43-5.431,4.3-5.928,7.705C90.741,79.864,89.09,86.82,102.714,87.2c8.265.233,15.181-10.881,11.3-14.292-1.007-.886-4.706-3.765-5.834-5.373-1.246-1.779-.516-6.9-.514-7.363" transform="translate(-39.321 -25.574)" fill="#fac3a0"/>
        <path id="パス_7338" data-name="パス 7338" d="M111.978,45.493c-5.488,3.052-9.1,4.316-12.257,3-2.039-.649-4.274-2.888-6.214-5.961-3.167-5.016-1.774-12.211-1.2-13.342,1.616-3.2-.339-3.942,4.534-9.71,1.48-1.751,3.86-5.876,12.582-2.839,7.667,2.67,19.84,18.976,2.558,28.854" transform="translate(-39.523 -6.718)" fill="#fac3a0"/>
        <path id="パス_7339" data-name="パス 7339" d="M94.4,21.94c-1.98.347-2.254-.55-2.569-2.483C91,14.3,94.276,6.809,99.432,6.57c5.1-.237,9.279-3.022,16.076-.854,8.861,2.826,16.31,21.448,8.776,26.585-4.274,2.914-10.36,10.36-13.319,9.458-1.486-.453-.359-4.422,1.589-4.578a2.343,2.343,0,0,0,1.349-4.3,16.039,16.039,0,0,1-5.544-4.088c-4.452-4.88-3.41-11.019-5.736-10.873-1.37.086-4.795,3.425-8.219,4.024" transform="translate(-39.609 -2.114)" fill="#00408b"/>
        <path id="パス_7340" data-name="パス 7340" d="M125.529,29.348a29.014,29.014,0,0,0-12.535-.243s-1.217,24.339-2.19,26.043S87.316,57.7,86.464,57.7c-4.016-2.069-10.831-2.19-12.656-1.46-3.773,2.069-13.349,1.436-15.376-1.96-3.731-.84-12.493-.353-15.657.5s-16.429,1.1-16.429,1.1L20.5,30.078c-3.529-.73-11.6,1.8-12.942,3.625,0,0,5.58,32.054,7.162,34.854s26.259,10.5,26.259,10.5c.365,7.545.21,27.079-.4,33.407s-2.434,26.287-2.312,28.478,28.721.73,33.345.974,24.461,2.069,25.8,0-2.8-25.8-3.651-29.207-1.7-31.741-1.7-31.741c14.36-1.947,32.195-7.948,33.9-10.5s.413-8.016.413-10.572-.852-30.546-.852-30.546" transform="translate(-3.266 -12.32)" fill="#844d26"/>
        <path id="パス_7341" data-name="パス 7341" d="M98.171,49.493l7.466,1.723c-.287,3.446-2.584,4.882-4.307,4.595s-3.733-3.158-3.159-6.318" transform="translate(-42.359 -21.377)" fill="#ce2726"/>
        <path id="パス_7342" data-name="パス 7342" d="M117.454,74.649c-.4,3.993-5.03,6.453-8.293,7.465-1.153.358-3.359.828-3.653,3.246-.753,6.2.085,21.253-.128,25.93-.27,5.944,2.432,42.692,2.432,47.286s-.27,18.1-.27,18.1l-.418,6.486c17.038,2.581,39.613-3.8,39.613-3.8s-1.91-20.052-4.775-36.6c-2.631-15.2-2.743-32.2-3.183-36.6l17.824-4.138-3.671-27.312s-16.32,1.871-19.883.575c-7-2.547-15.727-.686-15.6-.637" transform="translate(-45.433 -31.94)" fill="#d7e9f3"/>
        <path id="パス_7343" data-name="パス 7343" d="M192.11,102.854a1.047,1.047,0,0,1-1.036-.908L187.4,74.634a1.047,1.047,0,0,1,2.075-.278l3.671,27.312a1.046,1.046,0,0,1-.9,1.176,1.074,1.074,0,0,1-.14.01" transform="translate(-80.94 -31.724)" fill="#001a3b"/>
        <path id="パス_7344" data-name="パス 7344" d="M185.387,103.7a1.047,1.047,0,0,1-1.036-.908L180.68,75.475a1.047,1.047,0,1,1,2.075-.278l3.671,27.312a1.046,1.046,0,0,1-.9,1.176,1.072,1.072,0,0,1-.14.01" transform="translate(-78.036 -32.088)" fill="#0060b3"/>
        <path id="パス_7345" data-name="パス 7345" d="M106.33,189.625l-.068,0a1.047,1.047,0,0,1-.978-1.112l.418-6.486c0-.089.268-13.506.268-18.036,0-1.806-.432-8.789-.933-16.872-.779-12.581-1.662-26.84-1.5-30.461.078-1.708.012-4.847-.064-8.482-.126-6.043-.283-13.564.2-17.527.355-2.92,2.9-3.677,4.122-4.041l.26-.078a1.047,1.047,0,1,1,.62,2l-.283.086c-1.388.413-2.465.844-2.641,2.287-.463,3.816-.308,11.254-.183,17.231.077,3.673.143,6.844.062,8.621-.16,3.508.758,18.328,1.5,30.235.5,8.119.938,15.131.938,17,0,4.551-.268,17.989-.271,18.124l-.419,6.532a1.047,1.047,0,0,1-1.044.98" transform="translate(-44.638 -37.353)" fill="#001a3b"/>
        <path id="パス_7346" data-name="パス 7346" d="M64.939,71.485c-1.17,4.288.26,8.187,1.429,9.1-1.429,6.5-2.209,23.781-2.469,28.979s-2.729,35.216-2.989,41.453-1.559,28.719-1.559,28.719-18.453.65-21.312-3.639c0-.65,6.237-61.986,6.237-66.664a77.916,77.916,0,0,1,.39-8.057S25.3,97.475,23.1,94.1c-.39-4.678,9.746-20.662,11.7-21.441,4.549.65,14.5.415,15.984-.39,3.119-1.689,11.825-2.209,14.164-.78" transform="translate(-9.971 -30.518)" fill="#d7e9f3"/>
        <path id="パス_7347" data-name="パス 7347" d="M22.3,95.867a1.047,1.047,0,0,1-1.042-.959c-.413-4.95,9.741-21.458,12.35-22.5a1.047,1.047,0,1,1,.777,1.944C32.52,75.4,23.006,90.657,23.346,94.733a1.046,1.046,0,0,1-.956,1.13c-.03,0-.059,0-.088,0" transform="translate(-9.177 -31.242)" fill="#001a3b"/>
        <path id="パス_7348" data-name="パス 7348" d="M28.185,95.867a1.047,1.047,0,0,1-1.042-.959c-.414-4.95,9.741-21.458,12.35-22.5a1.047,1.047,0,1,1,.776,1.944C38.4,75.4,28.889,90.657,29.228,94.733a1.045,1.045,0,0,1-.955,1.13c-.03,0-.059,0-.088,0" transform="translate(-11.718 -31.242)" fill="#0060b3"/>
        <path id="パス_7349" data-name="パス 7349" d="M124.266,121.539a1.268,1.268,0,0,0,.9,1.254l-2.052,2.414h0a4.97,4.97,0,0,1-2.672,1.677h0l-.008,0,0-.012-.642-.873c.044-.005.087-.012.131-.02a2.547,2.547,0,0,0,.922-.363,2.816,2.816,0,0,0,.5-.4c.02-.02.04-.04.059-.061a2.919,2.919,0,0,0,.329-.427c.034-.054.068-.109.1-.165a2.651,2.651,0,0,0,.211-.509,2.336,2.336,0,0,0,.071-.313c.01-.053.016-.106.021-.159a2.008,2.008,0,0,0,.01-.212v-.32h0c.006-.115.009-.237.009-.366l0-3.232a1.474,1.474,0,0,0-.145-.607.518.518,0,0,0-.2-.232c-.483-.286-1.154.117-1.17.126h0l-.4.232a1.9,1.9,0,0,1,.119.671v2.59a1.269,1.269,0,0,0,.9,1.254L119.2,125.9v0a4.962,4.962,0,0,1-2.671,1.677h0l-.009,0,0-.011-.641-.873c.043-.006.086-.011.13-.019a2.564,2.564,0,0,0,.922-.364,2.92,2.92,0,0,0,.5-.4l.059-.063a2.8,2.8,0,0,0,.329-.426c.035-.055.067-.109.1-.166a2.682,2.682,0,0,0,.212-.507,2.5,2.5,0,0,0,.071-.314c.009-.053.016-.107.021-.16.006-.07.009-.14.009-.211v-.32c.006-.116.009-.238.009-.368l0-3.232a1.467,1.467,0,0,0-.145-.607.517.517,0,0,0-.2-.233h0a1.009,1.009,0,0,0-.817-.028l0,0-.085-.07-.152-.124-.334-.276,1.063-.613a2.367,2.367,0,0,1,.717-.255,1.931,1.931,0,0,1,.79.018,1.63,1.63,0,0,1,.819.466l.01-.006,1.581-.915a2.418,2.418,0,0,1,.715-.252,1.967,1.967,0,0,1,.791.017,1.625,1.625,0,0,1,.882.537,1.767,1.767,0,0,1,.4,1.154Zm-7.925,1.4a1.261,1.261,0,0,0,.888,1.254L114.91,126.9l0,0c-.044.047-.092.094-.139.139a.011.011,0,0,1-.006.005c-.046.044-.093.087-.141.13l-.012.011c-.046.04-.092.079-.14.118-.005.006-.013.01-.019.015-.044.037-.091.074-.139.108l-.022.017c-.047.034-.093.068-.141.1l-.02.013c-.049.035-.1.066-.147.1h0a.053.053,0,0,1-.012.009c-.06.04-.118.075-.176.11l-.053.03c-.039.024-.079.047-.117.067l-.052.028c-.038.022-.077.04-.114.059l-.039.019c-.049.024-.1.046-.141.066s-.064.029-.094.041h0l-.1.039h0c-.032.012-.061.024-.091.033h0l-.037.013h0l-.051.016c-.013,0-.024.008-.035.01s-.035.011-.052.015l-.024.007-.049.012a.066.066,0,0,1-.018.005l-.031.007-.024.005h-.007c-.06.013-.094.016-.094.016v0a.379.379,0,0,1-.056.011h0l0,0h-.011a1.955,1.955,0,0,1-.776-.02c-.043-.011-.087-.022-.129-.036l0,0c-.041-.012-.08-.027-.118-.042l-.009,0a1.668,1.668,0,0,1-.225-.114l-.01-.007a1.615,1.615,0,0,1-.2-.146s0,0-.006-.006c-.032-.027-.062-.056-.091-.085h0c-.031-.031-.06-.062-.088-.1a1.779,1.779,0,0,1-.166-.238.019.019,0,0,0-.005-.01,1.831,1.831,0,0,1-.119-.26c0-.006,0-.012-.006-.018-.016-.045-.03-.089-.041-.136l0-.015c-.011-.044-.021-.087-.028-.132l0-.019c-.007-.047-.014-.095-.018-.144a.275.275,0,0,1,0-.03c0-.05,0-.1,0-.152v-4.91c0-1.229-.724-1.174-1.173-1.019l-.53-.436,1.4-.664a2.294,2.294,0,0,1,.345-.089c.04-.007.081-.013.121-.018.078-.008.155-.013.231-.014a1.8,1.8,0,0,1,.726.144,1.586,1.586,0,0,1,.256.14c.024.016.049.033.073.051a1.406,1.406,0,0,1,.126.1c.034-.032.066-.064.1-.094l.029-.024,0,0c.044-.038.089-.077.135-.115l.013-.011a.025.025,0,0,0,.009-.007l.066-.052.083-.064.013-.009c.049-.037.1-.073.15-.108l.01-.006c.052-.036.1-.072.158-.105h0l.014-.008c.059-.039.115-.075.172-.107l.041-.026.037-.02h0l.087-.05.037-.02c.044-.023.084-.045.126-.065a.182.182,0,0,1,.021-.011c.048-.023.093-.046.138-.066h0c.037-.018.074-.033.109-.048s.1-.041.145-.057c.023-.01.045-.017.066-.024.088-.03.164-.053.226-.069h.006a1.634,1.634,0,0,1,.193-.04v0c.019,0,.036-.009.055-.011h.005l.006,0v0l.007,0,.115-.015a1.907,1.907,0,0,1,.658.035h0c.043.011.087.023.129.035l.005,0c.039.012.078.027.116.042l.01,0a1.74,1.74,0,0,1,.225.114l.011.006a1.8,1.8,0,0,1,.2.147l.007.006.091.085h0c.031.031.059.063.087.1s.061.076.089.116.052.08.077.121a.079.079,0,0,0,.006.011,1.8,1.8,0,0,1,.118.257.136.136,0,0,1,.006.02c.015.044.03.089.041.135a.113.113,0,0,0,.006.016c.01.043.019.087.027.131,0,.007,0,.013,0,.02.008.047.012.094.018.143,0,.01,0,.02,0,.031,0,.051.007.1.007.152v2.625l.011-.035M114.218,121v-.009c0-.036,0-.07,0-.1s-.007-.043-.009-.064,0-.023-.006-.035a.738.738,0,0,0-.018-.074.156.156,0,0,1,0-.016c-.009-.027-.017-.053-.027-.081s-.024-.059-.036-.087l0,0c-.014-.027-.027-.053-.043-.078a.863.863,0,0,0-.074-.1l-.013-.014c-.025-.028-.051-.056-.08-.082a.033.033,0,0,1-.009-.007.956.956,0,0,0-.22-.142.5.5,0,0,0-.058-.024c-.044.033-.085.069-.126.106l-.016.014c-.041.037-.083.076-.122.115-.019.02-.04.041-.059.062a2.912,2.912,0,0,0-.329.427c-.034.053-.066.108-.1.165-.02.039-.04.078-.059.118a.1.1,0,0,1-.009.015c-.015.034-.031.069-.044.1a.128.128,0,0,0-.011.024c-.014.033-.026.068-.04.1,0,.008-.006.015-.008.023-.015.041-.028.082-.041.124s-.028.1-.039.149l0,.016c-.011.049-.021.1-.029.149s-.015.106-.02.159c-.007.07-.01.14-.01.21l-.009,3.772v.019c0,.031,0,.062,0,.092s.006.045.009.066,0,.022,0,.032a.688.688,0,0,0,.019.077.065.065,0,0,0,0,.013c.007.027.016.055.025.08a.929.929,0,0,0,.085.172,1.012,1.012,0,0,0,.072.1l.012.013a.757.757,0,0,0,.082.083.016.016,0,0,0,.007.006.92.92,0,0,0,.22.144c.019.008.039.018.059.024v0c.043-.034.083-.068.123-.1l.018-.017c.041-.036.081-.074.12-.114h0l.057-.061h0a2.793,2.793,0,0,0,.255-.314h0c.025-.036.05-.074.074-.112.034-.054.066-.108.1-.165v0c.02-.037.039-.074.057-.111l.011-.025c.015-.031.029-.063.043-.095,0-.01.009-.02.013-.031.012-.031.025-.062.036-.093,0-.01.008-.02.011-.03.012-.038.026-.078.037-.116v-.005h0c.015-.048.028-.1.039-.148l0-.018c.011-.05.021-.1.029-.148s.016-.106.019-.159h0a.01.01,0,0,0,0-.007c0-.032,0-.065.006-.1s0-.07,0-.106Zm17.382,2s0-.007,0-.01l0-1.509v-.229a2.557,2.557,0,0,0-.112-.779,1.674,1.674,0,0,0-.248-.5l-.6-.788v0h0l-1.471,1.728-1.05-1.478a1.4,1.4,0,0,1-.22-.766v-.352a1.923,1.923,0,0,0-.116-.663l.423-.245a1.925,1.925,0,0,1,.423-.173.981.981,0,0,1,.686.031l.048.023a.666.666,0,0,1,.279.428.138.138,0,0,1,.007.026.638.638,0,0,1,.019.078c0,.012,0,.023.006.035a.885.885,0,0,1,.016.1c0,.007,0,.012.006.018a2.764,2.764,0,0,1,.015.291v1.179l1.671-1.961.011-.015.345-.406a1.657,1.657,0,0,0-.315-.585.224.224,0,0,0-.03-.034,1.63,1.63,0,0,0-.854-.5,1.959,1.959,0,0,0-.787-.016,2.4,2.4,0,0,0-.718.253l-.27.157,0,0-1.323.765a1.746,1.746,0,0,0-1.613-.489,2.376,2.376,0,0,0-.719.255l-1.062.613.57.47c.448-.154,1.166-.208,1.171,1v1.35a2.578,2.578,0,0,0,.112.774,1.6,1.6,0,0,0,.247.5h0l.053.067.035.048.513.671,0,0h0l1.468-1.726.977,1.369a1.393,1.393,0,0,1,.3.873v1.082l-.306.176h0a1.852,1.852,0,0,1-.422.173.97.97,0,0,1-.685-.031.392.392,0,0,1-.049-.023.666.666,0,0,1-.279-.428c0-.008,0-.017-.007-.026-.008-.024-.012-.051-.019-.079l-.007-.035c-.007-.032-.012-.065-.017-.1a.047.047,0,0,1,0-.018,2.305,2.305,0,0,1-.018-.289V122.1l-2.026,2.382a1.652,1.652,0,0,0,.315.585c.009.011.021.023.03.035a1.631,1.631,0,0,0,.852.5,1.965,1.965,0,0,0,.792.016,2.3,2.3,0,0,0,.715-.254l1.38-.795a1.617,1.617,0,0,0,.157.22.211.211,0,0,0,.031.035,1.609,1.609,0,0,0,.445.35l2.082-1.2a.946.946,0,0,1-.847-.974" transform="translate(-46.964 -50.053)" fill="#001a3b"/>
        <path id="パス_7350" data-name="パス 7350" d="M77.555,116.658h0l.009.006.031.025,0,0a1.7,1.7,0,0,1,.294.252.774.774,0,0,1,.2.294v0a.9.9,0,0,1,.061.327,1.2,1.2,0,0,1-.4.869c-.027.023-.053.045-.081.066a1.126,1.126,0,0,1-.211.134.4.4,0,0,0-.051.04.157.157,0,0,0-.064.07.177.177,0,0,0-.034.124c.041.257,1.061.374,2.331-1.605,0,0,1.073-1.67.138-2.823-.024-.03-.049-.059-.076-.087v0h0c-.019-.021-.039-.039-.057-.057l-.031-.026a1.236,1.236,0,0,0-1.031-.252,1.8,1.8,0,0,0-1.443,1.7,1.2,1.2,0,0,0,.422.945m3.128,7.136V121.2a1.767,1.767,0,0,0-.4-1.153,1.635,1.635,0,0,0-.883-.538,1.962,1.962,0,0,0-.79-.016,2.4,2.4,0,0,0-.716.253l-1.448.835.6.408a.09.09,0,0,1,.015-.009l0,0a.062.062,0,0,1,.016-.01,1.26,1.26,0,0,1,1.136-.107l0,0a.46.46,0,0,1,.158.161.025.025,0,0,1,.008.012.234.234,0,0,1,.019.03,1.539,1.539,0,0,1,.162.738c0,.012,0,.023,0,.036v3.637a3.4,3.4,0,0,1-.019.356c0,.054-.011.107-.019.159a2.864,2.864,0,0,1-.069.339,2.634,2.634,0,0,1-.145.407c-.027.058-.053.112-.082.165a2.467,2.467,0,0,1-.373.51c-.025.026-.05.051-.076.076a2.788,2.788,0,0,1-.547.405,3.05,3.05,0,0,1-1.032.358l.641.874v.012a.013.013,0,0,1,.008,0h0a4.958,4.958,0,0,0,2.671-1.676h0l2.052-2.415a1.267,1.267,0,0,1-.9-1.253m-4.434.335c-1.579,4.155-4.83,3.8-4.83,3.8h0a7.632,7.632,0,0,1-1.511-.13,3.827,3.827,0,0,0,.7-2.084v-7.343a2.039,2.039,0,0,1,1.626-1.819,1.716,1.716,0,0,1,.26-.024l0,0a1.446,1.446,0,0,1,.34.034c.014,0,.027.007.041.01a1.335,1.335,0,0,1,.847.686c.016.034.024.053.024.053l0,0,.258-.305.445-.524h0l.433-.51.236-.277-.506-.113-.632-.141-.02-.005-.347-.077-.666-.148.009.01a2.935,2.935,0,0,0-1.278-.036,3.926,3.926,0,0,0-3.211,3.674v7.154a3.206,3.206,0,0,1-1.624,2.824,3.427,3.427,0,0,0,.891-2.075v-7.937c0-.028,0-.053,0-.08a4.586,4.586,0,0,1,.962-2.419l-.971.563-3.47,2,.589.262a.987.987,0,0,1,.276-.09.762.762,0,0,1,.935.766v7.869a4.445,4.445,0,0,1-.083.921c-.088.3-.4.844-1.464,1.077-.3.054-.531.08-.647.09-.026,0-.053.006-.081.007l.915,1.247.024-.017a11.276,11.276,0,0,0,2.137-.689l0,0,.2-.094a11.837,11.837,0,0,1,1.358-.51c.319-.087.707-.18,1.152-.261.094-.014.173-.028.239-.041a13.549,13.549,0,0,1,5,.078l2.327-4.146" transform="translate(-27.549 -49.238)" fill="#001a3b"/>
      </g>
    </g>
    <g id="グループ_8257" data-name="グループ 8257" transform="translate(1449 2639.54)">
      <g id="グループ_8258" data-name="グループ 8258" clip-path="url(#clip-path-2)">
        <path id="パス_7351" data-name="パス 7351" d="M15.186,16.622a5.391,5.391,0,0,1-.783-2.7,30.356,30.356,0,0,1,1.392-4.169c.721-2.041,1.595-5.8.2-6.05S14.41,6,13.623,7.264s-3.754-2.4-4.3-3.371S7.01-.382,5.867.036s1.25,4.179,1.806,5.376.438,2.312-.252,1.541S4.691,1.056,3.247.946,2.7,2.189,3.106,3.122,5.475,7.945,5.53,8.263,2.687,3.71,2.342,3.324s-1.678.14-.927,1.459S3.874,9.322,3.874,9.322A20.831,20.831,0,0,1,2.059,7.678C1.4,6.846.97,5.832.668,5.675c-.535-.278-.9.4-.492,1.561a23.259,23.259,0,0,0,1.412,2.922,39.442,39.442,0,0,0,2.727,3.687c.9,1.353,3.47,2.566,4.165,3.567S10.617,20.5,10.617,20.5Z" transform="translate(0 0)" fill="#fac3a0"/>
        <path id="パス_7352" data-name="パス 7352" d="M191.913,35.382c.921-.471,1.536-1.959,1.7-2.235a30.317,30.317,0,0,0,.2-4.391c.062-2.164.6-5.983,2-5.715s.647,2.711.926,4.173,4.367-.892,5.23-1.6,3.693-3.157,4.608-2.356-2.671,3.449-3.62,4.366-1.241,2-.319,1.528,4.671-4.519,6.056-4.1.063,1.357-.652,2.081-3.946,3.646-4.113,3.923,4.292-3.224,4.752-3.459,1.515.735.339,1.7-3.928,3.349-3.928,3.349a20.72,20.72,0,0,0,2.285-.881c.918-.537,1.68-1.33,2.019-1.367.6-.067.7.7-.1,1.633a23.35,23.35,0,0,1-2.37,2.217,39.433,39.433,0,0,1-3.872,2.458c-1.323.94-4.16,1.144-5.17,1.828s-3.107,2.115-3.107,2.115Z" transform="translate(-83.554 -10.026)" fill="#fac3a0"/>
        <path id="パス_7353" data-name="パス 7353" d="M32.967,437.617c-.889,2.829-5.173,7.437-7.356,8.407s-7.275,5.739-6.79,8.891,8.325,3.557,16.247-1.132,10.67-9.053,10.67-9.053l-1.617-9.3Z" transform="translate(-8.18 -189.576)" fill="#00408b"/>
        <path id="パス_7354" data-name="パス 7354" d="M115.779,434.71c-.929,2.956-5.406,7.771-7.687,8.785s-7.6,6-7.1,9.292,8.7,3.716,16.978-1.183,11.15-9.46,11.15-9.46l-1.689-9.714Z" transform="translate(-43.957 -188.268)" fill="#00408b"/>
        <path id="パス_7355" data-name="パス 7355" d="M42.513,185.891c-5.643,21.162-10.427,69.463-10.427,78.774s5.079,65.178,5.079,65.178c3.668,2.822,14.39-.564,14.39-.564l-.564-66.872,9.938-43.983c1.693,34.424,6.139,54.02,6.139,54.02l16.09,56.835s13.825-.847,15.236-5.644l-12.3-49.35c2.822-36.962,3.55-51.944,3.55-51.944,2.589-18.035-1.41-29.909-1.41-29.909Z" transform="translate(-13.969 -80.932)" fill="#00942c"/>
        <path id="パス_7356" data-name="パス 7356" d="M120.395,31.215c3.215,6.431,6.207,8.041,11.85,10.158s18.2,7.2,19.751,16.365-2.68,16.365-8.888,22.291-16.224,11.286-27.51,5.643S99.084,49.919,97.963,40.95C96.27,27.406,113.9,24.725,120.395,31.215" transform="translate(-42.601 -12.122)" fill="#a56d35"/>
        <path id="パス_7357" data-name="パス 7357" d="M89.394,15.094c-5.663,4.347-5.863,11.32-6.349,13.261a16.937,16.937,0,0,0-.969,6.47c.139,3.377,2.486,7.637,6.393,8.858S98.6,43.531,101.686,42.3a16.6,16.6,0,0,0,9.835-12.337c1.151-6.684-1.282-13.126-5.739-15.69s-12.3-2.311-16.388.824" transform="translate(-35.725 -5.453)" fill="#fac3a0"/>
        <path id="パス_7358" data-name="パス 7358" d="M22.411,26.393c.564.846,8.395,12.668,11.569,16.477S54.995,55.611,54.995,55.611c7.336-.282,19.951-.659,19.951-.659C83.411,51,88.292,52.013,95.064,48.627S114.569,35.45,114.569,35.45l6.179,6.368s-10.424,15.1-16.772,19.328-23.1,11.863-23.1,11.863a116.847,116.847,0,0,0-2.955,31.433c.443,7.521,6.059,16.816,6.059,16.816s1.8,5.464-1.693,5.926C70.525,128.737,43,126.8,33.95,125.757c-2.367-.274-2.085-2.719-1.688-4.007a150.589,150.589,0,0,0,4.5-17.081c.14-.561,2-7.6,3.092-13.8.557-3.176-.207-8.361.331-11.042.527-2.626,2.032-7.377,2.032-7.377S27.658,56.617,23.638,50.057,14.523,30.95,14.523,30.95s7.324-5.4,7.888-4.558" transform="translate(-6.323 -11.451)" fill="#da4d0c"/>
        <path id="パス_7359" data-name="パス 7359" d="M91.921,61.583c.846,4.8,0,9.311-2.116,10.157,1.834,3.95,10.158,3.669,13.12-.563a20.24,20.24,0,0,1-.846-9.876Z" transform="translate(-39.099 -26.689)" fill="#fac3a0"/>
        <path id="パス_7360" data-name="パス 7360" d="M84.526,23.241c6.63-3.435,9.4-6.529,9.4-6.529-.4,8.228,9.928,14.838,11.366,16.6,2.558-2.452,5.222,1.918,1.6,4.689,6.87-.719,10.138-10.985,8.78-16.177s-3.292-6.546-3.292-6.546c-1.736-5.039-7.528-7.772-13.26-6.63a11.073,11.073,0,0,0-10.987,3.331c-2.115,2.349-4.812,6.238-3.61,11.265" transform="translate(-36.671 -3.605)" fill="#a56d35"/>
        <path id="パス_7361" data-name="パス 7361" d="M88.406,49.9l7.421,1.713c-.285,3.425-2.568,4.852-4.281,4.567s-3.711-3.139-3.14-6.279" transform="translate(-38.446 -21.725)" fill="#ce2726"/>
        <path id="パス_7362" data-name="パス 7362" d="M67.36,70.82c-3.258,8.267,12.022,9.808,15.921-.75,6.612-3.177,19.2-5.577,19.2-5.577l7.909,18.033L94.97,95.117c-1.113,15.585-2.226,25.326-.835,32.562s7.356,28.047,7.356,28.047c-10.019,5.009-30.428,7.259-38.221,6.145s-23.378-2.783-23.378-2.783,3.868-27.234,5.26-34.471,5.009-18.647,4.453-23.1.835-12.524.835-12.524L39.52,73.667,51.541,62.278s10.253,5.48,15.819,8.542" transform="translate(-17.206 -27.114)" fill="#d7e9f3"/>
        <path id="パス_7363" data-name="パス 7363" d="M38.718,73.906A1.041,1.041,0,0,1,38,72.11L50.024,60.72a1.041,1.041,0,0,1,1.432,1.511L39.434,73.621a1.04,1.04,0,0,1-.716.285" transform="translate(-16.404 -26.312)" fill="#001a3b"/>
        <path id="パス_7364" data-name="パス 7364" d="M41.479,77.41a1.041,1.041,0,0,1-.7-1.806l13.3-12.216a1.04,1.04,0,0,1,1.407,1.532l-13.3,12.216a1.036,1.036,0,0,1-.7.274" transform="translate(-17.606 -27.478)" fill="#0060b3"/>
        <path id="パス_7365" data-name="パス 7365" d="M158.129,84.472a1.04,1.04,0,0,1-.953-.623l-7.909-18.033a1.041,1.041,0,1,1,1.906-.836l7.909,18.033a1.041,1.041,0,0,1-.953,1.458" transform="translate(-64.948 -28.02)" fill="#001a3b"/>
        <path id="パス_7366" data-name="パス 7366" d="M152.878,87.21a1.039,1.039,0,0,1-.956-.631L143.38,66.647a1.04,1.04,0,1,1,1.912-.819l8.542,19.931a1.04,1.04,0,0,1-.955,1.45" transform="translate(-62.387 -28.385)" fill="#0060b3"/>
        <path id="パス_7367" data-name="パス 7367" d="M101.217,118.722a1.064,1.064,0,0,0,.754,1.051l-1.719,2.023h0a4.166,4.166,0,0,1-2.239,1.405h0l-.007,0,0-.01-.538-.732c.037,0,.073-.01.11-.016a2.132,2.132,0,0,0,.773-.3,2.361,2.361,0,0,0,.419-.338c.017-.017.033-.033.049-.051a2.411,2.411,0,0,0,.276-.358c.029-.045.056-.091.081-.138a2.264,2.264,0,0,0,.177-.426,1.917,1.917,0,0,0,.059-.263c.008-.045.014-.089.018-.134s.009-.117.009-.177v-.269h0c0-.1.008-.2.008-.307l0-2.709a1.235,1.235,0,0,0-.121-.509.432.432,0,0,0-.169-.195c-.405-.24-.967.1-.98.106h0l-.337.195a1.592,1.592,0,0,1,.1.563v2.17a1.063,1.063,0,0,0,.755,1.051l-1.72,2.023v0a4.161,4.161,0,0,1-2.239,1.406h0l-.007,0,0-.01-.538-.732c.036-.005.072-.01.11-.016a2.126,2.126,0,0,0,.772-.3,2.388,2.388,0,0,0,.42-.337l.05-.053a2.349,2.349,0,0,0,.276-.357c.029-.046.056-.091.081-.139a2.23,2.23,0,0,0,.177-.426,2,2,0,0,0,.059-.263c.007-.044.014-.089.018-.134s.007-.117.007-.177v-.269c.006-.1.008-.2.008-.308l0-2.709a1.233,1.233,0,0,0-.122-.509.43.43,0,0,0-.168-.2h0a.845.845,0,0,0-.685-.024l0,0-.072-.059-.127-.1-.279-.231.891-.514a1.986,1.986,0,0,1,.6-.213,1.62,1.62,0,0,1,.662.015,1.365,1.365,0,0,1,.687.39l.008-.005,1.325-.767a2.052,2.052,0,0,1,.6-.212,1.645,1.645,0,0,1,.663.015,1.366,1.366,0,0,1,.74.45,1.482,1.482,0,0,1,.336.967Zm-6.642,1.172a1.056,1.056,0,0,0,.745,1.051l-1.944,2.271,0,0c-.037.039-.077.078-.116.116l-.005,0-.119.109-.01.009c-.039.033-.077.066-.118.1l-.015.012c-.038.031-.077.062-.116.091l-.019.015c-.038.028-.077.057-.117.085l-.017.011c-.041.029-.082.056-.124.082h0l-.01.007c-.05.033-.1.063-.148.092l-.044.025c-.033.02-.066.039-.1.056-.015.009-.029.016-.043.024-.032.018-.065.034-.1.05l-.032.016c-.041.02-.081.038-.119.055l-.079.034h0l-.084.033h0l-.076.028h0a.211.211,0,0,0-.032.011h0l-.043.013-.029.009-.043.012-.02.006-.041.011-.015,0-.026.006-.02,0h-.006c-.05.011-.078.014-.078.014v0l-.047.01h-.012a1.635,1.635,0,0,1-.65-.016c-.037-.009-.073-.019-.108-.03h0c-.034-.011-.066-.023-.1-.036l-.007,0a1.38,1.38,0,0,1-.189-.1.028.028,0,0,1-.008-.006,1.338,1.338,0,0,1-.17-.123s0,0-.006,0q-.04-.035-.076-.071h0c-.025-.025-.05-.053-.073-.08a1.436,1.436,0,0,1-.139-.2.03.03,0,0,0,0-.008,1.438,1.438,0,0,1-.1-.217c0-.005,0-.01-.005-.015-.013-.037-.025-.075-.034-.114l0-.013c-.009-.037-.017-.073-.023-.111l0-.016c-.006-.04-.011-.08-.015-.121,0-.008,0-.017,0-.025,0-.042-.005-.084-.005-.126v-4.116c0-1.03-.606-.984-.982-.854l-.444-.366,1.177-.556a1.987,1.987,0,0,1,.289-.075l.1-.015c.066-.007.13-.011.194-.012a1.521,1.521,0,0,1,.609.121,1.308,1.308,0,0,1,.214.117c.02.013.041.028.061.042a1.315,1.315,0,0,1,.106.088l.085-.079.024-.02,0,0c.037-.032.075-.065.113-.1l.012-.009.007-.006.055-.044.069-.054.011-.008c.041-.031.084-.062.125-.091l.008-.005c.043-.03.088-.06.132-.088h0l.011-.007c.049-.032.1-.063.144-.09l.034-.021.03-.017h0l.074-.042.031-.017.105-.055.018-.008c.04-.019.078-.038.116-.055h0l.091-.041c.042-.018.084-.034.121-.047.019-.008.038-.014.056-.02.074-.025.137-.045.189-.059h.005a1.256,1.256,0,0,1,.161-.033v0l.046-.009h0l.006,0v0l.006,0,.1-.013h0a1.587,1.587,0,0,1,.551.029h0l.108.03,0,0c.033.011.066.023.1.035l.008,0a1.415,1.415,0,0,1,.189.1l.009,0a1.526,1.526,0,0,1,.169.123l.006.005.076.071c.026.026.049.053.073.081s.051.064.075.1.044.067.064.1l.005.01a1.414,1.414,0,0,1,.1.216.11.11,0,0,1,.006.016c.013.037.024.075.034.113l.005.014c.008.036.016.073.023.109,0,.006,0,.011,0,.018.007.039.011.078.015.12,0,.008,0,.017,0,.025,0,.042.006.084.006.127v2.2l.01-.029m-1.78-1.627v-.008c0-.029,0-.058,0-.086s-.006-.036-.007-.053a.284.284,0,0,1-.005-.03c0-.021-.009-.042-.015-.062l0-.013c-.007-.023-.014-.045-.023-.068s-.02-.049-.03-.073l0,0c-.012-.023-.023-.045-.036-.066a.761.761,0,0,0-.062-.085l-.011-.012c-.021-.024-.043-.047-.067-.069a.024.024,0,0,1-.007-.006.814.814,0,0,0-.185-.119.438.438,0,0,0-.049-.02c-.037.028-.071.058-.105.089l-.014.011c-.035.031-.069.064-.1.1l-.049.052a2.41,2.41,0,0,0-.276.358c-.028.045-.056.091-.081.138s-.034.066-.05.1a.051.051,0,0,1-.007.013l-.038.086-.008.02c-.011.028-.022.056-.033.085l-.007.019c-.012.034-.024.068-.034.1s-.023.083-.033.125c0,.005,0,.008,0,.014-.009.041-.018.082-.024.125s-.013.089-.017.134-.008.117-.008.176l-.007,3.161v.016a.7.7,0,0,0,0,.077c0,.019,0,.037.008.056l0,.027a.479.479,0,0,0,.015.064.062.062,0,0,0,0,.011c.006.024.014.046.021.068a.808.808,0,0,0,.071.143.791.791,0,0,0,.061.086.058.058,0,0,1,.01.011.735.735,0,0,0,.069.069.014.014,0,0,0,.006.005.773.773,0,0,0,.184.121l.049.021v0c.036-.028.07-.058.1-.086l.016-.014c.034-.03.068-.062.1-.1h0l.048-.051h0a2.32,2.32,0,0,0,.213-.263h0c.02-.03.042-.062.062-.094s.056-.091.081-.138v0c.017-.031.033-.062.048-.093l.009-.021c.012-.026.025-.053.036-.08,0-.008.007-.017.01-.025.011-.026.021-.053.03-.078,0-.008.007-.016.01-.025.011-.032.022-.065.032-.1v0h0c.012-.041.023-.082.032-.124l0-.015c.009-.042.018-.083.024-.123s.014-.089.016-.133V121.6c0-.027,0-.054.006-.081s0-.059,0-.089Zm14.569,1.674v-.008l0-1.265v-.193a2.129,2.129,0,0,0-.094-.653,1.423,1.423,0,0,0-.207-.42l-.506-.66v0h0l-1.233,1.449-.88-1.239a1.175,1.175,0,0,1-.185-.642v-.295a1.6,1.6,0,0,0-.1-.556l.355-.206a1.587,1.587,0,0,1,.354-.145.818.818,0,0,1,.574.025l.042.019a.557.557,0,0,1,.234.359.133.133,0,0,1,.006.021.566.566,0,0,1,.015.066c0,.01,0,.019.006.029.006.027.01.056.013.085,0,.006,0,.01.005.015a2.4,2.4,0,0,1,.012.244v.989l1.4-1.644.01-.012.289-.341a1.41,1.41,0,0,0-.264-.49.188.188,0,0,0-.025-.029,1.365,1.365,0,0,0-.716-.421,1.642,1.642,0,0,0-.66-.015,2.03,2.03,0,0,0-.6.213l-.226.132,0,0-1.108.641a1.467,1.467,0,0,0-1.352-.41,1.986,1.986,0,0,0-.6.214l-.89.514.478.394c.375-.129.977-.175.981.841v1.132a2.171,2.171,0,0,0,.094.649,1.355,1.355,0,0,0,.207.422h0l.045.056.029.04.43.562,0,0h0l1.231-1.447.819,1.147a1.171,1.171,0,0,1,.248.732v.907l-.256.147h0a1.539,1.539,0,0,1-.353.145.815.815,0,0,1-.574-.025.345.345,0,0,1-.041-.02.555.555,0,0,1-.235-.358c0-.007,0-.014-.006-.021s-.01-.043-.016-.066,0-.019-.006-.029c-.006-.027-.01-.055-.014-.086a.044.044,0,0,1,0-.015,1.823,1.823,0,0,1-.016-.242v-.99l-1.7,2a1.382,1.382,0,0,0,.264.49c.008.01.018.019.025.029a1.366,1.366,0,0,0,.714.421,1.64,1.64,0,0,0,.664.014,1.945,1.945,0,0,0,.6-.213l1.157-.666a1.307,1.307,0,0,0,.132.184.2.2,0,0,0,.025.03,1.349,1.349,0,0,0,.373.293l1.745-1.009a.793.793,0,0,1-.71-.816" transform="translate(-38.399 -49.625)" fill="#001a3b"/>
        <path id="パス_7368" data-name="パス 7368" d="M69.741,114.157h0l.007,0,.026.021,0,0a1.5,1.5,0,0,1,.247.211.647.647,0,0,1,.17.246v0a.756.756,0,0,1,.051.274,1.01,1.01,0,0,1-.339.728c-.022.02-.045.038-.068.056a.962.962,0,0,1-.177.112.309.309,0,0,0-.042.033.134.134,0,0,0-.055.059.154.154,0,0,0-.028.1c.034.215.89.313,1.954-1.346,0,0,.9-1.4.115-2.366-.02-.025-.041-.049-.063-.073v0h0c-.016-.018-.032-.033-.048-.048l-.026-.022a1.033,1.033,0,0,0-.864-.211,1.5,1.5,0,0,0-1.209,1.421,1,1,0,0,0,.353.792m2.622,5.981v-2.172a1.481,1.481,0,0,0-.335-.967,1.374,1.374,0,0,0-.74-.451,1.631,1.631,0,0,0-.662-.014,2,2,0,0,0-.6.212l-1.213.7.505.342.013-.007,0,0,.014-.008a1.057,1.057,0,0,1,.952-.09l0,0a.4.4,0,0,1,.133.136.031.031,0,0,1,.006.01c.005.008.011.016.016.025a1.3,1.3,0,0,1,.137.619v3.078a2.957,2.957,0,0,1-.015.3c0,.045-.01.09-.016.133a2.462,2.462,0,0,1-.057.285,2.346,2.346,0,0,1-.122.341c-.022.049-.045.094-.068.138a2.117,2.117,0,0,1-.312.428l-.064.063a2.3,2.3,0,0,1-.459.339,2.561,2.561,0,0,1-.864.3l.538.732v.01l.007,0h0a4.155,4.155,0,0,0,2.239-1.4h0l1.72-2.024a1.062,1.062,0,0,1-.755-1.05m-3.716.281C67.323,123.9,64.6,123.6,64.6,123.6h0a6.394,6.394,0,0,1-1.266-.108,3.208,3.208,0,0,0,.584-1.746V115.6a1.709,1.709,0,0,1,1.364-1.524,1.45,1.45,0,0,1,.217-.02l0,0a1.245,1.245,0,0,1,.285.028l.035.008a1.115,1.115,0,0,1,.709.575c.014.028.021.044.021.044l0,0,.217-.256.374-.439v0l.363-.427.2-.232-.424-.094-.53-.119-.016,0-.291-.064-.558-.125.007.008a2.46,2.46,0,0,0-1.071-.029A3.292,3.292,0,0,0,62.126,116v6a2.688,2.688,0,0,1-1.361,2.367,2.877,2.877,0,0,0,.747-1.739v-6.652c0-.023,0-.045,0-.067a3.838,3.838,0,0,1,.806-2.028l-.814.471L58.6,116.023l.493.22a.834.834,0,0,1,.231-.076.64.64,0,0,1,.784.642V123.4a3.72,3.72,0,0,1-.07.772c-.074.249-.331.707-1.227.9-.251.046-.445.067-.543.076l-.069.006.767,1.045.02-.014a9.476,9.476,0,0,0,1.791-.578l0,0,.171-.079a10.1,10.1,0,0,1,1.139-.427c.267-.072.592-.15.966-.218.079-.011.145-.024.2-.035a11.359,11.359,0,0,1,4.195.065l1.951-3.475" transform="translate(-25.337 -48.729)" fill="#001a3b"/>
        <path id="パス_7369" data-name="パス 7369" d="M80.781,173.735H80.75a1.041,1.041,0,0,1-1.009-1.071c.008-.25.745-25.058,1.072-32.1.237-5.1.559-12.4.844-18.864l.313-7.1c.322-7.24,3.1-20.917,4.387-23.859a5.208,5.208,0,0,1,4.577-3.492c.156-.028.314-.056.473-.089a1.04,1.04,0,0,1,.408,2.04c-.172.034-.342.065-.509.1a3.223,3.223,0,0,0-3.043,2.278c-1.086,2.483-3.89,15.8-4.215,23.119l-.314,7.1c-.285,6.47-.607,13.773-.844,18.87-.327,7.022-1.063,31.813-1.071,32.063a1.041,1.041,0,0,1-1.039,1.01" transform="translate(-34.717 -37.937)" fill="#001a3b"/>
      </g>
    </g>
  </g>
</svg>
