<svg xmlns="http://www.w3.org/2000/svg" xmlns:xlink="http://www.w3.org/1999/xlink" width="133.244" height="340.52" viewBox="0 0 133.244 340.52">
  <defs>
    <clipPath id="clip-path">
      <rect id="長方形_4330" data-name="長方形 4330" width="133.244" height="340.52" fill="none"/>
    </clipPath>
  </defs>
  <g id="グループ_8260" data-name="グループ 8260" clip-path="url(#clip-path)">
    <path id="パス_7370" data-name="パス 7370" d="M158.248,111.327c1.782-4.86,5.383-9.035,9.8-9.035s6.344,5.767,5.959,10-3.268,8.651-6.728,9.035l-.769,4.229-8.843-1.538,1.73-4.806s-3.268-2.114-1.154-7.882" transform="translate(-66.63 -43.264)" fill="#fac3a0"/>
    <path id="パス_7371" data-name="パス 7371" d="M147.049,94.327l-7.113.384c-.961,3.076,1.154,9.42,2.5,9.228s5.575-2.692,5.575-2.692l41.525-.769-9.228-28.837Z" transform="translate(-59.083 -30.301)" fill="#00408b"/>
    <path id="パス_7372" data-name="パス 7372" d="M218.05,83.969c2.611,8,2.032,15.363-1.292,16.448S208.622,95.9,206.012,87.9,203.979,72.535,207.3,71.45s8.136,4.519,10.747,12.519" transform="translate(-86.441 -30.163)" fill="#fff"/>
    <path id="パス_7373" data-name="パス 7373" d="M155.589,126.459c.384-1.154.769-2.884.769-2.884-1.538-2.307-2.5-10,.384-11.535,2.307-1.346,2.883,1.73,2.5,2.691a14.325,14.325,0,0,0-.577,2.884s4.422,4.422,3.076,7.113-6.152,1.73-6.152,1.73" transform="translate(-65.509 -47.246)" fill="#fac3a0"/>
    <path id="パス_7374" data-name="パス 7374" d="M20.14,540.165c.495,7.174,1.484,11.626,5.442,15.832s5.195,7.916,3.216,11.132-11.132.989-17.069-2.969S1.834,556.492.35,552.781s2.226-13.358,2.226-13.358Z" transform="translate(0 -228.148)" fill="#844d26"/>
    <path id="パス_7375" data-name="パス 7375" d="M113.322,523.629c0,6.679-.248,12.616.495,15.337s13.111,18.553,19.048,19.3,9.895-1.237,7.916-7.174-8.164-14.842-8.411-18.306-.99-9.647-.99-9.647Z" transform="translate(-47.913 -221.259)" fill="#844d26"/>
    <path id="パス_7376" data-name="パス 7376" d="M28.764,282.194c-8.074,16.725-16.751,73.728-17.493,79.665S8.3,370.27,8.055,375.217s-.495,1.237-.742,3.958-5.937,47-5.442,53.433c4.453,1.732,19.79,1.484,19.79,1.484,2.474-22.263,16.079-70.006,17.563-72.975s19.3-41.806,19.3-41.806c2.226,11.132,3.463,43.29,3.463,43.29l3.463,63.08c3.958,2.968,20.037.495,20.037.495s-.742-57.39-.99-64.812,1.732-54.175,1.732-59.617-.989-15.584-.989-15.584-56.79-3.98-56.472-3.969" transform="translate(-0.778 -119.353)" fill="#c9dfeb"/>
    <path id="パス_7377" data-name="パス 7377" d="M67.539,69.714c7.977-4.431,16.595-1.36,19.587,2.72s3.809,13.6,4.625,15.507a11.155,11.155,0,0,1,0,8.434c-1.36,3.264-2.177,7.617-6.8,8.161s-12.786.272-17.14-3.537-7.345-7.617-8.433-12.514.816-14.691,8.161-18.771" transform="translate(-24.994 -28.566)" fill="#fac3a0"/>
    <path id="パス_7378" data-name="パス 7378" d="M92.736,124.726c-.272,5.713-.272,13.6,3.264,15.235-5.985,3.537-16.051,2.177-18.5-1.36,2.993-6.257,2.993-14.146,2.72-14.963Z" transform="translate(-32.779 -52.292)" fill="#fac3a0"/>
    <path id="パス_7379" data-name="パス 7379" d="M24.227,22.377A114.917,114.917,0,0,0,25.859,5.51c0-2.72,5.985-4.9,8.705-5.441s7.8,2.238,8.434,4.9a10.144,10.144,0,0,1,.264,2.485,4.7,4.7,0,0,1,.93,3.719c-.147,1.467-1.908,4.745-3.767,5.577a21.019,21.019,0,0,1-3.669,1.223c-.782,1.321-1.125,7.094-1.125,7.094Z" transform="translate(-10.247 0)" fill="#fac3a0"/>
    <path id="パス_7380" data-name="パス 7380" d="M17.644,33.845l15.68,2.88s-.48,28.8.16,30.719,8.32,17.44,11.04,21.12,7.36,6.56,9.92,9.12c2.88,2.24,11.68,0,11.68,0,6.08-1.28,12.319,2.24,13.92,4s7.68,9.76,7.68,9.76c.16,1.44,1.28.16,1.6-.64s4.48-9.28,4.96-13.12.8-5.44,2.08-5.44,10.88,2.4,12.16,2.4,1.28,2.24.96,4.32-6.24,26.24-7.68,30.719-7.04,13.44-12.48,13.44c.16,9.12,1.76,28.513,1.92,31.393s2.24,8.32-1.28,10.08-20.8-.48-26.559-.48-30.879,1.76-33.119-1.76-.64-6.4-.32-8.32,2.08-31.872,2.72-38.112-2.4-25.439-2.4-25.439c-5.92-8.48-14.4-33.279-15.52-38.239s1.6-35.679,1.76-36.8-.16-1.6,1.12-1.6" transform="translate(-6.13 -14.315)" fill="#00408b"/>
    <path id="パス_7381" data-name="パス 7381" d="M80.012,73.831c-1.468-1.461-2.63,2.681-2.983,5.762-.257,2.242-6.3,8.164-9.529,9.374-7.67-1.211-2.826,7.871,1.009,8.476,1.615,1.615,2.206,5.741,2.206,5.741a1.57,1.57,0,0,1-2.324-.1c-.758-.859-3.991-5.052-5.557-6.416a24.04,24.04,0,0,1-6.921-9.245c-1.92-4.85-.909-10.3.707-10.911.152-4.294,3.233-8.032,6.466-10.053s11.973-3.081,15.307-2.071S91.931,68.985,89.2,80c-1.364-3.233-2.93-2.173-4.244-3.435s-2.778-4.244-4.948-2.732" transform="translate(-23.205 -27.069)" fill="#00336c"/>
    <path id="パス_7382" data-name="パス 7382" d="M107.049,108.972l-7.584,1.75c.291,3.5,2.625,4.959,4.375,4.667s3.792-3.208,3.209-6.417" transform="translate(-42.069 -46.089)" fill="#ce2726"/>
  </g>
</svg>
