<svg id="グループ_8255" data-name="グループ 8255" xmlns="http://www.w3.org/2000/svg" xmlns:xlink="http://www.w3.org/1999/xlink" width="314.735" height="197.92" viewBox="0 0 314.735 197.92">
  <defs>
    <clipPath id="clip-path">
      <rect id="長方形_4327" data-name="長方形 4327" width="314.735" height="197.92" fill="none"/>
    </clipPath>
  </defs>
  <g id="グループ_8254" data-name="グループ 8254" clip-path="url(#clip-path)">
    <path id="パス_7289" data-name="パス 7289" d="M506.418,22.793a1.758,1.758,0,0,1-.266-.021,1.685,1.685,0,0,1-1.4-1.927l2.583-16.277L491.217,3.457,486.8,18.669a1.684,1.684,0,0,1-3.235-.94l4.8-16.516A1.694,1.694,0,0,1,490.095,0L509.4,1.335a1.684,1.684,0,0,1,1.548,1.944l-2.871,18.094a1.685,1.685,0,0,1-1.661,1.421" transform="translate(-196.236 0)" fill="#ffc500"/>
    <path id="パス_7290" data-name="パス 7290" d="M512.569,11.982c-.039,0-.078,0-.118,0l-19.308-1.332a1.684,1.684,0,1,1,.232-3.36l19.308,1.332a1.684,1.684,0,0,1-.114,3.365" transform="translate(-199.517 -2.956)" fill="#ffc500"/>
    <path id="パス_7291" data-name="パス 7291" d="M472.812,33.973c-2.816,0-5.129-1.41-5.635-3.644a4.572,4.572,0,0,1,1.331-4.151,8.555,8.555,0,0,1,8.711-1.968,4.572,4.572,0,0,1,2.985,3.176,4.573,4.573,0,0,1-1.331,4.15,8.112,8.112,0,0,1-4.078,2.211,9.028,9.028,0,0,1-1.984.226m1.75-6.861a5.65,5.65,0,0,0-1.233.14,4.8,4.8,0,0,0-2.381,1.248,1.351,1.351,0,0,0-.484,1.087c.143.638,1.652,1.314,3.59.875a4.8,4.8,0,0,0,2.38-1.248,1.349,1.349,0,0,0,.485-1.086h0a1.347,1.347,0,0,0-.9-.772,4.1,4.1,0,0,0-1.451-.244" transform="translate(-189.576 -9.637)" fill="#ffc500"/>
    <path id="パス_7292" data-name="パス 7292" d="M508.683,41.535a7.465,7.465,0,0,1-2.659-.466,4.293,4.293,0,0,1-1.655-7.326,8.559,8.559,0,0,1,8.711-1.968,4.571,4.571,0,0,1,2.985,3.176c.62,2.742-1.756,5.536-5.409,6.361a8.951,8.951,0,0,1-1.974.223m1.741-6.858a5.624,5.624,0,0,0-1.233.14,4.8,4.8,0,0,0-2.381,1.248,1.349,1.349,0,0,0-.485,1.086,1.352,1.352,0,0,0,.9.772,4.827,4.827,0,0,0,2.686.1c1.94-.439,3.009-1.7,2.866-2.334a1.355,1.355,0,0,0-.906-.772,4.111,4.111,0,0,0-1.451-.243" transform="translate(-204.13 -12.707)" fill="#ffc500"/>
    <path id="パス_7293" data-name="パス 7293" d="M10.505,59.086A1.684,1.684,0,0,1,8.913,57.95l-5.6-16.263A1.684,1.684,0,0,1,4.034,39.7L20.579,29.657a1.684,1.684,0,0,1,2.385.7l8.084,16.441a1.684,1.684,0,0,1-3.023,1.487l-7.272-14.79L6.942,41.873,12.1,56.853a1.684,1.684,0,0,1-1.592,2.233" transform="translate(-1.308 -11.938)" fill="#00942c"/>
    <path id="パス_7294" data-name="パス 7294" d="M9.108,48.774a1.684,1.684,0,0,1-.876-3.124L24.777,35.608a1.684,1.684,0,1,1,1.747,2.879L9.98,48.53a1.677,1.677,0,0,1-.872.245" transform="translate(-3.012 -14.353)" fill="#00942c"/>
    <path id="パス_7295" data-name="パス 7295" d="M4.255,84.512a4.238,4.238,0,0,1-2.886-1.053A4.572,4.572,0,0,1,.064,79.3a8.118,8.118,0,0,1,2.058-4.158,8.115,8.115,0,0,1,3.926-2.472,4.569,4.569,0,0,1,4.269.874A4.57,4.57,0,0,1,11.622,77.7a8.111,8.111,0,0,1-2.058,4.157,8.118,8.118,0,0,1-3.925,2.472,5.639,5.639,0,0,1-1.384.179m3.182-8.652a2.309,2.309,0,0,0-.561.076A4.8,4.8,0,0,0,4.622,77.4,4.8,4.8,0,0,0,3.4,79.792a1.35,1.35,0,0,0,.229,1.167,1.353,1.353,0,0,0,1.185.11A4.8,4.8,0,0,0,7.064,79.6a4.8,4.8,0,0,0,1.226-2.391,1.351,1.351,0,0,0-.23-1.167.925.925,0,0,0-.623-.185" transform="translate(0 -29.423)" fill="#00942c"/>
    <path id="パス_7296" data-name="パス 7296" d="M37.917,70.02a4.241,4.241,0,0,1-2.887-1.053c-2.086-1.883-1.756-5.535.753-8.315s6.109-3.481,8.2-1.6a4.572,4.572,0,0,1,1.305,4.159A8.553,8.553,0,0,1,39.3,69.841a5.631,5.631,0,0,1-1.383.179m3.189-8.648a4.2,4.2,0,0,0-2.823,1.536c-1.333,1.476-1.482,3.12-1,3.558a1.347,1.347,0,0,0,1.185.11,4.792,4.792,0,0,0,2.254-1.464c1.333-1.476,1.483-3.12,1-3.558a.914.914,0,0,0-.616-.182" transform="translate(-13.661 -23.54)" fill="#00942c"/>
    <path id="パス_7297" data-name="パス 7297" d="M267.535,42.545a8.783,8.783,0,0,1-2.745-.454,8.12,8.12,0,0,1-3.843-2.6,4.571,4.571,0,0,1-.92-4.26c.883-2.668,4.36-3.838,7.914-2.661s5.647,4.189,4.764,6.857a4.572,4.572,0,0,1-3.281,2.87,7.151,7.151,0,0,1-1.889.245m-2.322-7.056c-1.076,0-1.848.379-1.989.8a1.351,1.351,0,0,0,.377,1.129,5.22,5.22,0,0,0,4.93,1.631,1.35,1.35,0,0,0,.976-.681c.206-.621-.737-1.976-2.625-2.6a5.33,5.33,0,0,0-1.67-.281m5.894,3.411h0Z" transform="translate(-105.457 -13.035)" fill="#33b7ef"/>
    <path id="パス_7298" data-name="パス 7298" d="M278.814,30.787a1.684,1.684,0,0,1-1.389-2.634c4.153-6.082,8.678-12.954,9.281-14.251a1.68,1.68,0,0,1,.561-.945,3.815,3.815,0,0,1,3.115-.8,4.345,4.345,0,0,1,2.941,2.688,19.4,19.4,0,0,0,8.286,7.913,1.684,1.684,0,0,1-.068,3.052c-5.062,2.226-14.025-4.205-15.116-5.011-1.445,2.214-3.448,5.2-6.219,9.256a1.682,1.682,0,0,1-1.392.734m9.423-12.834c.042.026.083.055.123.085a29.091,29.091,0,0,0,5.881,3.52,19.039,19.039,0,0,1-3.963-5.278c-.3-.636-.557-.819-.61-.834h-.007c-.27.563-.714,1.353-1.424,2.507m-1.513-3.293v0m0,0h0" transform="translate(-112.48 -4.902)" fill="#33b7ef"/>
    <path id="パス_7299" data-name="パス 7299" d="M162.446,61.653a66.822,66.822,0,0,0-.494,10.616l-13.825-1.728,3.7-8.888Z" transform="translate(-60.121 -25.023)" fill="#fac3a0"/>
    <path id="パス_7300" data-name="パス 7300" d="M220.807,71.879l1.381-3.682c-1.657-2.21-2.3-7.917.921-9.759,3.314-4.326,4.511-1.657,4.787-1.473l.276.184c3.223-.276,3.5,1.657,3.5,1.657a6.445,6.445,0,0,1,2.946,2.394c.276.368-1.012-1.289.276.368s.737,4.7-.736,6.444a10.971,10.971,0,0,1-3.683,2.67l-2.025,4.511Z" transform="translate(-89.62 -22.722)" fill="#fac3a0"/>
    <path id="パス_7301" data-name="パス 7301" d="M134.388,70.21c5.678,1.975,10.373,5.115,14.072,4.938,4.559-.219,3.846,2.374,4.34,4.6s8.992,11.7,11.214,12.439,12.837-16.294,12.837-16.294,10.616,3.457,10.616,5.432c-1.728,7.653-5.678,20.491-11.6,24.688s-16.047.987-16.047.987c1.234,3.95-.494,8.64,0,11.11s1.786,23.715.494,28.885c-.494,1.975-22.466-1.481-26.91-.987s-15.306,1.975-15.306,1.975-3.209.247-3.209-2.962,1.728-16.047,2.222-21.725,6.666-31.847,9.628-39.007,7.9-13.825,7.653-14.072" transform="translate(-46.629 -28.496)" fill="#00408b"/>
    <path id="パス_7302" data-name="パス 7302" d="M171.981,84.626s9.077,8.175,10.558,8.915,2.948,1.529,2.948,1.529c.494,9.876-1.481,24.194-1.481,24.194S165,110.871,162.775,105.44s4.111-17.217,9.207-20.814" transform="translate(-65.88 -34.347)" fill="#d7e9f3"/>
    <path id="パス_7303" data-name="パス 7303" d="M198.248,126.766a.8.8,0,0,1-.13-.011.842.842,0,0,1-.7-.96c.022-.141,2.164-14.2,1.681-23.879a.842.842,0,1,1,1.682-.084c.492,9.847-1.676,24.077-1.7,24.22a.843.843,0,0,1-.831.714" transform="translate(-80.121 -41.006)" fill="#001a3b"/>
    <path id="パス_7304" data-name="パス 7304" d="M194.772,124.454a.863.863,0,0,1-.123-.009.842.842,0,0,1-.711-.955c.018-.13,1.9-13.118,1.413-22.795a.842.842,0,1,1,1.682-.084c.492,9.844-1.409,22.99-1.429,23.122a.842.842,0,0,1-.832.721" transform="translate(-78.71 -40.51)" fill="#0060b3"/>
    <path id="パス_7305" data-name="パス 7305" d="M244.108,301.829c1.975,3.456,4.691,3.7,7.653,3.456s9.382-1.234,11.11,2.469-10.862,10.122-15.306,11.6a22.245,22.245,0,0,1-8.64.987l-3.95-14.319Z" transform="translate(-95.369 -122.504)" fill="#001a3b"/>
    <path id="パス_7306" data-name="パス 7306" d="M73.8,285.032c-6.172,1.975-7.653,7.9-8.147,11.11s-4.691,8.394-8.641,7.9-2.222-23.948-2.222-23.948l13.825-4.443Z" transform="translate(-22.086 -111.879)" fill="#001a3b"/>
    <path id="パス_7307" data-name="パス 7307" d="M449.922,91.154l3.338-3.577c.119-2.861-.6-8.345,1.192-9.3s2.146,1.073,2.146,1.073c2.981-3.934,2.861-4.411,4.173-4.411s2.385,1.907,2.385,1.907c1.788.358,4.173,3.934,3.577,7.034s-2.743,6.08-4.769,6.437-4.054,3.338-4.054,3.338Z" transform="translate(-182.611 -30.416)" fill="#fac3a0"/>
    <path id="パス_7308" data-name="パス 7308" d="M342.811,92.394l-3.338-3.577c-.119-2.861.6-8.345-1.192-9.3s-2.146,1.073-2.146,1.073c-2.981-3.934-2.861-4.411-4.173-4.411s-2.385,1.907-2.385,1.907c-1.788.358-4.173,3.934-3.577,7.034s2.742,6.08,4.769,6.437,4.054,3.338,4.054,3.338Z" transform="translate(-132.277 -30.919)" fill="#fac3a0"/>
    <path id="パス_7309" data-name="パス 7309" d="M447,303.819c1.424,1.424,5.221,4.035,8.306,4.153a5.343,5.343,0,0,1,5.221,5.577c-.118,2.966-12.222,7-17.087,7.12a7.668,7.668,0,0,1-6.882-3.8l-3.8-9.018Z" transform="translate(-175.646 -123.312)" fill="#33b7ef"/>
    <path id="パス_7310" data-name="パス 7310" d="M344.345,301.047c-2.729,2.255-2.255,8.069-2.966,10.679s-5.34,5.7-8.662,1.305-3.916-12.578-4.034-13.409,0-4.153,1.305-5.221,8.306-2.966,8.306-2.966Z" transform="translate(-133.388 -118.286)" fill="#33b7ef"/>
    <path id="パス_7311" data-name="パス 7311" d="M400.879,215.542c2.017,7.357,5.933,30.852,5.933,30.852l4.746,20.884c-2.255,5.458-15.188,7-16.612,6.052s-9.73-22.308-9.73-22.308l-6.408-8.425c-5.815,13.883-10.442,18.274-12.222,19.816S349.262,272.5,349.262,272.5s-9.612-9.137-9.374-11.748c.356-.237,11.51-12.578,11.51-12.578.831-5.7.949-20.528.949-20.528.118-3.441.949-9.731,2.967-11.629Z" transform="translate(-137.949 -87.483)" fill="#a56130"/>
    <path id="パス_7312" data-name="パス 7312" d="M414.224,100.345s-3.8,9.73-5.577,12.1-7.679,12.385-9.578,15.47c0,0,1.509,8.974,1.865,11.584s2.966,26.7,2.017,28.953-13.764,2.848-17.918,2.729-31.8-2.255-32.75-3.678,1.9-12.341,2.255-14.6.475-21.122.475-21.122-7.951-13.052-9.137-15.069-8.781-15.189-8.781-15.189l9.492-5.814s5.815,6.526,9.493,11.391c0,0,7.357,4.391,11.035,6.408,0,0,9.3.172,12.861.765,0,0,7.667-3.493,10.871-5.511.831-.831,7.594-9.374,10.561-12.934,1.475-1.771,12.341,2.848,12.815,4.509" transform="translate(-136.818 -38.736)" fill="#ffc500"/>
    <path id="パス_7313" data-name="パス 7313" d="M396.791,78.932a20.1,20.1,0,0,1,3.981,9.258c2.024,2.312,2.024,7.516.578,10.7s-4.38,7.632-11.606,7.343-9.684-4.158-9.684-4.158c-2.6.578-4.747-.949-5.933-4.035-.755-1.964-5.1-13.29.949-19.1s15.782-6.645,21.715,0" transform="translate(-150.948 -30.138)" fill="#fac3a0"/>
    <path id="パス_7314" data-name="パス 7314" d="M377.824,72.555c5.458-1.542,15.482-2.94,19.3,5.788,2.227,5.09-6.273,4.364-6.273,4.364-2.182,5.727-7.637,8.182-14.1,7.765a22.228,22.228,0,0,1-.237,2.848c-2.136-1.661-4.034.238-3.916,2.966s3.8,3.679,4.509,3.8c1.186,1.424,1.9,2.136,1.9,2.136-4.8.943-11.192-2.655-13.252-9.694-1.424-4.865.318-9.885,1.98-11.19.593-6.051,10.086-8.781,10.086-8.781" transform="translate(-148.238 -28.982)" fill="#00336c"/>
    <path id="パス_7315" data-name="パス 7315" d="M396.905,119.819a33.182,33.182,0,0,0,.831,4.865c-1.186,2.136-10.2,0-11.51-2.018a20.958,20.958,0,0,0,.949-4.39Z" transform="translate(-156.759 -48.005)" fill="#fac3a0"/>
    <path id="パス_7316" data-name="パス 7316" d="M161.135,19.823c3.606,4.886,2.469,10.616,4.444,11.11s.74,3.95.494,5.678-.988,6.913-6.913,8.641-12.344,0-16.788-1.975-9.381-10.122-9.628-15.059a13.348,13.348,0,0,1,7.159-12.1c4.2-1.975,13.579-6.666,21.232,3.7" transform="translate(-53.872 -5.412)" fill="#fac3a0"/>
    <path id="パス_7317" data-name="パス 7317" d="M141.832,192.545c2.222,3.95,3.95,7.9,3.95,7.9s26.108,22.646,28.638,25.429c2.469,2.715,7.159,34.316,7.159,34.316s-10.122,4.2-12.837,3.457l-11.654-28.4a316.131,316.131,0,0,1-32.217-18.285,98.245,98.245,0,0,1-8.22,28.168c-1.975,3.95-37.772,9.628-37.772,9.628l-2.222-13.332,23.453-10.862s.44-10.653-.054-15.344-2.661-14.529,1.782-21.688Z" transform="translate(-31.113 -78.149)" fill="#e3556e"/>
    <path id="パス_7318" data-name="パス 7318" d="M125.031,73.7c2.685,2.892,9.914,7.514,14.674,8.287a9.9,9.9,0,0,0,6.294-1.5c2.222,2.962,7.916,27.033,8.163,38.39s1.975,34.069,1.975,34.069c-11.725,18.478-60.05,7.377-60.05,7.377,3.376-18.443,12.4-62.43,28.943-86.624" transform="translate(-38.999 -29.914)" fill="#d7e9f3"/>
    <path id="パス_7319" data-name="パス 7319" d="M170.945,166.214a.894.894,0,0,1-.149-.013.843.843,0,0,1-.681-.977c.03-.167,2.98-16.886,2.685-32.206-.313-16.29-1.274-40.647-1.49-42.159a8.489,8.489,0,0,1,2.8-7.772l.138-.136a.842.842,0,1,1,1.191,1.191l-.148.146a6.861,6.861,0,0,0-2.312,6.333c.251,1.756,1.2,26.577,1.507,42.364.3,15.49-2.681,32.366-2.71,32.535a.842.842,0,0,1-.828.695" transform="translate(-69.04 -33.567)" fill="#001a3b"/>
    <path id="パス_7320" data-name="パス 7320" d="M131.934,153.043l2.874,2.685c2.675-.686,8.2.9,8.664,4.584,2.729,4.718-.195,4.8-.471,4.987l-.276.184c-.977,3.083-2.87,2.6-2.87,2.6a6.444,6.444,0,0,1-3.338,1.806c-.446.115,1.578-.443-.446.115s-4.62-1.116-5.672-3.146a10.957,10.957,0,0,1-1.058-4.424l-3.393-3.6Z" transform="translate(-51.119 -62.116)" fill="#fac3a0"/>
    <path id="パス_7321" data-name="パス 7321" d="M125.166,81.423c-12.1,6.419-26.143,21.244-28.391,25.922-1.869,3.89-.494,6.665,1.975,9.134S114.3,130.8,114.3,130.8l8.888-6.913c-2.716-5.678-9.381-13.331-9.381-13.331s14.318-11.11,17.034-13.085a9.322,9.322,0,0,0,3.457-8.888c-.49-3.51-4.38-7.285-9.135-7.159" transform="translate(-38.926 -33.046)" fill="#00408b"/>
    <path id="パス_7322" data-name="パス 7322" d="M124.661,78.428C113.8,81.884,101.523,98.47,101.523,98.47A101.243,101.243,0,0,1,118.8,109.333s16.631-9.233,18.112-11.949,2.451-19.609-12.256-18.956" transform="translate(-41.205 -31.824)" fill="#d7e9f3"/>
    <path id="パス_7323" data-name="パス 7323" d="M118.228,123.3a.838.838,0,0,1-.534-.191,101.432,101.432,0,0,0-17.124-10.761.842.842,0,1,1,.753-1.506,103.252,103.252,0,0,1,17.439,10.965.842.842,0,0,1-.535,1.493" transform="translate(-40.63 -44.953)" fill="#001a3b"/>
    <path id="パス_7324" data-name="パス 7324" d="M121.17,120.5a.836.836,0,0,1-.554-.209,97.1,97.1,0,0,0-18.145-12.03.842.842,0,0,1,.753-1.506,98.856,98.856,0,0,1,18.5,12.269.842.842,0,0,1-.555,1.475" transform="translate(-41.401 -43.294)" fill="#0060b3"/>
    <path id="パス_7325" data-name="パス 7325" d="M157.992,31.7c-1.29,3.785-5.5,10.665-5.5,10.665a3.629,3.629,0,0,0-5.161,1.462c-.43,1.032.086,4.73,4.3,5.074l-4.817,3.785c-6.967-1.29-12.472-12.644-12.472-12.644s9.547-8.17,9.977-8.17,13.676-.172,13.676-.172" transform="translate(-54.525 -12.865)" fill="#a56d35"/>
    <path id="パス_7326" data-name="パス 7326" d="M117.913,34.221c-4.989-1.634-7.655,3.1-9.891,7.225s-8.6,9.117-11.612,8.773c4.972,6.355,16.136,6.355,22.165,1.443s4.757-9.356,4.757-9.356Z" transform="translate(-39.13 -13.755)" fill="#a56d35"/>
    <path id="パス_7327" data-name="パス 7327" d="M155.126,10.362c-3.908-5.321-12.318-5.594-18.23-2.48s-9.469,7.812-8.877,14.2a22.455,22.455,0,0,0,4.594,11.157c7.143-.329,15.451-10.318,15.451-10.318,9.524-.082,7.337-.3,13.1-1.668s7.1-8.285,3.2-9.706a22.118,22.118,0,0,0-9.23-1.189" transform="translate(-51.934 -2.384)" fill="#001a3b"/>
    <path id="パス_7328" data-name="パス 7328" d="M182.072,50.285l-7.809,1.8c.3,3.6,2.7,5.106,4.5,4.805s3.9-3.3,3.3-6.607" transform="translate(-70.729 -20.409)" fill="#ce2726"/>
    <path id="パス_7329" data-name="パス 7329" d="M412.067,107.784l-7.809,1.8c.3,3.6,2.7,5.106,4.5,4.805s3.9-3.3,3.3-6.607" transform="translate(-164.077 -43.747)" fill="#ce2726"/>
    <path id="パス_7330" data-name="パス 7330" d="M181.913,120.351a1.647,1.647,0,0,0,.4,1.279l-.908,2.461h0a3.1,3.1,0,0,1-1.183,1.71h0l0,0v-.012l-.285-.89a.462.462,0,0,0,.058-.021.966.966,0,0,0,.408-.37,2.4,2.4,0,0,0,.221-.411c.009-.021.018-.04.026-.062a4.021,4.021,0,0,0,.146-.435c.015-.055.03-.111.043-.168.039-.166.07-.34.094-.519.014-.1.024-.212.031-.319,0-.054.007-.109.01-.163,0-.071,0-.143,0-.216v-.326h0c0-.118,0-.242,0-.374l0-3.3a3.2,3.2,0,0,0-.064-.62.574.574,0,0,0-.09-.237c-.214-.292-.511.119-.517.129h0l-.178.236a4.322,4.322,0,0,1,.052.685v2.641a1.645,1.645,0,0,0,.4,1.279l-.908,2.462v0a3.1,3.1,0,0,1-1.183,1.71h0l0,0v-.011l-.284-.89c.019-.007.039-.012.058-.02a.975.975,0,0,0,.409-.371,2.469,2.469,0,0,0,.221-.41l.026-.064a3.768,3.768,0,0,0,.146-.435c.015-.056.029-.111.043-.169a5.164,5.164,0,0,0,.094-.517c.014-.105.024-.212.032-.32,0-.054.007-.109.009-.163,0-.071,0-.143,0-.215v-.327c0-.118,0-.243,0-.375l0-3.3a3.187,3.187,0,0,0-.064-.618.565.565,0,0,0-.089-.238h0a.231.231,0,0,0-.362-.029l0,0-.037-.072-.067-.127-.148-.28.471-.626a.827.827,0,0,1,.317-.26.392.392,0,0,1,.35.018.916.916,0,0,1,.363.475l0-.007.7-.933a.837.837,0,0,1,.317-.257.394.394,0,0,1,.35.017.984.984,0,0,1,.391.548,3.516,3.516,0,0,1,.178,1.176Zm-3.509,1.426a1.651,1.651,0,0,0,.394,1.279l-1.027,2.763v0c-.02.048-.04.1-.061.141l0,.005c-.021.045-.042.089-.063.132l0,.011c-.021.041-.041.081-.062.121l-.008.015c-.02.037-.04.075-.061.111l-.01.017c-.02.034-.04.07-.062.1a.106.106,0,0,0-.009.014c-.022.035-.044.067-.065.1h0l-.005.009c-.027.04-.052.076-.078.112l-.024.03c-.017.024-.035.048-.052.068s-.015.02-.023.029-.034.041-.051.06l-.017.02c-.022.025-.042.047-.062.067l-.042.042h0l-.045.039h0c-.014.012-.027.024-.04.034h0l-.017.013h0l-.023.016-.015.011-.023.015-.011.008-.022.012-.008.005a.048.048,0,0,0-.014.007l-.011.005h0a.25.25,0,0,1-.042.016v0a.133.133,0,0,1-.025.011h0v0H176.7a.394.394,0,0,1-.343-.02.667.667,0,0,1-.057-.037l0,0a.494.494,0,0,1-.052-.043l0,0a.774.774,0,0,1-.1-.116l0-.007a1.211,1.211,0,0,1-.09-.149l0-.005c-.014-.028-.027-.057-.04-.087h0c-.013-.031-.026-.064-.039-.1-.027-.075-.052-.156-.074-.243l0-.011c-.02-.083-.038-.171-.053-.264,0-.006,0-.012,0-.018-.007-.046-.013-.091-.018-.138l0-.016c0-.045-.009-.089-.012-.134,0-.007,0-.012,0-.02,0-.048-.006-.1-.008-.146,0-.01,0-.021,0-.031,0-.051,0-.1,0-.154v-5.007c0-1.253-.32-1.2-.519-1.04l-.235-.445.621-.677a.628.628,0,0,1,.153-.091.412.412,0,0,1,.053-.018.519.519,0,0,1,.1-.015.446.446,0,0,1,.321.147.831.831,0,0,1,.113.143c.011.015.021.033.032.051.02.034.038.069.056.107.015-.033.03-.065.045-.1l.013-.025v0c.02-.039.04-.079.06-.117l.006-.011,0-.007.03-.053.036-.065.006-.01c.022-.037.044-.075.067-.11l0-.007q.034-.055.07-.107h0l.006-.008c.026-.039.051-.076.075-.109l.018-.026.016-.021h0l.039-.051.016-.021c.02-.024.037-.046.056-.067l.01-.011c.021-.024.041-.047.061-.068h0l.048-.049a.692.692,0,0,1,.064-.058.257.257,0,0,1,.03-.024,1.052,1.052,0,0,1,.1-.071h0a.376.376,0,0,1,.086-.04v0l.024-.011h0l0,0v0l0,0c.017-.006.034-.011.051-.015a.387.387,0,0,1,.291.035h0l.057.036,0,0a.492.492,0,0,1,.052.043l0,0a.818.818,0,0,1,.1.116l0,.006a1.335,1.335,0,0,1,.09.15l0,.006c.014.029.027.058.04.087h0c.014.031.026.064.039.1s.027.078.039.118.023.082.034.123l0,.012c.02.082.037.171.052.263,0,.007,0,.014,0,.02.007.045.012.09.018.138l0,.017c0,.043.009.088.012.132,0,.008,0,.014,0,.021,0,.048.006.1.008.145v.031c0,.051,0,.1,0,.154v2.677l0-.036m-.94-1.979v-.009c0-.036,0-.071,0-.1s0-.043,0-.065,0-.024,0-.036,0-.051-.008-.075c0-.006,0-.011,0-.016,0-.027-.008-.055-.012-.082s-.011-.06-.016-.089v0c-.007-.027-.012-.055-.019-.08s-.021-.071-.033-.1l-.006-.015c-.011-.029-.023-.057-.035-.084l0-.007a.6.6,0,0,0-.1-.145.2.2,0,0,0-.026-.025c-.02.034-.037.071-.056.108l-.007.014c-.018.038-.037.077-.054.118l-.026.063a3.983,3.983,0,0,0-.146.436c-.015.054-.029.11-.043.168-.009.04-.018.08-.026.121l0,.015c-.007.035-.014.07-.02.105l0,.025c-.006.034-.011.069-.017.1l0,.023c-.007.042-.012.083-.018.126s-.012.1-.018.152a.132.132,0,0,1,0,.016c0,.05-.01.1-.013.153s-.007.108-.009.162c0,.071,0,.143,0,.214l0,3.846v.02c0,.031,0,.063,0,.093s0,.046,0,.068a.3.3,0,0,1,0,.032c0,.027,0,.052.008.078a.107.107,0,0,0,0,.013c0,.028.007.056.011.082a1.7,1.7,0,0,0,.038.175c.01.037.021.072.032.1l0,.014c.011.03.024.059.037.085l0,.006a.616.616,0,0,0,.1.147c.008.008.017.018.026.025v0c.019-.034.037-.07.054-.1a.116.116,0,0,0,.008-.017c.018-.037.036-.075.053-.116h0c.009-.02.017-.042.026-.062h0c.041-.1.078-.207.113-.32h0l.033-.114c.014-.055.029-.111.042-.168v0c.009-.039.018-.075.026-.113,0-.009,0-.017,0-.025.007-.032.013-.064.019-.1l.005-.031c.006-.031.011-.063.016-.1,0-.01,0-.02.005-.03.005-.039.011-.08.017-.119v-.005h0c.007-.049.012-.1.017-.15l0-.018c0-.051.009-.1.012-.15s.007-.108.009-.162v-.008c0-.033,0-.066,0-.1s0-.072,0-.109Zm7.7,2.037v-.011l0-1.539v-.233a5.85,5.85,0,0,0-.049-.795,3.01,3.01,0,0,0-.11-.512l-.267-.8v0h0l-.652,1.762-.465-1.508a2.92,2.92,0,0,1-.1-.781v-.359a4.294,4.294,0,0,0-.051-.676l.187-.25a.8.8,0,0,1,.187-.176.216.216,0,0,1,.3.031l.022.024a.9.9,0,0,1,.124.437l0,.026c0,.025.007.052.008.08l0,.036c0,.031.005.067.007.1l0,.018c0,.089.007.186.007.3v1.2l.739-2,.005-.015.153-.414a2.885,2.885,0,0,0-.14-.6.324.324,0,0,0-.013-.035.946.946,0,0,0-.378-.513.394.394,0,0,0-.349-.017.837.837,0,0,0-.318.258l-.119.16v0l-.586.779c-.168-.412-.425-.616-.714-.5a.824.824,0,0,0-.318.26l-.471.625.253.479c.2-.157.516-.213.518,1.023v1.377a5.862,5.862,0,0,0,.05.79,2.921,2.921,0,0,0,.109.514h0l.024.068.015.049.227.684v0h0l.65-1.76.433,1.4a2.8,2.8,0,0,1,.131.891v1.1l-.135.179h0a.76.76,0,0,1-.187.176.216.216,0,0,1-.3-.032.168.168,0,0,1-.022-.024.892.892,0,0,1-.124-.436l0-.026c0-.026-.005-.052-.008-.081,0-.011,0-.023,0-.035,0-.033-.005-.067-.007-.1a.089.089,0,0,1,0-.018c0-.087-.008-.186-.008-.3v-1.2l-.9,2.429a2.846,2.846,0,0,0,.14.6c0,.011.009.023.013.036a.959.959,0,0,0,.377.512.4.4,0,0,0,.351.017.81.81,0,0,0,.317-.259l.611-.81a2.164,2.164,0,0,0,.069.224.3.3,0,0,0,.014.036,1.3,1.3,0,0,0,.2.356l.922-1.228c-.216-.057-.374-.451-.375-.993" transform="translate(-71.042 -46.507)" fill="#001a3b"/>
    <path id="パス_7331" data-name="パス 7331" d="M164.537,114.921h0l0,.006.016.026,0,0a1.452,1.452,0,0,1,.153.257,1,1,0,0,1,.105.3v0a1.7,1.7,0,0,1,.031.334,1.894,1.894,0,0,1-.21.886c-.014.024-.027.046-.042.068a.7.7,0,0,1-.11.137.248.248,0,0,0-.026.041.163.163,0,0,0-.034.071.315.315,0,0,0-.017.127c.021.262.551.381,1.209-1.637a5,5,0,0,0,.071-2.879c-.012-.031-.025-.059-.039-.089v0c-.01-.021-.02-.04-.03-.059l-.015-.027a.444.444,0,0,0-.535-.257c-.413.143-.748.917-.748,1.729a1.9,1.9,0,0,0,.219.964m1.623,7.276v-2.643a3.048,3.048,0,0,0-.207-1.176,1.018,1.018,0,0,0-.458-.548.532.532,0,0,0-.409-.017.951.951,0,0,0-.372.258l-.751.851.313.416a.048.048,0,0,1,.008-.008l0,0,.009-.01c.075-.08.37-.365.589-.11v0a.452.452,0,0,1,.082.165.062.062,0,0,1,0,.012.232.232,0,0,1,.009.03,2.884,2.884,0,0,1,.085.752c0,.012,0,.024,0,.037v3.709c0,.127,0,.246-.009.362,0,.055-.007.109-.01.162q-.013.182-.036.346c-.02.15-.046.286-.075.415-.014.059-.027.114-.042.169a3.211,3.211,0,0,1-.193.52l-.04.077a2.065,2.065,0,0,1-.283.413,1.159,1.159,0,0,1-.535.365l.333.891v.012l0,0v0a3.155,3.155,0,0,0,1.385-1.709h0l1.064-2.462a1.5,1.5,0,0,1-.467-1.277m-2.3.341c-.819,4.237-2.5,3.877-2.5,3.877h0a2.088,2.088,0,0,1-.784-.132,6.913,6.913,0,0,0,.362-2.125V116.67c.027-.881.394-1.7.843-1.855a.482.482,0,0,1,.135-.024v0a.415.415,0,0,1,.176.034c.008,0,.014.008.022.01a1.138,1.138,0,0,1,.438.7c.009.035.013.054.013.054v0l.134-.311.232-.534v0l.225-.52.122-.282-.263-.115-.327-.144-.011-.005-.18-.078-.345-.152,0,.01a.8.8,0,0,0-.662-.036c-1.639.675-1.665,3.747-1.665,3.747v7.295a4.431,4.431,0,0,1-.842,2.88,5.793,5.793,0,0,0,.462-2.115v-8.094c0-.028,0-.054,0-.081a7.448,7.448,0,0,1,.5-2.467l-.5.574-1.8,2.037.305.268a.373.373,0,0,1,.143-.092c.267-.093.484.257.485.781v8.024a8.742,8.742,0,0,1-.043.939,1.37,1.37,0,0,1-.759,1.1,2.172,2.172,0,0,1-.335.092l-.043.007.475,1.271.012-.017a4.288,4.288,0,0,0,1.109-.7l0,0,.106-.1a4.923,4.923,0,0,1,.7-.52,4.512,4.512,0,0,1,.6-.266,1.02,1.02,0,0,0,.124-.042,3.664,3.664,0,0,1,2.6.08l1.207-4.228" transform="translate(-63.882 -45.541)" fill="#001a3b"/>
  </g>
</svg>
