<svg xmlns="http://www.w3.org/2000/svg" xmlns:xlink="http://www.w3.org/1999/xlink" width="106.609" height="239.885" viewBox="0 0 106.609 239.885">
  <defs>
    <clipPath id="clip-path">
      <rect id="長方形_4332" data-name="長方形 4332" width="106.609" height="239.885" fill="none"/>
    </clipPath>
  </defs>
  <g id="グループ_8264" data-name="グループ 8264" transform="translate(0)">
    <g id="グループ_8263" data-name="グループ 8263" transform="translate(0)" clip-path="url(#clip-path)">
      <path id="パス_7411" data-name="パス 7411" d="M86.532,426.11c-.937,3.505,2.758,4.835,3.346,5.4s7.146.387,7.334,4.068a30.849,30.849,0,0,1-.187,5.959c-4.5,3.33-11.429,4.732-19.112,5.959s-8.244-.7-9.181-1.4-.749-4.382-.375-7.01,3.185-16.3,3.185-16.3Z" transform="translate(-31.094 -208.007)" fill="#844d26"/>
      <path id="パス_7412" data-name="パス 7412" d="M42.716,421.625c-.937,3.505,2.758,4.835,3.346,5.4s7.146.387,7.334,4.068a30.848,30.848,0,0,1-.187,5.959c-4.5,3.33-11.429,4.732-19.112,5.959s-8.244-.7-9.181-1.4-.749-4.382-.375-7.01,3.185-16.3,3.185-16.3Z" transform="translate(-11.074 -205.8)" fill="#844d26"/>
      <path id="パス_7413" data-name="パス 7413" d="M38.873,324.2c.4-3.624.94-19.117,1.278-27.985.207-5.427-1.934-15.708-6.34-16.244-7.025-.854-10.151,7.182-10.474,15.213-.233,5.777.811,47.071.977,51.582.211,5.78.939,11.646,5.84,11.758,5.206.119,5.707-4.494,6.179-9.3.762-7.76,2.116-21.22,2.539-25.021" transform="translate(-10.648 -137.715)" fill="#fac3a0"/>
      <path id="パス_7414" data-name="パス 7414" d="M83.948,326.9c.4-3.624,2.24-22.466,2.578-31.334.207-5.427-3.863-12.614-8.269-13.15-7.025-.854-10.426,1.767-10.749,9.8-.233,5.777,1.717,52.741,1.882,57.252.212,5.78.94,11.646,5.841,11.758,5.206.119,5.707-4.494,6.179-9.3.762-7.76,2.116-21.22,2.539-25.021" transform="translate(-30.837 -138.874)" fill="#fac3a0"/>
      <path id="パス_7415" data-name="パス 7415" d="M51.748,7.973C61.769,4.679,67.155,11.867,68.6,14.626c1.6,3.057-1,6.3,2.407,9.078.234.191.2.708.2.932.045,5.187-.711,6.277-1.371,7.562a14.947,14.947,0,0,1-7.132,6.35c-2.588.925-6.653-.187-8.993-1.347a81.335,81.335,0,0,1-7.531-4.424c-.532-.385-4.454-21.509,5.567-24.8" transform="translate(-20.554 -3.506)" fill="#fac3a0"/>
      <path id="パス_7416" data-name="パス 7416" d="M18.024,225.868c-3.172,18.016-2.039,34.336-1.586,44.3S14.4,321.247,13.493,325.7s-.906,5.087,2.492,5.935,37.839,2.543,45.769,0,11.768-2.585,11.541-4.493-3.677-18.284-3.9-23.371.067-26.82.067-34.662-3.4-44.51-4.3-47.477-47.129,4.239-47.129,4.239" transform="translate(-5.931 -108.688)" fill="#33b7ef"/>
      <path id="パス_7417" data-name="パス 7417" d="M9.806,104.4c-4.788,5.581-5.962,21.93-5.856,27.068.269,13.093,12.194,26.752,14.207,31.546s10.8.856,11.529-1.027-6.772-15.065-8.967-20.714,1.464-27.048,1.83-32.013S15.806,97.405,9.806,104.4" transform="translate(-1.802 -49.901)" fill="#da4d0c"/>
      <path id="パス_7418" data-name="パス 7418" d="M134.087,72.59c.424-2.054,3.148-10.2,5.909-12.756a19.01,19.01,0,0,0,4.745-6.068c2.107-4.324,3.8-2.645,3.013.169-1.3,4.639-1.825,5.553-1.132,7.355.4,1.045,2.132,2.37,2.585,4.489,1.3,3.789-2.518,7.772-5.64,9.5-3.03,1.675-3.451,3.459-6.064,7.649-1.93,3.094-7.672,12.677-11.668,14.482-3.663,1.654-12.128.516-20.122-2.063-2.871-.926-10.02-4.45-11.852-6.059-.736-.646,4.961-15.728,11.026-11.345,2.948,2.131,15.058,9.069,18.192,6.318,4.7-4.127,10.889-11.1,11.007-11.67" transform="translate(-42.859 -25.156)" fill="#fac3a0"/>
      <path id="パス_7419" data-name="パス 7419" d="M80.7,87.03c3.844-3.812,11.529,2.4,14.824,4.622s18.3,8.731,19.948,7.875,10.8-11.641,10.8-11.641c6.406-.685,8.236,5.136,7.87,6.505s-6.955,14.38-10.981,18.146-5.49,4.622-8.418,4.622-25.072-4.451-29.647-7.19S71.553,96.1,80.7,87.03" transform="translate(-35.068 -42.223)" fill="#da4d0c"/>
      <path id="パス_7420" data-name="パス 7420" d="M59.293,82.78c-5.2-3.568-10.322-5.038-12.335-5.894s-19.735,1.25-21.6,1.883c-4.025,1.37-14.64,12.5-14.457,16.434S15.48,116.6,15.3,121.4s-2.562,20.2-3.111,24.823-1.83,11.812,0,14.551,24.78,1.174,29.539,1.516,24.087-1.081,24.819-3.99-4.213-28-4.58-36.386,4.172-34.434-2.671-39.129" transform="translate(-4.982 -37.729)" fill="#da4d0c"/>
      <path id="パス_7421" data-name="パス 7421" d="M42.786,76.173c9.383.361,19.923,8.394,23.437,10.951s12.1,5.843,12.1,5.843c-1.562,10.225-3.9,21.18-3.9,21.18l-13.272-4.017c.781,21.545,3.514,50.028,3.514,50.028-11.711,4.017-31.621,6.573-39.428,6.208S8.8,164.073,6.886,160.522s1.952-37.977,1.952-43.455c-3.9-.365-7.027-3.652-7.027-3.652S.962,92.668,7.276,86.393c6.246-6.208,14.053-10.225,20.3-10.956s15.21.735,15.21.735" transform="translate(-0.81 -37.015)" fill="#d7e9f3"/>
      <path id="パス_7422" data-name="パス 7422" d="M8.029,154.074a.953.953,0,0,1-.1-.005c-4.244-.4-7.537-3.816-7.675-3.961a.894.894,0,0,1,.083-1.321,1.048,1.048,0,0,1,1.413.078c.028.029,2.922,3.019,6.378,3.342a.955.955,0,0,1,.9,1.025.978.978,0,0,1-.994.843" transform="translate(0 -73.086)" fill="#001a3b"/>
      <path id="パス_7423" data-name="パス 7423" d="M8.183,147.224a.961.961,0,0,1-.1-.005c-4.359-.407-7.475-5.289-7.606-5.5a.9.9,0,0,1,.355-1.281,1.039,1.039,0,0,1,1.37.333c.027.042,2.735,4.27,6.08,4.583a.955.955,0,0,1,.9,1.025.978.978,0,0,1-.994.843" transform="translate(-0.155 -69.033)" fill="#0060b3"/>
      <path id="パス_7424" data-name="パス 7424" d="M134.7,131.348a1.087,1.087,0,0,1-.2-.018.94.94,0,0,1-.785-1.1c.023-.109,2.355-11.048,3.894-21.129a.992.992,0,0,1,1.132-.794.949.949,0,0,1,.849,1.059c-1.548,10.133-3.89,21.121-3.913,21.231a.987.987,0,0,1-.98.752" transform="translate(-61.093 -53.281)" fill="#001a3b"/>
      <path id="パス_7425" data-name="パス 7425" d="M129.428,128.708a1.09,1.09,0,0,1-.205-.02.94.94,0,0,1-.776-1.107c.023-.1,2.354-10.6,3.893-20.673a.992.992,0,0,1,1.132-.795.949.949,0,0,1,.849,1.059c-1.548,10.137-3.891,20.685-3.914,20.791a.988.988,0,0,1-.979.745" transform="translate(-58.682 -52.202)" fill="#0060b3"/>
      <path id="パス_7426" data-name="パス 7426" d="M58.152,17.6c.352,3.955-2.782,3.287-2.782,3.287-.98-.906-2.908-1.02-2.825.795s3.019,3.572,3.019,3.572c3.406,13.292,2.93,23.87,2,29.111s-8.507,13.21-17.593,11.971-10.24-6.614-10.79-13.281a159.754,159.754,0,0,1-.852-21.821c.379-8.323-.81-14.765,1.52-19.053C33.838,1.853,43.886-.2,48.7.015s14.35,4.277,14.227,11.269c-.086,4.9-4.777,6.314-4.777,6.314" transform="translate(-12.893 0)" fill="#00408b"/>
    </g>
  </g>
</svg>
