<svg xmlns="http://www.w3.org/2000/svg" xmlns:xlink="http://www.w3.org/1999/xlink" width="177.861" height="282.07" viewBox="0 0 177.861 282.07">
  <defs>
    <clipPath id="clip-path">
      <rect id="長方形_4334" data-name="長方形 4334" width="167.154" height="259.189" fill="none"/>
    </clipPath>
    <clipPath id="clip-path-2">
      <rect id="長方形_5430" data-name="長方形 5430" width="132.758" height="34.823" fill="none"/>
    </clipPath>
    <clipPath id="clip-path-3">
      <rect id="長方形_5429" data-name="長方形 5429" width="132.758" height="34.824" fill="none"/>
    </clipPath>
    <clipPath id="clip-path-4">
      <rect id="長方形_5428" data-name="長方形 5428" width="17.472" height="23.044" fill="none"/>
    </clipPath>
  </defs>
  <g id="グループ_8321" data-name="グループ 8321" transform="translate(-1405.7 -5830.92)">
    <g id="グループ_8267" data-name="グループ 8267" transform="translate(1416.407 5853.801)">
      <g id="グループ_8267-2" data-name="グループ 8267" clip-path="url(#clip-path)">
        <path id="パス_7439" data-name="パス 7439" d="M61.476,415.768c0,4.8-6,15.2-8.4,17.6s-2.8,6.4,1.2,7.6,22.8-14,25.2-19.2l-4.8-10.4Z" transform="translate(-22.663 -181.842)" fill="#da4d0c"/>
        <path id="パス_7440" data-name="パス 7440" d="M176.295,304.512c4.8-.026,15.23,5.917,17.642,8.3s6.414,2.765,7.592-1.241-14.121-22.72-19.333-25.091l-10.372,4.855Z" transform="translate(-75.953 -126.637)" fill="#da4d0c"/>
        <path id="パス_7441" data-name="パス 7441" d="M10.378,73.723A88.917,88.917,0,0,0,.763,64.813C-.911,63.537.554,58.834,1.5,56.9s5.032-3.75,6.967-2.9a7.861,7.861,0,0,1,1.653,1,3.635,3.635,0,0,1,2.724,1.171c.834.778,2.026,3.4,1.667,4.932a16.263,16.263,0,0,1-.968,2.832c.446,1.1,3.839,4.018,3.839,4.018Z" transform="translate(0 -23.778)" fill="#fac3a0"/>
        <path id="パス_7442" data-name="パス 7442" d="M44.071,200.554c-2.356,7.522-15.754,72.418-14.954,78.417S50.07,326.179,50.07,326.179s14-2,14.8-8l-12.3-41.085,11.255-43.143c3.6,23.2,4.248,50.187,12.646,55.386s40.049-20,40.049-20c2.8-5.6-7.2-18-8-18l-18.053,14.4c-.4-4.8-1.115-26.642-1.115-26.642,3.6-6.8,4.314-13.351,2.714-24.149Z" transform="translate(-12.856 -88.653)" fill="#5f5e5e"/>
        <path id="パス_7443" data-name="パス 7443" d="M70.6,81.342c-4.323-3.2-12.148-1.35-18.3,1.95a86.245,86.245,0,0,1-16.5,6.149c-1.35.3-16.8-17.547-16.8-17.547l-7.949,5.849c5.449,12.348,18.047,26.7,22.246,27.145s18.1-.9,18.1-.9,12.448-1.05,15.9-6.749,6.749-13.348,3.3-15.9" transform="translate(-4.888 -31.78)" fill="#b40019"/>
        <path id="パス_7444" data-name="パス 7444" d="M70.9,102.954c-2.835,6.885-5.249,8.1-5.7,13.048s-2.984,17.236-6.283,22.485-5.974,18.083-7.174,22.133,1.313.964,4.763,1.563,23.992,5.559,31.79,6.909a78.25,78.25,0,0,0,18.147,1.05c2.549-.3-1.356-25.59-1.206-29.339s9.6-28.55,9.9-33.2-8.1-15-18.6-15.6-22.5,3.3-25.646,10.948" transform="translate(-22.739 -40.643)" fill="#b40019"/>
        <path id="パス_7445" data-name="パス 7445" d="M130.747,78.048c5.549-1.8,27.245-1.35,30.544-2.7s20-16,20-16c3.3.9,8.4,5.049,8.4,7.6,0,0-17.447,21.9-21.2,24s-33.244,8.848-33.244,8.848-3.75,1.95-8.7-6.749,4.2-15,4.2-15" transform="translate(-55.29 -26.236)" fill="#b40019"/>
        <path id="パス_7446" data-name="パス 7446" d="M149.012,46.817c1.587,6.205,6.72,5.777,9.75,9.529-7.091,10.194-8.2,15.955-20.319,16.9-8.92.7-11.545-.577-11.545-.577l-1.154-20.492Z" transform="translate(-55.584 -20.695)" fill="#00336c"/>
        <path id="パス_7447" data-name="パス 7447" d="M111.586,24.453c-3.883,1.827-6.624,8.209-7.2,11.362a18.173,18.173,0,0,1-1.818,5.539c-1.423,3.011-.249,9.555,4.032,12.941,5.7,4.51,13.035,2.634,18.385-1s10.1-9.832,9.432-16.807-2.579-8.79-5.446-10.8a16.924,16.924,0,0,0-17.389-1.242" transform="translate(-45.087 -10.003)" fill="#fac3a0"/>
        <path id="パス_7448" data-name="パス 7448" d="M113.256,77.441a11.626,11.626,0,0,1-2.293,8.026c.382,6.21,11.943,6.688,14.809,1.051-1.433-2.2-1.242-8.5-1.242-8.5Z" transform="translate(-49.05 -34.232)" fill="#fac3a0"/>
        <path id="パス_7449" data-name="パス 7449" d="M251.235,10.206c-2.119,2.784-6.675,11.51-6.862,12.824s2.075,2.714,3.6.975,7.755-11.378,7.887-12.458-3.189-3.224-4.622-1.341" transform="translate(-108.018 -4.181)" fill="#844d26"/>
        <path id="パス_7450" data-name="パス 7450" d="M239.6,15.188c4.444,1.052,15.436,5.706,16.64,6.361s-1.451,4.238-3.267,3.561-13.522-5.469-14.78-5.89-.085-4.509,1.407-4.032" transform="translate(-105.053 -6.697)" fill="#844d26"/>
        <path id="パス_7451" data-name="パス 7451" d="M241.191,1.2c8.207,1.325,15.936,2.844,19.692,6.018,1.93,1.63,2.491,5.652-.584,4.555s-17.32-5.086-20.036-5.605-1.866-4.64.928-4.967" transform="translate(-105.474 -0.53)" fill="#844d26"/>
        <path id="パス_7452" data-name="パス 7452" d="M222.733,38.91c-5.727-5.3-6.521-15.352-5-20.052S223.867,2.043,228.1.412s5.23,1.845,4.177,5.441-2.98,9.7-2.806,10.244c.366.593,9.85,4.557,10.59,4.428s7.618-8,10.221-11.222c3.434-4.247,8.559.608,5.171,4.663,3.081-1.9,7.017,1.559,3.6,5.3,2.662-.989,5.742,2.674,1.423,6.813,3.237-.853,4.731,3.953-3.062,9.091s-16.2,8.431-20.85,9.435c-6.932,1.5-11.6-3.635-13.83-5.7" transform="translate(-95.947 0)" fill="#844d26"/>
        <path id="パス_7453" data-name="パス 7453" d="M271.821,29.067l-11.8,10.194c7.527-1.416,11.8-10.194,11.8-10.194" transform="translate(-114.938 -12.849)" fill="#572a06"/>
        <path id="パス_7454" data-name="パス 7454" d="M274.95,36.517l-15.119,9.01c5.512-.494,15.119-9.01,15.119-9.01" transform="translate(-114.856 -16.142)" fill="#572a06"/>
        <path id="パス_7455" data-name="パス 7455" d="M278.443,47.715l-15.05,7.029c4.995,3.38,15.05-7.029,15.05-7.029" transform="translate(-116.43 -21.092)" fill="#572a06"/>
        <path id="パス_7456" data-name="パス 7456" d="M234.3,35.839c-3.275,5.986-6.752,10.888-1.317,15.2s14.782.279,14.782.279Z" transform="translate(-101.733 -15.842)" fill="#572a06"/>
        <path id="パス_7457" data-name="パス 7457" d="M122.646,17.873a24.2,24.2,0,0,0-8.569,2.135c-.577.145-5.7-.179-7.7,5.139-1.515,4.042,1.935,5.057,3.422,5.858,1.876,1.01,7.216-.288,7.216-.288,1.587,2.886,5.628,3.607,8.947,2.886l3.319-.721h0a35.088,35.088,0,0,0,.866,9.091c4.329-2.309,4.474,5.772-.433,6.783a8.506,8.506,0,0,1-.866,2.886c12.411-2.6,12.411-16.6,11.4-20.2s-3.174-3.9-3.174-3.9c-.289-4.762-5.917-10.1-14.431-9.669" transform="translate(-46.858 -7.89)" fill="#00336c"/>
        <path id="パス_7458" data-name="パス 7458" d="M113.54,64.66c-2.016,1.152-1.685,6.448.252,7.127,3.492,1.225,4.068-1.655,3.78-4.535s-4.032-2.592-4.032-2.592" transform="translate(-49.586 -28.579)" fill="#ce2726"/>
        <path id="パス_7459" data-name="パス 7459" d="M81.025,85.064c-1.817,3.893-2.076,9.6,2.6,10.64s14.014-2.6,15.83-8.824c3.633-2.336,11.159-2.076,15.571-1.817a48.057,48.057,0,0,0,9.861-.778c4.671,3.633,4.412,20.5,5.45,23.1l-16.868,4.152c-5.71,23.1-10.28,26.152-9.762,34.456s6.986,24.453,6.986,24.453c-7.007,3.892-24.214,4.152-41.083,2.6s-25.951-4.931-25.951-4.931c1.834-15.1,10.744-31.977,11.938-45.675.345-3.955,3.374-9.6,3.374-9.6L45.991,114.39c.778-6.747,5.19-21.54,5.19-21.54,8.689-3.457,15.571-5.45,18.166-6.487s5.969-3.115,11.678-1.3" transform="translate(-19.297 -37.258)" fill="#d7e9f3"/>
        <path id="パス_7460" data-name="パス 7460" d="M47.028,121.387a.949.949,0,0,1-.119-.007,1.027,1.027,0,0,1-.9-1.139c.779-6.759,5.045-21.108,5.226-21.716a1.028,1.028,0,1,1,1.97.588c-.044.147-4.4,14.784-5.154,21.364a1.028,1.028,0,0,1-1.02.911" transform="translate(-20.333 -43.227)" fill="#001a3b"/>
        <path id="パス_7461" data-name="パス 7461" d="M53.752,119.707a.95.95,0,0,1-.119-.007,1.027,1.027,0,0,1-.9-1.139c.779-6.759,5.045-21.108,5.226-21.716a1.028,1.028,0,0,1,1.97.588c-.044.147-4.4,14.784-5.154,21.364a1.028,1.028,0,0,1-1.02.911" transform="translate(-23.306 -42.485)" fill="#0060b3"/>
        <path id="パス_7462" data-name="パス 7462" d="M193.87,107.6a1.028,1.028,0,0,1-.955-.646,27.819,27.819,0,0,1-.82-5.726c-.518-5.486-1.385-14.671-4.306-16.942a1.028,1.028,0,1,1,1.262-1.623c3.622,2.816,4.471,11.807,5.091,18.371a33.116,33.116,0,0,0,.683,5.154,1.027,1.027,0,0,1-.954,1.41" transform="translate(-82.835 -36.443)" fill="#001a3b"/>
        <path id="パス_7463" data-name="パス 7463" d="M188.268,108.156a1.029,1.029,0,0,1-.955-.646,27.808,27.808,0,0,1-.821-5.727c-.518-5.486-1.385-14.669-4.305-16.94a1.028,1.028,0,1,1,1.262-1.623c3.622,2.816,4.471,11.806,5.091,18.369a33.012,33.012,0,0,0,.683,5.157,1.028,1.028,0,0,1-.954,1.41" transform="translate(-80.358 -36.691)" fill="#0060b3"/>
        <path id="パス_7464" data-name="パス 7464" d="M120.219,125.491A1.1,1.1,0,0,0,121,126.58l-1.782,2.1h0a4.315,4.315,0,0,1-2.321,1.457h0l-.007,0,0-.011-.557-.758c.038,0,.076-.011.114-.018a2.2,2.2,0,0,0,.8-.315,2.469,2.469,0,0,0,.434-.35c.018-.018.035-.035.051-.054a2.517,2.517,0,0,0,.286-.371c.03-.046.058-.095.084-.143a2.369,2.369,0,0,0,.184-.442,2.08,2.08,0,0,0,.062-.272c.008-.046.013-.093.018-.139a1.813,1.813,0,0,0,.009-.184V126.8c0-.1.008-.206.008-.318l0-2.808a1.291,1.291,0,0,0-.126-.528.45.45,0,0,0-.176-.2c-.42-.249-1,.1-1.015.109h0l-.348.2a1.657,1.657,0,0,1,.1.583v2.25a1.1,1.1,0,0,0,.783,1.089l-1.782,2.1v0a4.312,4.312,0,0,1-2.32,1.457h0l-.007,0,0-.01-.557-.758c.037,0,.075-.01.113-.017a2.231,2.231,0,0,0,.8-.316,2.54,2.54,0,0,0,.434-.349l.051-.055a2.386,2.386,0,0,0,.286-.37c.03-.047.058-.095.084-.144a2.344,2.344,0,0,0,.184-.441,2.1,2.1,0,0,0,.061-.272c.007-.046.014-.093.018-.139s.007-.122.007-.183V127.4c.006-.1.008-.207.008-.32l0-2.807a1.284,1.284,0,0,0-.126-.527.451.451,0,0,0-.175-.2h0a.875.875,0,0,0-.71-.025l0,0-.074-.061-.132-.108-.29-.239.924-.533a2.058,2.058,0,0,1,.623-.221,1.679,1.679,0,0,1,.686.016,1.418,1.418,0,0,1,.711.4l.008-.005,1.374-.795a2.092,2.092,0,0,1,.621-.219,1.712,1.712,0,0,1,.687.015,1.416,1.416,0,0,1,.767.466,1.536,1.536,0,0,1,.348,1Zm-6.883,1.215a1.1,1.1,0,0,0,.772,1.09l-2.014,2.353,0,0c-.038.041-.08.081-.12.121l-.006,0-.122.113-.011.009c-.04.035-.08.069-.122.1l-.016.013c-.039.032-.08.064-.121.094l-.019.015c-.04.03-.08.06-.122.088l-.017.012c-.043.03-.086.057-.128.085h0l-.011.007c-.052.035-.1.065-.153.1l-.046.026c-.034.021-.069.041-.1.059l-.045.025c-.033.019-.067.035-.1.051l-.033.017c-.043.021-.083.04-.123.057s-.055.025-.082.036h0l-.086.034h0c-.028.011-.053.021-.079.028h0l-.032.011h0l-.044.014a.262.262,0,0,1-.031.009l-.045.013-.022.006-.042.011-.016,0-.027.006-.021,0h-.006a.815.815,0,0,1-.081.014v0c-.016,0-.033.008-.049.01h-.013a1.7,1.7,0,0,1-.673-.017c-.038-.009-.076-.02-.113-.031h0c-.035-.011-.069-.024-.1-.037l-.007,0a1.453,1.453,0,0,1-.2-.1.036.036,0,0,1-.009-.006,1.368,1.368,0,0,1-.176-.127l-.006-.005c-.028-.024-.054-.049-.079-.074h0c-.026-.027-.052-.054-.076-.083a1.523,1.523,0,0,1-.145-.207.022.022,0,0,0,0-.009,1.482,1.482,0,0,1-.1-.225c0-.005,0-.01-.005-.016-.013-.039-.026-.078-.036-.118l0-.013c-.009-.038-.018-.075-.025-.114l0-.017c-.006-.041-.012-.083-.015-.125a.21.21,0,0,1,0-.026c0-.043-.005-.088-.005-.132V125.6c0-1.067-.628-1.019-1.018-.885l-.46-.379,1.22-.576a1.946,1.946,0,0,1,.3-.078c.036-.006.071-.012.105-.016.068-.007.134-.012.2-.013a1.577,1.577,0,0,1,.631.125,1.352,1.352,0,0,1,.222.122c.022.013.042.028.064.044a1.406,1.406,0,0,1,.109.091c.029-.028.057-.055.088-.082l.025-.021,0,0c.038-.033.078-.068.117-.1l.012-.01a.018.018,0,0,0,.007-.006l.057-.046.071-.055.011-.008c.043-.032.086-.064.131-.094l.008-.006c.045-.031.09-.062.137-.091h0l.012-.007c.051-.033.1-.065.148-.093l.036-.022.032-.018h0l.076-.044a.308.308,0,0,0,.032-.018c.039-.02.073-.039.109-.057l.018-.009c.042-.02.081-.04.12-.057h0l.095-.042c.043-.018.086-.036.126-.05.02-.008.04-.015.058-.021.076-.026.142-.046.2-.061h0a1.414,1.414,0,0,1,.167-.034v0l.047-.009h0l.006,0h0l.007,0c.033-.005.066-.01.1-.013h0a1.654,1.654,0,0,1,.571.03h0l.112.031,0,0c.035.011.068.023.1.037l.008,0a1.535,1.535,0,0,1,.2.1l.009.005a1.6,1.6,0,0,1,.175.128l.006.005.079.074h0c.027.027.051.054.076.084s.052.066.078.1.045.07.066.1l.005.011a1.508,1.508,0,0,1,.1.223.1.1,0,0,1,.006.017,1.139,1.139,0,0,1,.035.117s0,.009.005.015c.009.037.017.075.023.113,0,.006,0,.012,0,.018.007.041.011.081.016.124,0,.009,0,.018,0,.027,0,.044.006.086.006.132v2.28l.009-.031m-1.844-1.686v-.008c0-.031,0-.06,0-.089s-.006-.037-.008-.055a.3.3,0,0,1-.005-.031c0-.022-.009-.043-.015-.064a.064.064,0,0,1,0-.014c-.008-.023-.015-.046-.023-.07s-.022-.051-.032-.075l0,0c-.012-.023-.023-.046-.037-.068a.913.913,0,0,0-.064-.089l-.012-.012c-.022-.025-.045-.049-.069-.072,0,0-.005,0-.007-.006a.825.825,0,0,0-.191-.123.388.388,0,0,0-.05-.021c-.038.028-.074.06-.109.092l-.014.012c-.036.032-.072.066-.106.1l-.051.054a2.587,2.587,0,0,0-.286.371c-.029.047-.057.095-.084.143s-.035.068-.051.1a.053.053,0,0,1-.007.013c-.013.03-.027.06-.039.089a.134.134,0,0,0-.009.021l-.035.088c0,.007-.005.013-.007.02-.013.036-.024.071-.035.107s-.024.086-.033.13l0,.014c-.009.042-.018.085-.025.129s-.013.092-.018.138-.008.122-.008.182l-.008,3.276v.017c0,.026,0,.054,0,.08s.005.038.008.057,0,.019,0,.028a.549.549,0,0,0,.016.066.05.05,0,0,0,0,.011c.006.024.013.047.021.07a.843.843,0,0,0,.074.149.92.92,0,0,0,.063.089l.01.011a.735.735,0,0,0,.072.073.014.014,0,0,0,.006.005.772.772,0,0,0,.191.126c.016.007.033.015.051.021v0c.037-.029.073-.059.107-.089l.016-.014c.035-.032.07-.065.1-.1h0l.05-.053h0a2.408,2.408,0,0,0,.222-.272h0c.022-.031.044-.064.065-.1s.057-.094.084-.143v0c.017-.032.034-.064.05-.1,0-.008.007-.015.009-.022.013-.027.026-.055.037-.082a.228.228,0,0,0,.011-.027c.011-.027.022-.054.031-.081,0-.008.007-.017.01-.025.011-.033.023-.068.033-.1v0h0c.013-.042.024-.086.033-.128l0-.016c.009-.044.018-.086.025-.128s.014-.092.017-.138h0v-.006c0-.028,0-.056.006-.085s0-.061,0-.092Zm15.1,1.735v-.009l0-1.311v-.2a2.216,2.216,0,0,0-.1-.677,1.456,1.456,0,0,0-.215-.436l-.524-.684v0l-1.278,1.5-.912-1.284a1.214,1.214,0,0,1-.192-.665v-.306a1.661,1.661,0,0,0-.1-.576l.368-.213a1.669,1.669,0,0,1,.367-.15.852.852,0,0,1,.6.026l.043.02a.577.577,0,0,1,.242.372c0,.006,0,.014.007.022a.507.507,0,0,1,.016.068l.007.031a.792.792,0,0,1,.013.088c0,.006,0,.01.006.016.007.075.013.158.013.252v1.025l1.451-1.7.01-.013.3-.353a1.448,1.448,0,0,0-.274-.507.176.176,0,0,0-.026-.03,1.419,1.419,0,0,0-.742-.437,1.708,1.708,0,0,0-.684-.015,2.092,2.092,0,0,0-.623.22l-.235.136,0,0-1.149.664a1.519,1.519,0,0,0-1.4-.425,2.067,2.067,0,0,0-.624.222l-.923.532.5.408c.389-.134,1.012-.181,1.016.872v1.173a2.262,2.262,0,0,0,.1.672,1.393,1.393,0,0,0,.215.437h0l.046.059.031.041.445.583,0,0h0l1.275-1.5.849,1.189a1.214,1.214,0,0,1,.257.758v.941l-.266.152h0a1.608,1.608,0,0,1-.366.15.846.846,0,0,1-.6-.027.3.3,0,0,1-.043-.02.578.578,0,0,1-.243-.371l-.006-.022c-.007-.021-.011-.045-.017-.069s0-.019-.006-.03c-.006-.028-.011-.057-.015-.089a.048.048,0,0,1,0-.016,1.988,1.988,0,0,1-.016-.252v-1.026l-1.76,2.069a1.437,1.437,0,0,0,.274.508c.008.009.018.02.026.03a1.421,1.421,0,0,0,.74.436,1.71,1.71,0,0,0,.689.014,1.994,1.994,0,0,0,.621-.22l1.2-.69a1.326,1.326,0,0,0,.136.191.189.189,0,0,0,.027.031,1.4,1.4,0,0,0,.387.3l1.808-1.046a.822.822,0,0,1-.735-.846" transform="translate(-47.178 -53.301)" fill="#001a3b"/>
        <path id="パス_7465" data-name="パス 7465" d="M87.229,120.735h0l.007.005.027.022,0,0a1.48,1.48,0,0,1,.256.219.663.663,0,0,1,.176.255l0,0a.766.766,0,0,1,.052.284,1.048,1.048,0,0,1-.35.755c-.023.02-.046.04-.07.057a1,1,0,0,1-.184.117.34.34,0,0,0-.045.035.138.138,0,0,0-.056.061.153.153,0,0,0-.03.108c.036.223.922.325,2.026-1.394,0,0,.932-1.451.119-2.452-.021-.027-.043-.051-.065-.076l0,0h0c-.017-.018-.033-.034-.05-.05l-.027-.022a1.073,1.073,0,0,0-.895-.219,1.559,1.559,0,0,0-1.253,1.473,1.04,1.04,0,0,0,.365.82m2.717,6.2v-2.251a1.539,1.539,0,0,0-.347-1,1.425,1.425,0,0,0-.767-.467,1.7,1.7,0,0,0-.685-.014,2.074,2.074,0,0,0-.623.22l-1.258.725.524.355a.064.064,0,0,1,.013-.007l0,0a.05.05,0,0,1,.015-.008,1.1,1.1,0,0,1,.986-.093l0,0a.406.406,0,0,1,.138.141.028.028,0,0,1,.007.01l.016.026a1.351,1.351,0,0,1,.141.641v3.19a3.036,3.036,0,0,1-.016.309c0,.047-.011.093-.017.138a2.55,2.55,0,0,1-.059.295,2.3,2.3,0,0,1-.127.353c-.022.051-.046.1-.071.144a2.143,2.143,0,0,1-.323.443l-.066.066a2.466,2.466,0,0,1-.475.352,2.665,2.665,0,0,1-.9.311l.556.759v.011a.01.01,0,0,1,.007,0h0a4.307,4.307,0,0,0,2.32-1.456h0l1.782-2.1a1.1,1.1,0,0,1-.783-1.088m-3.851.291c-1.372,3.609-4.2,3.3-4.2,3.3h0a6.626,6.626,0,0,1-1.312-.113,3.326,3.326,0,0,0,.605-1.809v-6.378a1.772,1.772,0,0,1,1.413-1.58,1.506,1.506,0,0,1,.225-.021l0,0a1.24,1.24,0,0,1,.295.03l.037.008a1.16,1.16,0,0,1,.735.6l.021.046,0,0,.225-.265.387-.455h0l.376-.443.2-.24-.439-.1-.549-.122-.017,0-.3-.067-.579-.129.007.008a2.545,2.545,0,0,0-1.109-.031,3.412,3.412,0,0,0-2.79,3.192v6.213a2.784,2.784,0,0,1-1.411,2.453,2.979,2.979,0,0,0,.775-1.8v-6.893c0-.025,0-.047,0-.07a3.982,3.982,0,0,1,.836-2.1l-.844.489-3.015,1.735.511.228a.864.864,0,0,1,.24-.078.663.663,0,0,1,.812.665v6.834a3.8,3.8,0,0,1-.073.8c-.075.258-.343.733-1.27.935-.26.047-.462.07-.562.079l-.071.006.794,1.083.021-.015a9.8,9.8,0,0,0,1.856-.6l0,0,.177-.082a10.343,10.343,0,0,1,1.18-.442c.277-.075.614-.156,1-.227.083-.012.151-.024.207-.036a11.776,11.776,0,0,1,4.347.068l2.021-3.6" transform="translate(-33.271 -52.347)" fill="#001a3b"/>
        <path id="パス_7466" data-name="パス 7466" d="M83.084,181.98a1.045,1.045,0,0,1-.143-.01,1.028,1.028,0,0,1-.877-1.159c.018-.134,1.889-13.522,4.344-24.079,1.026-4.412,2.152-8.793,3.146-12.658,1.373-5.341,2.558-9.953,2.84-12.207.1-.779.234-2.03.4-3.554.949-8.667,1.961-17.288,2.983-19.192,2.3-4.288,4.822-4.859,7.256-5.411l.492-.112a1.028,1.028,0,1,1,.468,2l-.5.115c-2.345.532-4.039.916-5.9,4.379-.918,1.711-2.155,13.011-2.75,18.443-.168,1.537-.306,2.8-.4,3.585-.3,2.384-1.441,6.832-2.889,12.464-.99,3.854-2.113,8.223-3.134,12.612-2.434,10.465-4.292,23.763-4.311,23.9a1.028,1.028,0,0,1-1.017.887" transform="translate(-36.271 -45.782)" fill="#001a3b"/>
      </g>
    </g>
    <g id="グループ_8317" data-name="グループ 8317" transform="translate(1405.7 5830.92)">
      <g id="グループ_8316" data-name="グループ 8316" clip-path="url(#clip-path-2)">
        <g id="グループ_8315" data-name="グループ 8315" transform="translate(0 0)">
          <g id="グループ_8314" data-name="グループ 8314" clip-path="url(#clip-path-3)">
            <path id="パス_10798" data-name="パス 10798" d="M258.452,36.72c0,6.4-5.452,11.594-12.177,11.594S234.1,43.124,234.1,36.72s5.452-11.594,12.178-11.594,12.177,5.191,12.177,11.594" transform="translate(-125.694 -13.491)" fill="#d6e1e9"/>
            <path id="パス_10799" data-name="パス 10799" d="M248.052,31.551c1.245,1.185.664,3.659-1.3,5.526s-4.559,2.42-5.8,1.235-.664-3.659,1.3-5.526,4.559-2.42,5.8-1.235" transform="translate(-129.023 -16.605)" fill="#fff"/>
            <path id="パス_10800" data-name="パス 10800" d="M273.312,35.51a17.563,17.563,0,0,1-4.238-1.841,16.623,16.623,0,0,1-4.6-4.052,10.409,10.409,0,0,1-1.624-2.917,9.508,9.508,0,0,1-.392-1.564c-.177-.018-.357-.031-.536-.041a9.816,9.816,0,0,0,.766,2.588,12.311,12.311,0,0,0,1.907,2.892,17.466,17.466,0,0,0,4.857,3.89,18.068,18.068,0,0,0,3.9,1.571q-.015-.265-.042-.526" transform="translate(-140.634 -13.474)" fill="#de0520"/>
            <path id="パス_10801" data-name="パス 10801" d="M260.689,25.511A28.962,28.962,0,0,1,259.5,29.2a.24.24,0,0,0,.176.295.259.259,0,0,0,.31-.167,28.962,28.962,0,0,0,1.191-3.693c.075-.3-.41-.427-.485-.127" transform="translate(-139.326 -13.606)" fill="#de0520"/>
            <path id="パス_10802" data-name="パス 10802" d="M263.057,31.345a27.529,27.529,0,0,1-.92,3.43c-.1.294.386.42.485.127a27.613,27.613,0,0,0,.92-3.43.245.245,0,0,0-.176-.295.255.255,0,0,0-.309.167" transform="translate(-140.742 -16.736)" fill="#de0520"/>
            <path id="パス_10803" data-name="パス 10803" d="M266.658,36.22a23.432,23.432,0,0,1-.6,2.8c-.084.3.4.426.485.127a23.438,23.438,0,0,0,.6-2.8.246.246,0,0,0-.176-.295.255.255,0,0,0-.309.167" transform="translate(-142.847 -19.354)" fill="#de0520"/>
            <path id="パス_10804" data-name="パス 10804" d="M270.814,40.408a23.431,23.431,0,0,1-.6,2.8c-.084.3.4.426.485.127a23.438,23.438,0,0,0,.6-2.8.246.246,0,0,0-.176-.295.255.255,0,0,0-.309.167" transform="translate(-145.079 -21.602)" fill="#de0520"/>
            <path id="パス_10805" data-name="パス 10805" d="M275.842,43.792a23.438,23.438,0,0,1-.6,2.8c-.084.3.4.426.485.127a23.432,23.432,0,0,0,.6-2.8.246.246,0,0,0-.176-.295.255.255,0,0,0-.309.167" transform="translate(-147.778 -23.419)" fill="#de0520"/>
            <path id="パス_10806" data-name="パス 10806" d="M280.859,46.38a23.485,23.485,0,0,1,.577,2.808.255.255,0,0,0,.309.167.245.245,0,0,0,.176-.295,23.466,23.466,0,0,0-.576-2.808.252.252,0,0,0-.485.127" transform="translate(-150.797 -24.743)" fill="#de0520"/>
            <path id="パス_10807" data-name="パス 10807" d="M262.042,27.054a26.066,26.066,0,0,1,2.626,1.39.243.243,0,0,0,.254-.414,26.016,26.016,0,0,0-2.627-1.39.265.265,0,0,0-.344.086.236.236,0,0,0,.09.328" transform="translate(-140.633 -14.288)" fill="#de0520"/>
            <path id="パス_10808" data-name="パス 10808" d="M264.379,32.022a26.806,26.806,0,0,1,2.931.629.24.24,0,1,0,.134-.462,26.809,26.809,0,0,0-2.931-.63.261.261,0,0,0-.309.168.24.24,0,0,0,.176.295" transform="translate(-141.855 -16.943)" fill="#de0520"/>
            <path id="パス_10809" data-name="パス 10809" d="M267.5,36.682a26.962,26.962,0,0,1,3-.127.24.24,0,1,0,0-.479,27.072,27.072,0,0,0-3,.127.253.253,0,0,0-.251.24.247.247,0,0,0,.251.239" transform="translate(-143.493 -19.368)" fill="#de0520"/>
            <path id="パス_10810" data-name="パス 10810" d="M272.255,39.972a26.441,26.441,0,0,1,2.9-.457.253.253,0,0,0,.251-.239.248.248,0,0,0-.251-.239,27.514,27.514,0,0,0-3.032.473c-.316.068-.182.53.134.462" transform="translate(-146.014 -20.96)" fill="#de0520"/>
            <path id="パス_10811" data-name="パス 10811" d="M276.8,43.63a26.869,26.869,0,0,1,2.905-.731.241.241,0,0,0,.176-.295.259.259,0,0,0-.31-.167,26.765,26.765,0,0,0-2.905.73.241.241,0,1,0,.134.462" transform="translate(-148.458 -22.783)" fill="#de0520"/>
            <path id="パス_10812" data-name="パス 10812" d="M234.565,54.816A17.779,17.779,0,0,1,239,56.168a16.907,16.907,0,0,1,5.07,3.508,10.6,10.6,0,0,1,1.973,2.715,9.61,9.61,0,0,1,.583,1.509c.179,0,.358-.009.538-.019a9.943,9.943,0,0,0-1.081-2.484,12.526,12.526,0,0,0-2.252-2.658,17.741,17.741,0,0,0-5.3-3.318,18.283,18.283,0,0,0-4.07-1.122q.048.261.107.518" transform="translate(-125.888 -29.154)" fill="#de0520"/>
            <path id="パス_10813" data-name="パス 10813" d="M261.082,69.672a28.671,28.671,0,0,1,.726-3.8.243.243,0,0,0-.211-.273.255.255,0,0,0-.287.2,28.593,28.593,0,0,0-.727,3.8c-.037.306.46.379.5.072" transform="translate(-139.915 -35.22)" fill="#de0520"/>
            <path id="パス_10814" data-name="パス 10814" d="M258.321,64.453a27.38,27.38,0,0,1,.489-3.51c.063-.3-.435-.374-.5-.072a27.38,27.38,0,0,0-.489,3.51.249.249,0,0,0,.211.273.253.253,0,0,0,.287-.2" transform="translate(-138.433 -32.58)" fill="#de0520"/>
            <path id="パス_10815" data-name="パス 10815" d="M254.51,60.738a23.336,23.336,0,0,1,.253-2.851.252.252,0,0,0-.5-.072,23.357,23.357,0,0,0-.254,2.851.252.252,0,0,0,.5.072" transform="translate(-136.387 -30.937)" fill="#de0520"/>
            <path id="パス_10816" data-name="パス 10816" d="M249.865,57.045a23.336,23.336,0,0,1,.253-2.851.252.252,0,0,0-.5-.072,23.345,23.345,0,0,0-.254,2.851.251.251,0,0,0,.211.273c.121.017.283-.071.287-.2" transform="translate(-133.893 -28.954)" fill="#de0520"/>
            <path id="パス_10817" data-name="パス 10817" d="M244.453,54.249a23.333,23.333,0,0,1,.253-2.851.252.252,0,0,0-.5-.072,23.345,23.345,0,0,0-.254,2.851.25.25,0,0,0,.211.273c.121.017.283-.071.287-.2" transform="translate(-130.987 -27.453)" fill="#de0520"/>
            <path id="パス_10818" data-name="パス 10818" d="M238.785,52.308a23.719,23.719,0,0,1-.92-2.724.257.257,0,0,0-.328-.132.242.242,0,0,0-.138.313,23.661,23.661,0,0,0,.92,2.724c.117.287.583.107.466-.181" transform="translate(-127.461 -26.544)" fill="#de0520"/>
            <path id="パス_10819" data-name="パス 10819" d="M257.711,71.277a26.452,26.452,0,0,1-2.78-1.086.242.242,0,0,0-.2.439,26.448,26.448,0,0,0,2.78,1.086.264.264,0,0,0,.331-.124.237.237,0,0,0-.13-.315" transform="translate(-136.696 -37.674)" fill="#de0520"/>
            <path id="パス_10820" data-name="パス 10820" d="M254.532,67.526a26.909,26.909,0,0,1-2.989-.3.24.24,0,1,0-.076.474,27.037,27.037,0,0,0,2.989.3.258.258,0,0,0,.287-.2.244.244,0,0,0-.211-.273" transform="translate(-134.911 -36.096)" fill="#de0520"/>
            <path id="パス_10821" data-name="パス 10821" d="M250.865,63.436a26.99,26.99,0,0,1-2.965.464.24.24,0,1,0,.059.476,26.879,26.879,0,0,0,2.966-.464.24.24,0,1,0-.059-.476" transform="translate(-132.991 -34.059)" fill="#de0520"/>
            <path id="パス_10822" data-name="パス 10822" d="M245.772,60.321a26.129,26.129,0,0,1-2.821.778.24.24,0,1,0,.059.476,27.265,27.265,0,0,0,2.952-.81c.306-.1.115-.546-.19-.444" transform="translate(-130.329 -32.38)" fill="#de0520"/>
            <path id="パス_10823" data-name="パス 10823" d="M240.882,56.888a26.5,26.5,0,0,1-2.795,1.052.238.238,0,0,0-.138.312.261.261,0,0,0,.328.132,26.5,26.5,0,0,0,2.795-1.052.241.241,0,0,0-.19-.444" transform="translate(-127.753 -30.532)" fill="#de0520"/>
            <g id="グループ_8313" data-name="グループ 8313" transform="translate(115.272 11.775)" opacity="0.2">
              <g id="グループ_8312" data-name="グループ 8312">
                <g id="グループ_8311" data-name="グループ 8311" clip-path="url(#clip-path-4)">
                  <path id="パス_10824" data-name="パス 10824" d="M256.151,25.428a11.564,11.564,0,0,1,6.883,10.444c0,6.4-5.452,11.594-12.177,11.594a12.894,12.894,0,0,1-1.923-.144,12.641,12.641,0,0,0,5.295,1.15c6.725,0,12.177-5.191,12.177-11.594a11.786,11.786,0,0,0-10.254-11.45" transform="translate(-248.933 -25.428)" fill="#032643"/>
                </g>
              </g>
            </g>
            <path id="パス_10825" data-name="パス 10825" d="M58.55,20.966a11.608,11.608,0,0,1-1.529-.1c-4.345-.58-7.043-2.228-8.02-4.9-1.13-3.095.586-6.528,2.568-8.709A13.982,13.982,0,0,1,55.68,4.276C39.412,2.328,17.365,8.542,2.908,16.39A1.969,1.969,0,1,1,1.03,12.929C21.584,1.77,47.783-2.895,63.325,1.835l.1.032a42.973,42.973,0,0,1,9.617-.494,52.207,52.207,0,0,1,31.119,13.021,1.969,1.969,0,1,1-2.593,2.964A47.532,47.532,0,0,0,69.454,5.283a6.775,6.775,0,0,1,1.935,6.522c-1.094,5.036-7.073,9.16-12.839,9.161M63.188,5.943c-4.076.809-7.169,2.273-8.7,3.963-1.2,1.324-2.275,3.362-1.783,4.709.422,1.154,2.141,1.988,4.841,2.348,4.475.6,9.317-2.855,10-5.993.571-2.629-2.131-4.2-4.352-5.026" transform="translate(0 0)" fill="#d65a63"/>
          </g>
        </g>
      </g>
    </g>
  </g>
</svg>
