<svg id="グループ_1809" data-name="グループ 1809" xmlns="http://www.w3.org/2000/svg" xmlns:xlink="http://www.w3.org/1999/xlink" width="204.063" height="85.379" viewBox="0 0 204.063 85.379">
  <defs>
    <clipPath id="clip-path">
      <rect id="長方形_1501" data-name="長方形 1501" width="204.063" height="85.379" fill="#0c417d"/>
    </clipPath>
  </defs>
  <g id="グループ_1808" data-name="グループ 1808" transform="translate(0 0)" clip-path="url(#clip-path)">
    <path id="パス_1349" data-name="パス 1349" d="M163.067,35.281a6.356,6.356,0,0,0,4.506,6.284L157.292,53.659l0,0a24.91,24.91,0,0,1-13.39,8.4h0l-.042.013.01-.062-3.216-4.373c.221-.026.437-.059.656-.1a12.694,12.694,0,0,0,4.62-1.817,14.262,14.262,0,0,0,2.5-2.018c.1-.1.2-.2.3-.309a14.524,14.524,0,0,0,1.651-2.139c.17-.27.334-.548.486-.828a13.814,13.814,0,0,0,1.06-2.551,11.831,11.831,0,0,0,.354-1.569c.049-.265.08-.532.106-.8.034-.35.051-.7.051-1.062v-1.6h0c.028-.579.046-1.188.046-1.836l-.023-16.2a7.374,7.374,0,0,0-.725-3.044,2.6,2.6,0,0,0-1.013-1.165c-2.422-1.435-5.782.586-5.859.632-.006.006-.008.006-.008.006L142.845,22.4a9.543,9.543,0,0,1,.594,3.365V38.742a6.357,6.357,0,0,0,4.515,6.284l-10.282,12.1v-.01a24.864,24.864,0,0,1-13.384,8.405h-.006a.441.441,0,0,1-.043.013l.01-.057L121.035,61.1c.216-.03.432-.059.653-.1a12.819,12.819,0,0,0,4.62-1.823,14.388,14.388,0,0,0,2.507-2.016c.1-.1.2-.206.3-.314a13.955,13.955,0,0,0,1.65-2.136c.173-.275.334-.548.486-.833a13.42,13.42,0,0,0,1.061-2.543,12.245,12.245,0,0,0,.355-1.571c.043-.265.079-.535.106-.8.028-.352.043-.7.043-1.057V46.3c.031-.581.046-1.193.046-1.843l-.018-16.2a7.382,7.382,0,0,0-.728-3.042,2.582,2.582,0,0,0-1.008-1.167h0a5.052,5.052,0,0,0-4.1-.144l-.018-.01-.427-.355-.758-.622-1.674-1.381,5.33-3.073a11.9,11.9,0,0,1,3.594-1.275,9.691,9.691,0,0,1,3.957.09,8.161,8.161,0,0,1,4.106,2.332l.049-.031L149.088,15a12.114,12.114,0,0,1,3.583-1.265,9.865,9.865,0,0,1,3.963.085,8.175,8.175,0,0,1,4.422,2.692,8.858,8.858,0,0,1,2.011,5.78ZM69.019,13.344v0l.042.028c.049.041.1.087.154.126l-.018.013a8.562,8.562,0,0,1,1.476,1.262,3.836,3.836,0,0,1,1.016,1.47.1.1,0,0,1,.007.018,4.5,4.5,0,0,1,.3,1.641,6.03,6.03,0,0,1-2.026,4.352c-.131.118-.265.23-.406.334a5.461,5.461,0,0,1-1.062.671,2.1,2.1,0,0,0-.252.2.789.789,0,0,0-.326.352.9.9,0,0,0-.167.622c.206,1.285,5.322,1.874,11.685-8.044,0,0,5.376-8.371.689-14.149-.121-.151-.245-.293-.376-.437,0,0,0-.01-.007-.013h-.006c-.1-.106-.2-.2-.288-.288-.049-.042-.1-.087-.154-.131A6.184,6.184,0,0,0,74.136.114a8.991,8.991,0,0,0-7.228,8.5,6.007,6.007,0,0,0,2.111,4.733M84.694,49.1V36.114a8.866,8.866,0,0,0-2-5.78,8.206,8.206,0,0,0-4.425-2.694,9.826,9.826,0,0,0-3.957-.082,11.941,11.941,0,0,0-3.591,1.27l-7.256,4.18,3.021,2.047a.487.487,0,0,1,.077-.042s.014-.007.021-.013a.415.415,0,0,1,.082-.049c.725-.394,3.574-1.795,5.69-.538l.013.01a2.415,2.415,0,0,1,.8.81.2.2,0,0,1,.038.059c.03.049.066.1.092.149a7.716,7.716,0,0,1,.818,3.7c0,.059,0,.118,0,.18,0,.021,0,.034,0,.054l0,18.169c0,.622-.033,1.211-.09,1.782-.026.27-.062.537-.1.8a14.885,14.885,0,0,1-.342,1.7,13.5,13.5,0,0,1-.73,2.039c-.13.29-.267.56-.409.828a12.484,12.484,0,0,1-1.866,2.558c-.129.126-.254.254-.381.38a13.879,13.879,0,0,1-2.744,2.029,15.311,15.311,0,0,1-5.167,1.794L65.5,75.829l0,.059a.075.075,0,0,1,.041-.008v-.007a24.849,24.849,0,0,0,13.388-8.4l0,0,10.284-12.1A6.352,6.352,0,0,1,84.694,49.1m38.661-6.81a6.321,6.321,0,0,0,4.453,6.286L116.184,62.151c0,.008,0,.01-.01.01-.224.234-.461.468-.694.694a.072.072,0,0,1-.031.026c-.231.218-.468.434-.707.65a.6.6,0,0,0-.059.054c-.231.2-.462.4-.7.591-.026.026-.062.046-.093.074-.224.186-.46.37-.694.546-.036.028-.072.054-.11.085-.231.17-.463.342-.7.509l-.1.067c-.247.172-.494.331-.738.491h-.007a.294.294,0,0,1-.062.043c-.3.2-.591.376-.881.553-.09.054-.175.1-.265.15-.2.121-.4.234-.589.337-.087.051-.17.1-.26.142-.193.108-.386.2-.574.3l-.193.1c-.246.124-.481.232-.709.332-.162.074-.318.144-.47.206v0c-.172.07-.339.129-.5.2,0,0-.01,0-.01,0-.162.059-.308.118-.455.165l0,0-.007.006a1.53,1.53,0,0,0-.188.064c-.008,0-.008,0-.01,0-.093.029-.178.052-.257.08-.062.018-.118.041-.175.051-.093.031-.178.054-.26.074-.041.013-.085.026-.123.036-.093.026-.165.044-.244.062a.473.473,0,0,1-.09.026,1.02,1.02,0,0,0-.154.033c-.041.006-.087.021-.121.026a.18.18,0,0,0-.033,0c-.3.062-.468.08-.468.08v-.01c-.093.023-.19.043-.283.057h-.01s-.008,0-.008.007a.074.074,0,0,1-.026,0l-.03.006a9.823,9.823,0,0,1-3.887-.1c-.219-.054-.438-.114-.648-.18-.006,0-.013-.006-.021-.008-.2-.062-.4-.136-.591-.214a.173.173,0,0,1-.042-.018A8.2,8.2,0,0,1,97.753,68a.172.172,0,0,1-.051-.034,7.891,7.891,0,0,1-1.018-.733.1.1,0,0,0-.031-.028c-.159-.136-.31-.28-.458-.424v0c-.151-.154-.3-.314-.439-.478a8.731,8.731,0,0,1-.833-1.193.153.153,0,0,0-.026-.051,8.574,8.574,0,0,1-.6-1.3c0-.028-.023-.059-.028-.09-.08-.224-.149-.447-.208-.681l-.021-.077c-.054-.222-.1-.438-.142-.661,0-.031-.01-.062-.018-.1-.036-.236-.07-.475-.088-.72-.007-.049-.013-.1-.015-.151-.021-.25-.028-.5-.028-.758V35.906c0-6.158-3.623-5.883-5.873-5.109l-2.656-2.185,7.037-3.327a11.554,11.554,0,0,1,1.728-.447c.2-.036.406-.067.607-.09.391-.042.777-.067,1.157-.072a9.033,9.033,0,0,1,3.639.72,7.7,7.7,0,0,1,1.28.7c.124.078.245.165.366.252a7.749,7.749,0,0,1,.633.525c.166-.162.331-.319.506-.473.043-.039.093-.08.144-.122l.01-.015c.221-.19.445-.388.676-.576a.736.736,0,0,0,.07-.057.125.125,0,0,0,.041-.033c.11-.085.224-.178.332-.262.142-.108.278-.216.414-.322l.065-.046c.246-.185.5-.367.75-.542.018-.01.031-.021.049-.031.26-.18.522-.357.789-.524l0,0c.026-.015.044-.028.067-.041.293-.193.578-.375.859-.535.069-.046.136-.085.206-.128s.123-.065.185-.1v0c.15-.085.3-.17.44-.25.064-.03.121-.066.185-.1.222-.118.422-.226.63-.33.03-.018.066-.034.1-.051.239-.116.466-.231.692-.332h0c.19-.087.373-.164.548-.242.25-.108.5-.208.725-.286.116-.049.226-.085.334-.121.442-.151.821-.267,1.132-.35l.028,0a8.072,8.072,0,0,1,.964-.2v.01c.093-.018.182-.041.273-.054h.018l.008,0a.062.062,0,0,0,.031-.014v.008a.18.18,0,0,0,.038-.01c.193-.028.383-.056.574-.077h0a9.574,9.574,0,0,1,3.3.174h.01v0c.216.054.435.115.646.177a.054.054,0,0,1,.026.01c.2.065.391.134.581.211a.269.269,0,0,0,.049.018,8.492,8.492,0,0,1,1.129.574.341.341,0,0,0,.054.028,8.928,8.928,0,0,1,1.013.736.424.424,0,0,0,.034.03c.157.142.308.283.455.425v0c.157.154.3.314.439.483s.3.381.448.582.259.4.382.6a.543.543,0,0,0,.031.059,8.781,8.781,0,0,1,.591,1.288.988.988,0,0,1,.034.1c.078.221.146.445.2.676.01.026.015.057.028.085.052.214.1.434.137.653,0,.036.015.067.018.1.042.234.065.47.09.715,0,.051,0,.1.01.154.018.252.033.5.033.759V42.465l.057-.174m-10.639-9.726c0-.015,0-.031,0-.046,0-.178-.008-.35-.018-.514-.018-.11-.033-.214-.046-.318-.01-.059-.021-.118-.029-.178-.023-.129-.054-.25-.087-.37a.463.463,0,0,1-.018-.08c-.043-.134-.085-.267-.134-.4s-.123-.294-.182-.438a.162.162,0,0,0-.015-.023c-.07-.134-.137-.267-.216-.393a4.486,4.486,0,0,0-.368-.512c-.021-.023-.043-.049-.066-.072-.126-.144-.258-.28-.4-.414a.123.123,0,0,1-.043-.036,4.772,4.772,0,0,0-1.1-.712,2.816,2.816,0,0,0-.29-.123c-.219.167-.425.347-.63.53-.028.023-.054.046-.08.07-.208.185-.416.38-.612.578-.094.1-.2.2-.293.309a14.6,14.6,0,0,0-1.651,2.141c-.17.268-.334.546-.486.825-.1.2-.2.394-.3.591a.4.4,0,0,1-.041.078c-.075.172-.154.344-.226.517a1.27,1.27,0,0,0-.051.121c-.067.167-.131.339-.2.509-.01.038-.028.075-.041.114-.075.206-.142.409-.2.619-.075.247-.139.5-.2.749,0,.028-.013.051-.018.079-.054.247-.106.494-.146.749s-.075.53-.1.8c-.033.352-.049.7-.049,1.054l-.046,18.9c0,.014.006.029.006.044s0,.031,0,.051a4.605,4.605,0,0,0,.023.461c.01.115.028.223.046.334.007.054.015.108.021.159a3.106,3.106,0,0,0,.092.383.215.215,0,0,0,.018.064c.036.139.079.275.123.4a5.23,5.23,0,0,0,.789,1.373.7.7,0,0,1,.059.067,3.987,3.987,0,0,0,.414.417.111.111,0,0,0,.036.03,4.6,4.6,0,0,0,1.1.722c.093.039.193.088.294.124,0,0,.007-.006.007-.01.216-.167.417-.342.614-.514.031-.028.062-.054.093-.085.2-.182.406-.373.6-.571l.006,0c.1-.1.2-.2.288-.306,0,0,0-.006.007-.006a14.007,14.007,0,0,0,1.275-1.571l0,0c.123-.182.249-.373.373-.563.167-.27.331-.545.483-.825,0-.007,0-.013,0-.015.1-.188.2-.37.286-.555.023-.044.038-.085.057-.124.074-.157.146-.316.214-.475.023-.049.043-.1.062-.154.064-.154.126-.311.182-.468.015-.049.042-.1.057-.146.064-.193.131-.391.19-.584a.1.1,0,0,0,0-.026l0,0c.078-.245.139-.494.2-.741.008-.031.016-.062.021-.09.057-.249.106-.5.144-.737.044-.267.08-.53.1-.8v-.008a.049.049,0,0,0,.008-.034c.015-.162.023-.324.034-.489s.013-.352.013-.532Zm87.1,10.009c0-.021-.007-.034-.007-.051l.02-7.562V33.811a12.756,12.756,0,0,0-.56-3.906,8.467,8.467,0,0,0-1.24-2.515l-3.024-3.946v-.008L187.636,32.1l-5.261-7.41a7.021,7.021,0,0,1-1.105-3.839V19.086a9.572,9.572,0,0,0-.583-3.322l2.124-1.226a9.641,9.641,0,0,1,2.116-.866,4.912,4.912,0,0,1,3.435.152c.085.041.165.074.247.115a3.326,3.326,0,0,1,1.4,2.147.857.857,0,0,1,.036.126,3.066,3.066,0,0,1,.093.393c.013.059.026.116.036.175a4.865,4.865,0,0,1,.08.51c.015.036.015.058.03.09a14.313,14.313,0,0,1,.075,1.458v5.91l8.368-9.826.059-.074,1.728-2.036a8.364,8.364,0,0,0-1.579-2.928,1.394,1.394,0,0,0-.149-.172A8.163,8.163,0,0,0,194.5,7.19a9.824,9.824,0,0,0-3.947-.085,12.016,12.016,0,0,0-3.6,1.27l-1.355.786-.013-.015-6.629,3.831a8.762,8.762,0,0,0-8.084-2.45,11.947,11.947,0,0,0-3.6,1.277l-5.324,3.073,2.861,2.355c2.244-.771,5.841-1.046,5.865,5.029v6.765a12.989,12.989,0,0,0,.563,3.879,8.086,8.086,0,0,0,1.237,2.525h-.01l.267.337.175.239,2.571,3.36c.013.013.013.02.013.02v0l7.359-8.649,4.9,6.86a6.992,6.992,0,0,1,1.483,4.376v5.425l-1.529.881-.013.006a9.344,9.344,0,0,1-2.113.866,4.889,4.889,0,0,1-3.435-.154,2.1,2.1,0,0,1-.246-.116,3.332,3.332,0,0,1-1.4-2.141c-.013-.042-.023-.085-.036-.129-.038-.123-.059-.257-.1-.4-.01-.054-.021-.11-.034-.172-.036-.16-.059-.33-.085-.512a.251.251,0,0,1-.01-.09,11.2,11.2,0,0,1-.092-1.45V38.071L169.993,50.008a8.259,8.259,0,0,0,1.579,2.928c.046.056.1.115.149.174a8.184,8.184,0,0,0,4.268,2.517,9.866,9.866,0,0,0,3.972.082,11.586,11.586,0,0,0,3.584-1.273l6.919-3.983a7.689,7.689,0,0,0,.784,1.1.966.966,0,0,0,.154.177,8.035,8.035,0,0,0,2.229,1.754l10.43-6.034a4.74,4.74,0,0,1-4.243-4.88M62.473,50.778C54.563,71.6,38.267,69.832,38.267,69.832v0a38.121,38.121,0,0,1-7.568-.648,19.2,19.2,0,0,0,3.494-10.442v-36.8a10.217,10.217,0,0,1,8.15-9.114,8.763,8.763,0,0,1,1.3-.121l.01-.01a7.3,7.3,0,0,1,1.7.17c.072.013.139.036.209.049a6.677,6.677,0,0,1,4.242,3.438c.082.17.123.265.123.265l.01-.013,1.3-1.528,2.235-2.624,0-.008,2.17-2.553,1.177-1.385-2.535-.566-3.165-.706-.1-.026-1.741-.386-3.337-.745.042.049a14.709,14.709,0,0,0-6.4-.178C23.746,9.266,23.492,24.358,23.492,24.358V60.206c0,6.941-3.69,11.353-8.137,14.153,4.186-4.087,4.466-10.394,4.466-10.394V24.193c0-.138,0-.267.008-.4a22.955,22.955,0,0,1,4.818-12.123l-4.864,2.82L2.391,24.5l2.947,1.317a4.976,4.976,0,0,1,1.381-.453,3.826,3.826,0,0,1,4.69,3.839V68.633a22.038,22.038,0,0,1-.419,4.615c-.44,1.489-1.98,4.227-7.336,5.4-1.5.272-2.664.4-3.242.452-.134.014-.27.026-.411.034l4.586,6.248.118-.085a56.693,56.693,0,0,0,10.709-3.453.113.113,0,0,1,.023-.01c.346-.157.689-.314,1.021-.47a59.461,59.461,0,0,1,6.81-2.556c1.6-.434,3.54-.9,5.772-1.306.474-.066.867-.138,1.193-.208a67.953,67.953,0,0,1,25.078.39L66.973,56.9" transform="translate(0 0)" fill="#0c417d"/>
  </g>
</svg>
