<svg id="グループ_3155" data-name="グループ 3155" xmlns="http://www.w3.org/2000/svg" xmlns:xlink="http://www.w3.org/1999/xlink" width="143.136" height="59.887" viewBox="0 0 143.136 59.887">
  <defs>
    <clipPath id="clip-path">
      <rect id="長方形_1501" data-name="長方形 1501" width="143.136" height="59.887" fill="#fff"/>
    </clipPath>
  </defs>
  <g id="グループ_1808" data-name="グループ 1808" transform="translate(0 0)" clip-path="url(#clip-path)">
    <path id="パス_1349" data-name="パス 1349" d="M114.38,24.747a4.458,4.458,0,0,0,3.161,4.408l-7.211,8.483,0,0a17.473,17.473,0,0,1-9.392,5.9h0l-.029.009.007-.043-2.256-3.067c.155-.018.306-.042.46-.071a8.9,8.9,0,0,0,3.241-1.275,10,10,0,0,0,1.756-1.416c.072-.072.141-.141.208-.217a10.187,10.187,0,0,0,1.158-1.5c.119-.19.235-.384.341-.581a9.689,9.689,0,0,0,.743-1.789,8.3,8.3,0,0,0,.249-1.1c.034-.186.056-.373.074-.56.024-.245.036-.493.036-.745V30.05h0c.02-.406.033-.833.033-1.288L106.941,17.4a5.172,5.172,0,0,0-.509-2.135,1.82,1.82,0,0,0-.71-.817c-1.7-1.007-4.056.411-4.11.443,0,0-.006,0-.006,0l-1.41.815a6.694,6.694,0,0,1,.417,2.36v9.1a4.459,4.459,0,0,0,3.167,4.408l-7.212,8.485V40.06a17.44,17.44,0,0,1-9.388,5.9h0l-.03.009.007-.04L84.9,42.857c.151-.021.3-.042.458-.068A8.992,8.992,0,0,0,88.6,41.51,10.092,10.092,0,0,0,90.355,40.1c.07-.072.137-.144.208-.22a9.788,9.788,0,0,0,1.157-1.5c.121-.193.235-.384.341-.584a9.414,9.414,0,0,0,.745-1.784,8.589,8.589,0,0,0,.249-1.1c.03-.186.056-.375.074-.561.02-.247.03-.494.03-.741V32.479c.022-.407.033-.837.033-1.293l-.012-11.36a5.178,5.178,0,0,0-.511-2.134,1.811,1.811,0,0,0-.707-.819h0a3.544,3.544,0,0,0-2.873-.1l-.012-.007-.3-.249-.532-.436-1.174-.968,3.739-2.156a8.345,8.345,0,0,1,2.521-.894,6.8,6.8,0,0,1,2.776.063,5.725,5.725,0,0,1,2.88,1.635l.034-.022,5.558-3.215a8.5,8.5,0,0,1,2.514-.887,6.92,6.92,0,0,1,2.779.059,5.735,5.735,0,0,1,3.1,1.888,6.213,6.213,0,0,1,1.411,4.054ZM48.412,9.36v0l.029.02.108.089-.013.009a6.006,6.006,0,0,1,1.035.885,2.69,2.69,0,0,1,.713,1.031.067.067,0,0,1,.005.013A3.156,3.156,0,0,1,50.5,12.56a4.229,4.229,0,0,1-1.421,3.053c-.092.083-.186.161-.285.235a3.831,3.831,0,0,1-.745.471,1.476,1.476,0,0,0-.177.141.553.553,0,0,0-.229.247.634.634,0,0,0-.117.437c.144.9,3.733,1.315,8.2-5.643,0,0,3.771-5.872.484-9.925-.085-.106-.172-.205-.264-.306,0,0,0-.007-.005-.009h0c-.067-.074-.137-.137-.2-.2-.034-.029-.07-.061-.108-.092A4.338,4.338,0,0,0,52,.08a6.307,6.307,0,0,0-5.07,5.96,4.214,4.214,0,0,0,1.481,3.32m11,25.08V25.332A6.219,6.219,0,0,0,58,21.278a5.756,5.756,0,0,0-3.1-1.89,6.892,6.892,0,0,0-2.776-.058,8.376,8.376,0,0,0-2.519.891l-5.089,2.932,2.119,1.436a.341.341,0,0,1,.054-.029s.01-.005.015-.009a.291.291,0,0,1,.058-.034c.508-.276,2.507-1.259,3.991-.377l.009.007a1.694,1.694,0,0,1,.558.568.14.14,0,0,1,.027.042c.021.034.047.068.065.1a5.412,5.412,0,0,1,.574,2.593c0,.042,0,.083,0,.126,0,.015,0,.024,0,.038l0,12.744c0,.437-.023.849-.063,1.25-.018.189-.043.376-.068.559a10.438,10.438,0,0,1-.24,1.192,9.47,9.47,0,0,1-.512,1.43c-.091.2-.187.393-.287.581a8.757,8.757,0,0,1-1.309,1.794c-.09.088-.178.178-.267.267a9.735,9.735,0,0,1-1.924,1.423,10.74,10.74,0,0,1-3.624,1.258l2.252,3.071,0,.042a.052.052,0,0,1,.029-.006V53.22a17.43,17.43,0,0,0,9.39-5.892l0,0,7.214-8.487a4.456,4.456,0,0,1-3.167-4.4m27.118-4.777a4.434,4.434,0,0,0,3.123,4.409L81.5,43.595c0,.006,0,.007-.007.007-.157.164-.323.328-.487.487a.05.05,0,0,1-.022.018c-.162.153-.328.3-.5.456a.42.42,0,0,0-.042.038c-.162.14-.324.278-.494.415-.019.018-.044.033-.065.052-.157.13-.323.26-.487.383-.025.02-.05.038-.077.059-.162.119-.325.24-.494.357l-.07.047c-.173.121-.346.232-.518.344h-.005a.207.207,0,0,1-.044.03c-.211.139-.415.264-.618.388-.063.038-.123.068-.186.1-.137.085-.278.164-.413.236-.061.036-.119.068-.182.1-.135.076-.27.14-.4.207l-.135.068c-.173.087-.337.163-.5.233-.113.052-.223.1-.33.144v0c-.121.049-.238.09-.352.137,0,0-.007,0-.007,0-.113.042-.216.083-.319.116l0,0-.005,0a1.072,1.072,0,0,0-.132.045c-.006,0-.006,0-.007,0-.065.02-.125.036-.18.056s-.083.029-.123.036c-.065.022-.125.038-.182.052-.029.009-.059.019-.086.025-.065.019-.116.031-.171.043a.331.331,0,0,1-.063.019.715.715,0,0,0-.108.023c-.029,0-.061.015-.085.019l-.023,0c-.212.043-.328.056-.328.056v-.007c-.065.016-.134.03-.2.04h-.007s-.006,0-.006.005a.052.052,0,0,1-.018,0l-.021,0a6.89,6.89,0,0,1-2.727-.068c-.154-.038-.307-.08-.454-.126,0,0-.009,0-.015-.006-.143-.043-.278-.1-.415-.15a.121.121,0,0,1-.029-.012,5.751,5.751,0,0,1-.792-.4.121.121,0,0,1-.036-.024,5.536,5.536,0,0,1-.714-.514.073.073,0,0,0-.022-.02c-.112-.1-.218-.2-.321-.3v0c-.106-.108-.209-.22-.308-.335a6.125,6.125,0,0,1-.585-.837.107.107,0,0,0-.018-.036,6.013,6.013,0,0,1-.419-.913c0-.02-.016-.042-.02-.063-.056-.157-.1-.314-.146-.478l-.015-.054c-.038-.155-.072-.307-.1-.463,0-.022-.007-.044-.012-.069-.025-.166-.049-.333-.062-.5-.005-.034-.009-.072-.011-.106-.015-.175-.02-.353-.02-.532V25.186c0-4.32-2.541-4.127-4.119-3.583L59.779,20.07l4.936-2.334a8.105,8.105,0,0,1,1.212-.314c.143-.025.285-.047.426-.063.274-.029.545-.047.811-.05a6.336,6.336,0,0,1,2.552.5,5.4,5.4,0,0,1,.9.494c.087.054.172.116.256.177a5.435,5.435,0,0,1,.444.368c.117-.114.232-.224.355-.332.03-.027.065-.056.1-.085l.007-.011c.155-.134.312-.272.474-.4a.515.515,0,0,0,.049-.04.088.088,0,0,0,.029-.023c.077-.059.157-.125.233-.184.1-.076.195-.151.29-.226l.045-.033c.173-.13.35-.258.526-.38l.034-.022c.182-.126.366-.25.554-.367l0,0,.047-.029c.205-.135.406-.263.6-.375.048-.032.1-.059.144-.09s.086-.045.13-.072v0c.1-.059.208-.119.309-.175.045-.021.085-.047.13-.072.155-.083.3-.159.442-.231.021-.012.047-.024.073-.036.168-.081.327-.162.485-.233h0c.134-.061.261-.115.384-.169.175-.076.35-.146.508-.2.081-.034.159-.059.235-.085.31-.106.576-.187.794-.245l.02,0a5.662,5.662,0,0,1,.676-.139V14.6c.065-.012.128-.029.191-.038H79.2l.006,0a.044.044,0,0,0,.022-.01v.006a.126.126,0,0,0,.027-.007c.135-.02.269-.039.4-.054h0a6.716,6.716,0,0,1,2.312.122h.007v0c.151.038.305.081.453.124a.038.038,0,0,1,.018.007c.139.045.274.094.408.148a.189.189,0,0,0,.034.012,5.956,5.956,0,0,1,.792.4.24.24,0,0,0,.038.02,6.262,6.262,0,0,1,.711.516l.024.021c.11.1.216.2.319.3v0c.11.108.207.22.308.339s.213.267.314.408.182.281.268.424a.378.378,0,0,0,.022.042,6.16,6.16,0,0,1,.415.9.7.7,0,0,1,.024.071c.054.155.1.312.143.474.007.018.011.04.02.059.036.15.069.3.1.458,0,.025.011.047.012.072.029.164.045.33.063.5,0,.036,0,.072.007.108.012.177.023.35.023.532v9.228l.04-.122m-7.463-6.822c0-.011,0-.022,0-.033,0-.125-.006-.245-.013-.361-.012-.077-.023-.15-.032-.223-.007-.042-.015-.083-.02-.125-.016-.09-.038-.175-.061-.26a.325.325,0,0,1-.013-.056c-.03-.094-.059-.187-.094-.283s-.086-.206-.128-.307a.114.114,0,0,0-.011-.016c-.049-.094-.1-.187-.151-.275a3.148,3.148,0,0,0-.258-.359c-.015-.016-.03-.034-.047-.05-.089-.1-.181-.2-.28-.291a.086.086,0,0,1-.03-.025,3.347,3.347,0,0,0-.774-.5,1.976,1.976,0,0,0-.2-.086c-.154.117-.3.243-.442.371l-.056.049c-.146.13-.292.267-.429.406-.066.072-.139.143-.205.217a10.241,10.241,0,0,0-1.158,1.5c-.119.188-.234.383-.341.579-.072.137-.143.276-.209.415a.282.282,0,0,1-.029.054c-.053.121-.108.241-.159.362a.891.891,0,0,0-.036.085c-.047.117-.092.238-.139.357-.007.027-.02.053-.029.08-.053.144-.1.287-.143.434-.053.173-.1.348-.137.525,0,.02-.009.036-.012.056-.038.173-.074.347-.1.525s-.053.371-.071.559c-.023.247-.034.494-.034.739L73.18,40.165c0,.01,0,.02,0,.031s0,.022,0,.036a3.229,3.229,0,0,0,.016.323c.007.081.02.157.033.235.005.038.011.076.015.112a2.179,2.179,0,0,0,.065.269.151.151,0,0,0,.013.045c.025.1.056.193.086.283a3.669,3.669,0,0,0,.554.963.49.49,0,0,1,.042.047,2.8,2.8,0,0,0,.29.292.078.078,0,0,0,.025.021,3.227,3.227,0,0,0,.774.507c.065.027.135.062.206.087,0,0,.005,0,.005-.007.151-.117.292-.24.431-.361.022-.02.044-.038.065-.059.143-.128.285-.261.42-.4l0,0c.068-.07.137-.143.2-.214,0,0,0,0,.005,0a9.827,9.827,0,0,0,.894-1.1l0,0c.086-.128.174-.261.261-.395.117-.189.232-.382.339-.579,0-.005,0-.009,0-.011.071-.132.139-.26.2-.389.016-.031.027-.059.04-.087.052-.11.1-.222.15-.333.016-.034.03-.072.043-.108.045-.108.088-.218.128-.328.011-.034.029-.068.04-.1.045-.135.092-.274.134-.41a.072.072,0,0,0,0-.018l0,0c.054-.172.1-.346.137-.52.006-.022.011-.043.015-.063.04-.174.074-.348.1-.517.031-.187.056-.371.068-.559v-.006A.035.035,0,0,0,79,36.812c.011-.113.016-.227.024-.343s.009-.247.009-.373Zm61.1,7.021c0-.015-.005-.024-.005-.036l.014-5.3v-.806a8.948,8.948,0,0,0-.393-2.74,5.94,5.94,0,0,0-.87-1.764l-2.121-2.768v-.006l-5.172,6.076-3.69-5.2a4.924,4.924,0,0,1-.775-2.693V13.388a6.714,6.714,0,0,0-.409-2.33l1.49-.86a6.763,6.763,0,0,1,1.484-.608,3.445,3.445,0,0,1,2.409.107c.059.029.116.052.173.081a2.333,2.333,0,0,1,.981,1.506.6.6,0,0,1,.025.089,2.148,2.148,0,0,1,.065.275c.009.042.018.081.025.123a3.408,3.408,0,0,1,.056.357c.011.025.011.041.021.063a10.04,10.04,0,0,1,.053,1.023v4.146l5.87-6.893.042-.052,1.212-1.428a5.867,5.867,0,0,0-1.108-2.054.977.977,0,0,0-.1-.121,5.726,5.726,0,0,0-3-1.767,6.891,6.891,0,0,0-2.768-.059,8.428,8.428,0,0,0-2.523.891l-.95.552-.009-.011L125.531,9.1a6.146,6.146,0,0,0-5.67-1.719,8.38,8.38,0,0,0-2.525.9L113.6,10.436l2.007,1.652c1.574-.541,4.1-.734,4.114,3.527V20.36a9.111,9.111,0,0,0,.395,2.721,5.671,5.671,0,0,0,.867,1.771h-.007l.187.236.123.168,1.8,2.357c.009.009.009.014.009.014v0l5.162-6.067,3.435,4.812a4.9,4.9,0,0,1,1.04,3.07v3.805l-1.073.618-.009,0a6.554,6.554,0,0,1-1.482.608,3.429,3.429,0,0,1-2.41-.108,1.471,1.471,0,0,1-.173-.081,2.337,2.337,0,0,1-.983-1.5c-.009-.029-.016-.059-.025-.09-.027-.086-.042-.18-.067-.278-.007-.038-.015-.077-.024-.121-.025-.112-.042-.231-.059-.359a.176.176,0,0,1-.007-.063,7.858,7.858,0,0,1-.065-1.017V26.7l-7.122,8.373a5.793,5.793,0,0,0,1.108,2.054c.033.039.072.081.1.122a5.74,5.74,0,0,0,2.994,1.766,6.92,6.92,0,0,0,2.786.058,8.127,8.127,0,0,0,2.514-.893l4.853-2.794a5.392,5.392,0,0,0,.55.772.677.677,0,0,0,.108.124,5.636,5.636,0,0,0,1.564,1.23l7.316-4.233a3.325,3.325,0,0,1-2.976-3.423M43.821,35.617C38.272,50.223,26.842,48.982,26.842,48.982v0a26.74,26.74,0,0,1-5.309-.454A13.466,13.466,0,0,0,23.984,41.2V15.39A7.166,7.166,0,0,1,29.7,9a6.147,6.147,0,0,1,.913-.085l.007-.007a5.121,5.121,0,0,1,1.194.119c.05.009.1.025.146.034a4.683,4.683,0,0,1,2.975,2.411c.058.119.086.186.086.186l.007-.009.909-1.072,1.568-1.841,0-.006,1.522-1.791.826-.972-1.778-.4-2.22-.5-.07-.019-1.221-.27-2.341-.523.029.034a10.318,10.318,0,0,0-4.491-.125C16.656,6.5,16.478,17.086,16.478,17.086V42.23a11.269,11.269,0,0,1-5.708,9.927A12.06,12.06,0,0,0,13.9,44.867V16.97c0-.1,0-.187.006-.281a16.1,16.1,0,0,1,3.379-8.5l-3.412,1.978-12.2,7.023,2.067.924a3.49,3.49,0,0,1,.968-.318A2.684,2.684,0,0,1,8,20.485V48.142a15.458,15.458,0,0,1-.294,3.237c-.309,1.044-1.389,2.965-5.145,3.785-1.051.191-1.868.281-2.274.317-.094.01-.189.019-.288.024l3.217,4.382.083-.059a39.766,39.766,0,0,0,7.511-2.422.079.079,0,0,1,.016-.007c.243-.11.483-.22.716-.33a41.707,41.707,0,0,1,4.777-1.793c1.12-.3,2.483-.63,4.049-.916.332-.047.608-.1.837-.146a47.664,47.664,0,0,1,17.59.274l8.18-14.573" transform="translate(0 0)" fill="#fff"/>
  </g>
</svg>
